<?xml version="1.0" encoding="utf-8"?>
<!-- Generator: Adobe Illustrator 16.0.0, SVG Export Plug-In . SVG Version: 6.00 Build 0)  -->
<!DOCTYPE svg PUBLIC "-//W3C//DTD SVG 1.1//EN" "http://www.w3.org/Graphics/SVG/1.1/DTD/svg11.dtd">
<svg xmlns="http://www.w3.org/2000/svg" xmlns:xlink="http://www.w3.org/1999/xlink" version="1.1" id="Layer_1" x="0px" y="0px" width="652.32px" height="414px" viewBox="0 0 652.32 414" enable-background="new 0 0 652.32 414" xml:space="preserve">
<g>
	<path fill="#DBECCB" stroke="#010101" stroke-width="0.2" stroke-miterlimit="10" d="M440.358,100.978   c0-2.436-2.493-14.711-3.694-20.385l-24.355,1.824l-1.762,7.047c-0.838,3.353-6.738,5.477-9.002,5.477   c-0.953,0-4.104,0.165-7.153,0.327c-3.217,0.167-6.253,0.33-7.265,0.33c-6.154,0-10.629-0.228-13.303-0.673   c-3.725-0.621-9.604-5.625-13.895-9.274c-0.629-0.536-1.215-1.033-1.742-1.47c-4.378-3.647-7.709-10.046-8.857-12.92   c-1.484-3.717-0.031-23.747,0.605-26.277c0.497-1.982,2.746-22.436,3.752-31.837l-5.036,0.502   c-0.687,0.169-5.447,1.348-8.493,1.957c-2.506,0.502-7.776,3.208-11.621,5.179c-0.924,0.471-1.774,0.908-2.507,1.272   c-1.8,0.9-4.567,2.356-7.54,3.917c-3.596,1.886-7.314,3.838-10.16,5.258c-6.232,3.124-11.2,2.384-15.178-2.246   c-2.449-2.861-7.098-3.121-9.628-3.029c0.162,0.656,0.313,1.248,0.441,1.726c3.507,4.497,9.54,11.741,11.255,12.598   c2.115,1.058,5.348,4.368,5.908,7.839c0.32,1.976-0.258,3.768-1.669,5.179c-4.129,4.126-4.247,9.693-4.247,10.318   c0,1.009-0.482,11.054-0.986,21.688c-0.487,10.134-0.984,20.614-0.984,21.572c0,1.294,2.771,5.589,5.984,7.52   c2.286,1.371,4.099,4.875,5.852,8.268c1.043,2.021,2.027,3.928,2.979,5.11c1.865,2.333,1.393,5.031-0.019,7.845   c0.063,0.006,2.573,0.195,3.839-1.07c1.28-1.28,5.551-2.347,5.551-2.347s0.213-0.429,2.135-0.855c1.919-0.427,1.709,1.067,2.989,0   c1.28-1.066,2.133-1.921,2.989-2.562c0.853-0.641,1.279-1.28,1.919-1.494c0.64-0.215,1.708-1.494,2.348-1.709   c0.642-0.215,1.922-1.068,2.563-1.068c0.639,0,2.772,0,3.416,0c0.643,0,0.854-0.853,2.563,0s2.137,0.426,3.63,0.853   c1.493,0.429,4.37,1.07,4.37,1.07s0.754,1.492,2.675,2.348c1.924,0.854,2.348,0.917,4.059,1.097c1.707,0.182,3.415,0,3.415,0   s2.136-1.524,3.63-2.806c1.494-1.279,1.281-1.399,2.989-2.94c1.707-1.542,2.986-3.678,2.986-3.678s1.496-1.28,4.698,0   c3.201,1.279,9.18,2.133,12.168,0.855c2.989-1.28,6.405-1.424,6.405-1.424s5.764-3.273,6.618-1.352   c0.853,1.921-2.775,6.191,0,5.977c2.771-0.213,8.109-1.07,8.109-1.07s-0.426-1.278,1.069,0.217   c1.494,1.494,2.349,0.049,3.417,3.121c1.067,3.069,1.921,4.135,2.347,5.843c0.428,1.709,0.854,2.776,1.281,4.483   c0.428,1.709,1.388,5.336,1.388,5.336s-0.104,2.135,0,2.456c0.106,0.32,5.232-3.522,5.232-3.522s1.813-0.854,2.563-1.175   c0.748-0.321,2.349-0.853,2.988-1.068c0.513-0.169,0.884-0.403,1.178-0.49c-0.09-1.538,0.09-3.811-0.271-5.007   c-0.479-1.601-0.161-4.163,0-5.283c0.16-1.122,1.92-4.964,1.92-4.964s2.244-3.362,3.043-4.163c0.801-0.801,3.202-1.442,4.057-2.082   c0.856-0.641,3.471-2.563,3.949-2.722c0.482-0.16,2.402-2.242,2.402-2.242s1.968-0.984,3.436-1.648   C441.744,106.7,440.358,102.741,440.358,100.978z"/>
	<path fill="#FBD0D1" stroke="#010101" stroke-width="0.2" stroke-miterlimit="10" d="M479.792,196.083   c0.781-0.742,1.433-1.138,2.026-1.463c-0.143-0.02-0.277-0.046-0.424-0.06c-7.086-0.707-10.234-8.25-10.234-10.999   c0-0.778-0.4-3.688-0.786-6.51c-0.552-4.033-1.18-8.606-1.18-10.526l0.011-0.844c0.049-3.172,0.098-6.169-4.968-7.187   c-2.204-0.439-3.086-1.659-3.43-2.601c-1.327-3.6,2.906-9.143,3.395-9.76c0.141-0.154,4.649-4.66,6.54-7.189   c1.755-2.336,7.579-4.898,10.007-5.892c-0.558-2.02-1.722-6.496-1.722-9.136c0-0.754,0-2.767-3.418-2.767   c-0.695,0-2.032-0.139-3.877-0.33c-3.758-0.389-9.433-0.981-15.131-0.981c-5.159,0-9.573-4.56-12.494-9.304   c-1.469,0.664-3.438,1.649-3.438,1.649s-1.92,2.08-2.401,2.24c-0.48,0.16-3.094,2.082-3.947,2.722   c-0.855,0.641-3.256,1.28-4.06,2.082c-0.8,0.801-3.043,4.163-3.043,4.163s-1.761,3.842-1.919,4.964   c-0.162,1.12-0.479,3.681,0,5.283c0.36,1.198,0.183,3.469,0.271,5.007c0.031,0.519,0.091,0.955,0.211,1.237   c0.481,1.122,1.281,2.242,2.4,4.163c1.122,1.919,1.922,3.203,2.563,4.323c0.64,1.123,0.802,2.243,1.279,3.842   c0.481,1.603,1.28,2.082,1.28,2.082l1.016,4.483c0,0,1.546,2.562,2.027,4.163c0.479,1.601,1.278,3.522,1.278,4.964   c0,1.44-0.32,1.12-0.801,3.202c-0.021,0.091-0.046,0.18-0.074,0.271c-0.062,0.191-0.138,0.38-0.225,0.572   c-0.284,0.711-0.567,1.354-0.853,1.944c-0.309,1.131,0.065,2.178,2.911,2.977c5.124,1.441,6.244,3.727,6.244,3.727   s2.563,2.997,3.522,4.439c0.961,1.442,1.44,3.523,2.401,5.123c0.96,1.601,0.96,2.562,1.44,3.842   c0.48,1.282,0.962,2.402,1.762,3.844c0.801,1.441,1.601,2.242,2.401,3.522c0.8,1.28,2.081,3.202,2.081,3.202   s0.479,0.749,0.962,2.217c0.479,1.466,2.24,3.387,2.398,4.828c0.162,1.44,0.482,2.242,1.922,1.762   c1.438-0.482,2.882-3.682,2.882-3.682s0.32-0.48,0.961-0.48s1.603-2.082,2.883-1.602s4.004,0,4.004,0s2.4,0.428,3.36-0.825   c0.962-1.254,1.762-2.696,1.762-2.696s0.481-1.763,0-2.082c-0.479-0.32-1.44-1.601-1.44-2.082c0-0.48-0.479-0.639,0.162-1.601   C478.935,197.361,478.189,197.608,479.792,196.083z" id="5" name="Roudan"/>
	<path fill="#FBD0D1" stroke="#010101" stroke-width="0.2" stroke-miterlimit="10" d="M292.136,206.784   c-0.641-0.347-2.669-1.146-3.31-1.575c-0.641-0.427-4.27,0-6.191,0.641c-1.921,0.639-6.939,0.639-8.221,0   c-1.28-0.641-1.599-2.562-2.133-3.316c-0.536-0.752-0.96-1.272-1.494-1.488c-0.534-0.213-2.563,0.32-3.418,0   c-0.855-0.32-2.882,0.534-5.549,0.641c-2.669,0.105-1.708,0.534-3.203,0.748c-1.495,0.213-2.135,0.107-3.738-0.534   c-1.599-0.639-1.067-1.175-1.599-1.919c-0.534-0.75-0.853-1.07-1.601-1.976c-0.748-0.907-0.854-0.586-1.601-1.122   c-0.748-0.534-1.173-0.746-1.389-1.387c-0.213-0.641,0.854-0.961,1.282-1.333c0.424-0.374,1.28,0.48,2.081,0   c0.8-0.481,0.96-1.122,0.96-2.243c0-1.12,0-1.44,0-2.25s0.959-1.914,0.959-1.914s1.44-1.761,2.563-3.201c1.12-1.44,0-3.043,0-3.958   c0-0.514,0-2.181,0-3.543c-4.156-0.238-8.752-0.542-12.416-0.847l-3.182-0.267c-9.692-0.821-27.736-2.352-34.083-2.352   c-4.759,0-8.869,0.867-13.62,1.866c-2.258,0.476-4.596,0.965-7.163,1.398c-6.36,1.059-18.364,8.069-22.06,10.3   c0.995,1.291,2.751,3.636,4.489,6.246c2.446,3.674,1.03,7.225-0.06,8.591c-0.154,0.165-9.213,9.881-11.122,12.423   c-1.174,1.563-4.542,3.413-7.47,4.813c0.554,1.094,1.386,2.656,2.191,3.846c0.015,0.023,0.031,0.047,0.044,0.07   c1.39,2.026,1.494,1.709,3.096,3.095c1.599,1.389,1.175,1.067,2.135,1.815c0.96,0.745,2.669,1.387,4.911,2.133   c2.243,0.744,3.201,0,5.763,0.426c2.561,0.428,2.562,0.533,4.058,0.428c1.494-0.105,2.987,0.426,5.017,0.854   c2.028,0.426,4.056,0.532,5.443,0.961c1.389,0.426,3.844,1.707,4.164,1.92c0.317,0.213,2.669,0.748,4.695,0.319   c2.028-0.428,8.327-0.642,10.568-0.642c2.241,0,6.244,0.693,7.686,0.693c1.44,0,4.483,1.121,6.244,1.121c1.761,0,2.722,0,2.722,0   s1.599-0.32,2.882-0.961c1.28-0.641,2.562-1.279,3.682-2.4c1.122-1.121,2.08-1.92,3.523-2.721c1.44-0.804,1.44-1.442,2.402-2.402   c0.958-0.959,1.599-1.44,3.04-2.563c1.442-1.12,1.282-1.599,1.603-3.2c0.319-1.6,0.639-1.92,1.12-2.884   c0.481-0.959,2.082-3.041,3.684-4.323c1.599-1.278,2.881-1.278,4.002-2.633c1.12-1.353,1.761,0.071,4.135,0.071   c2.373,0,2.109-0.16,3.711,0c1.599,0.162,4.163,0.96,7.685,1.761c3.523,0.801,2.721,0.801,5.284,1.238   c2.562,0.438,1.919,0.521,4.643,1.005c2.723,0.479,3.203-0.481,4.483-0.874c1.282-0.391,2.081,0.23,4.005,0.071   c1.919-0.16,4.163,0,4.801,0c0.641,0,2.083,0,3.683,0c0.562,0,1.128,0.043,1.725,0.151c0.105-0.174,0.226-0.364,0.358-0.576   c0.534-0.854,0.746-1.603,0.961-2.563c0.213-0.96,0.319-0.96,1.066-1.709c0.748-0.746,0.641-0.425,1.496-0.96   c0.853-0.534,1.28-1.174,1.28-1.494C293.842,207.98,292.777,207.13,292.136,206.784z" id="6" name="Bastak"/>
	<path fill="#D2D2D2" stroke="#231F20" stroke-width="0.3" stroke-miterlimit="10" d="M435.678,173.894   c0.284-0.589,0.568-1.233,0.853-1.944C436.238,172.603,435.853,173.26,435.678,173.894z" id="4" name="Gheshm"/>
	<path fill="#FDFAD4" stroke="#010101" stroke-width="0.2" stroke-miterlimit="10" d="M617.622,304.632   c-2.045-4.903-3.969-9.532-4.745-11.088c-1.792-3.578-4.004-15.464-4.564-18.583c-0.25,0.066-0.488,0.162-0.75,0.205   c-0.313,0.049-0.646,0.078-0.99,0.078c-3.875,0-9.349-3.184-13.818-5.785c-0.595-0.35-1.162-0.682-1.696-0.98   c-0.597-0.344-1.226-0.691-1.87-1.057c-4.591-2.564-9.797-5.473-11.094-8.701c-0.409-1.025-0.59-1.943-0.748-2.756   c-0.382-1.931-0.71-3.604-4.177-6.632c-4.995-4.375-6.604-4.222-11.399-3.029c-5.854,1.47-15.434-2.831-18.716-5.459   c-2.299-1.839-5.104-4.801-7.813-7.667c-1.215-1.283-2.388-2.523-3.424-3.56c-2.44-2.441-5.759-2.378-10.771-2.312   c-0.898,0.014-1.842,0.032-2.829,0.032c-0.661,0-1.255-0.021-1.813-0.049c-0.31,0.983-0.761,2.313-0.962,2.415   c-0.318,0.162-0.639,0.803-1.173,1.549c-0.534,0.748-1.28,2.027-1.814,2.563s-1.602,1.814-2.347,2.35   c-0.749,0.534-1.496,1.175-2.245,1.919c-0.746,0.75-1.493,1.39-1.919,2.03c-0.429,0.639-0.75,1.389-0.536,2.133   c0.216,0.749-0.241,1.389-0.067,2.243c0.175,0.854,0.49,1.175-0.039,2.134c-0.53,0.961-0.746,0.749-0.746,1.814   c0,1.068,0.749,2.242,0.428,3.418c-0.32,1.172,1.065,2.133,0.96,3.521c-0.106,1.388,0.319,4.697,0.319,5.019   c0,0.32-0.215,0.854-0.641,1.707c-0.428,0.854-0.748,2.349-1.068,2.775c-0.319,0.424,0,1.919,0,2.667   c0,0.746-0.926,1.601-0.144,2.669c0.783,1.066,1.531,1.92,1.958,2.989c0.428,1.065,0.96,1.813,1.069,3.093   c0.104,1.282,0.318,2.563-0.108,3.415c-0.424,0.856-0.639,2.455-1.493,2.886c-0.854,0.426-0.319,0.853-2.455,0.853   c-2.134,0-5.23-0.748-6.296-1.175c-1.07-0.426-1.813-0.746-3.097-0.319c-1.278,0.428-2.027,0-3.682,0.319   c-1.652,0.322-2.937,0.961-4.431,1.175c-1.494,0.215-2.029,0.104-4.483,0c-2.452-0.105-1.173-0.106-4.378-0.267   c0.482,1.121-0.638,1.601,0,2.721c0.643,1.123,0.643,3.363,1.282,4.484c0.641,1.12,1.12,1.76,2.241,3.359   c1.122,1.602,2.243,2.882,3.043,4.482c0.801,1.603,2.081,3.363,2.081,3.363s2.563,6.244,2.563,7.686   c0,1.091,1.012,2.463,1.643,4.179c1.084-0.478,2.459-3.874,3.562-5.86c1.201-2.16,2.722-0.08,3.925,1.121   c1.199,1.202,3.121,1.602,4.643,1.202c1.521-0.401,1.922,0.722,2.883,2.32c0.96,1.601,1.921,3.442,4.483,4.803   s2.16,2.481,2.881,1.909c0.722-0.572,1.123-1.348,2.484-1.348c1.358,0,2-1.279,2.64-1.441c0.641-0.16,1.121-0.32,2.081-0.32   c0.961,0,0.801,0.161,1.923,0.32c1.12,0.162,1.44,0.641,2.4,1.441c0.959,0.802,3.521,2.242,6.242,2.883   c2.724,0.64,0.804,0.318,4.073,1.439c3.271,1.12,1.21,1.28,2.972,2.402c1.763,1.12,2.08,1.6,3.203,1.791   c1.12,0.191,0.959,0.128,2.082,0c1.12-0.13,1.762-1.152,3.039-1.953c1.282-0.801,2.402-1.279,4.646-2.563   c2.242-1.279,1.921-0.48,4.963-0.801c3.043-0.318,3.203,0.479,4.165,0.479c0.959,0,2.081,0.802,2.881,1.122   c0.801,0.32,2.562,0.801,3.521,0.801s3.203,0.96,3.203,0.96s5.443,1.761,7.204,1.921c1.764,0.16,2.723-0.32,3.844-0.801   c1.12-0.48,2.081-0.96,3.521-1.764c1.442-0.799,2.563-1.599,4.006-2.08c1.44-0.48,3.039-1.601,3.842-1.92   c0.803-0.32,3.844-1.762,5.284-2.241c1.44-0.482,3.681,0,3.681,0s3.204-1.601,4.483-1.921c1.281-0.321,3.363-0.643,5.124-1.12   c1.761-0.481,3.684-1.603,3.684-1.603s4.481-1.121,4.965-0.961c0.259,0.09,1.416,0.361,2.418,0.598   C619.765,309.779,618.671,307.15,617.622,304.632z" id="12" name="Bashagard"/>
	<path fill="#FDFAD4" stroke="#010101" stroke-width="0.2" stroke-miterlimit="10" d="M149.85,219.225   c-2.324,1.114-4.372,1.944-4.831,2.127l-0.49,0.195l-0.471-0.234c-0.271-0.138-6.662-3.34-10.613-5.972   c-2.626-1.75-5.981-1.521-9.534-1.272c-1.181,0.082-2.406,0.162-3.583,0.162c-5.078,0-8.042-2.97-10.66-5.59   c-1.712-1.711-4.114-3.188-6.656-4.75c-1.193-0.731-2.425-1.488-3.654-2.312c-3.919-2.613-18.83-8.321-23.6-8.321   c-1.791,0-3.383-0.827-4.825-2.052c-0.011,0.003-0.021,0.017-0.034,0.021l-19.008,6.549c-0.037,0.014-0.078,0.011-0.116,0.023   l6.311,6.041l4.219,1.254l1.872,1.248l0.781,2.343l0.94,1.096l5.309,1.402l1.254,1.402l0.938,1.877l1.251,1.404l1.875,0.467   l2.032,0.314l31.092,11.095l1.753,1.106c2.599-0.24,4.894-0.804,5.458-1.226c0.854-0.64,1.173-0.321,3.096-0.216   c1.921,0.107,2.455,0.748,3.735,0.962c1.282,0.212,2.135,0.104,2.989,0c0.854-0.107,2.348-0.107,3.63-0.107   c1.282,0,2.349,0.642,3.63,0.854c1.282,0.214,3.203,0.854,4.484,1.174c1.28,0.32,3.095,1.175,4.802,1.391   c1.709,0.213,2.135,0.426,2.989,0c0.853-0.428,0.853-1.176,1.173-2.455c0.32-1.281,0.641-2.563,1.282-3.311   c0.64-0.748,1.494-1.708,1.921-1.98c0.171-0.11,0.783-0.475,1.448-0.865C151.236,221.883,150.403,220.32,149.85,219.225z" id="10" name="Parsian"/>
	<path fill="#D2D2D2" stroke="#231F20" stroke-width="0.3" stroke-miterlimit="10" d="M436.529,171.95   c0.087-0.192,0.164-0.383,0.225-0.572C436.678,171.571,436.604,171.762,436.529,171.95z" id="13" name="Boumousa"/>
	<path fill="#DBECCB" stroke="#010101" stroke-width="0.2" stroke-miterlimit="10" d="M307.462,237.133l-0.472,0.311l-1.407,0.472   l3.78-4.37c-1.231-0.668-2.566-1.77-2.392-3.357c0.32-2.883-0.015-6.726-0.015-6.726s-1.746-1.921-2.545-2.401   c-0.801-0.48-0.162-1.44-2.722-1.44s-3.203,0.64-4.164,0c-0.96-0.642-1.599-0.804-2.561-1.28c-0.961-0.48,0,0-2.402-1.281   c-1.56-0.83-2.777-1.252-3.88-1.451c-0.597-0.106-1.16-0.148-1.724-0.148c-1.601,0-3.043,0-3.684,0c-0.638,0-2.881-0.162-4.801,0   c-1.922,0.16-2.722-0.464-4.005-0.073c-1.279,0.392-1.761,1.353-4.483,0.874c-2.721-0.48-2.082-0.566-4.644-1.006   c-2.562-0.438-1.761-0.438-5.284-1.236c-3.521-0.802-6.085-1.601-7.685-1.762c-1.602-0.16-1.336,0-3.711,0   s-3.017-1.424-4.135-0.072c-1.121,1.354-2.401,1.354-4.002,2.635c-1.602,1.279-3.203,3.361-3.683,4.322   c-0.481,0.961-0.801,1.282-1.12,2.883c-0.32,1.602-0.162,2.082-1.603,3.203c-1.44,1.121-2.081,1.602-3.04,2.563   c-0.961,0.962-0.961,1.6-2.401,2.402c-1.442,0.801-2.402,1.599-3.523,2.722c-1.122,1.12-2.402,1.761-3.682,2.401   c-1.282,0.639-2.882,0.959-2.882,0.959s-0.961,0-2.722,0c-1.761,0-4.804-1.121-6.244-1.121c-1.442,0-5.443-0.693-7.686-0.693   c-2.242,0-8.541,0.215-10.568,0.641c-2.026,0.428-4.376-0.104-4.695-0.32c-0.32-0.213-2.775-1.492-4.164-1.918   c-1.389-0.428-3.417-0.533-5.443-0.961c-2.029-0.428-3.523-0.961-5.017-0.854c-1.496,0.105-1.496,0-4.058-0.428   c-2.563-0.426-3.521,0.318-5.763-0.426c-2.24-0.746-3.947-1.387-4.91-2.133c-0.96-0.748-0.534-0.427-2.135-1.816   c-1.603-1.387-1.708-1.068-3.095-3.094c-0.017-0.023-0.032-0.047-0.046-0.069c-0.665,0.391-1.275,0.751-1.448,0.862   c-0.427,0.273-1.282,1.233-1.921,1.981c-0.641,0.749-0.961,2.029-1.282,3.31c-0.321,1.281-0.32,2.028-1.173,2.455   c-0.854,0.427-1.28,0.213-2.989,0c-1.708-0.213-3.522-1.068-4.802-1.389c-1.282-0.32-3.203-0.961-4.484-1.175   c-1.28-0.214-2.348-0.854-3.63-0.854c-1.282,0-2.775,0-3.63,0.106c-0.854,0.106-1.708,0.214-2.989,0   c-1.28-0.213-1.814-0.854-3.735-0.961c-1.921-0.104-2.242-0.425-3.096,0.217c-0.564,0.423-2.859,0.984-5.458,1.224l1.213,0.767   l1.563,2.034l0.781,2.186l0.16,5.153l0.47,2.037l1.405,1.72l8.902,7.029l6.877,4.377l4.688,4.373l1.093,0.474l2.184-1.253   l2.188,0.158l4.061,1.404l2.036-0.157l3.748-1.093l4.219-0.625l5.937-2.967l2.03-0.311h0.944l0.781,0.311l1.718,1.563l0.94,0.312   l1.563,0.314l6.253,1.869l2.033,0.313l6.868-0.62l1.877-0.474l1.723-0.312l2.034,0.312l2.654,2.344l1.72,3.282l1.405,3.596   l1.563,2.654l3.432,1.723l8.287-0.313l4.063,0.781l2.658,2.814l1.091,3.125l1.563,2.344l4.063,0.621l7.813-0.621l1.094,0.156   l1.563,0.938l1.092,0.313l1.088-0.313l0.627-0.622l0.623-0.623l0.625-0.62l9.839-6.098l8.757-7.651l1.091-0.624l5.94-5.626   l1.399-0.625l4.069-1.248l1.722-0.313l2.184-0.469l0.94-1.563l0.464-1.874l1.099-2.031l3.435-1.72l4.221,0.621l7.339,2.658   l4.216,0.154l3.75-0.781l3.439-1.871l2.962-2.815l1.407-2.185l0.937-2.97l0.625-3.28l-0.31-2.654L307.462,237.133z" id="3" name="Bandar Lengeh"/>
	<path fill="#E8D0E5" stroke="#010101" stroke-width="0.2" stroke-miterlimit="10" d="M508,221.451   c-1.885-3.771-4.289-6.794-9.918-9.29c-5.261-2.338-5.895-6.955-6.275-9.715c-0.084-0.6-0.159-1.163-0.264-1.47   c-0.465-1.399-3.751-5.58-9.726-6.355c-0.595,0.325-1.245,0.722-2.026,1.463c-1.604,1.524-0.854,1.282-1.494,2.242   c-0.641,0.961-0.162,1.123-0.162,1.602s0.962,1.761,1.442,2.082c0.479,0.319,0,2.082,0,2.082s-0.802,1.44-1.761,2.695   c-0.963,1.255-3.363,0.827-3.363,0.827s-2.721,0.479-4.004,0c-1.279-0.48-2.242,1.601-2.883,1.601s-0.96,0.48-0.96,0.48   s-1.441,3.201-2.883,3.683c-1.439,0.479-1.761-0.319-1.92-1.763c-0.162-1.442-1.921-3.36-2.4-4.829   c-0.482-1.468-0.962-2.216-0.962-2.216s-1.28-1.92-2.081-3.202c-0.802-1.282-1.602-2.081-2.401-3.521   c-0.8-1.442-1.279-2.563-1.762-3.844c-0.48-1.28-0.48-2.243-1.44-3.842c-0.961-1.601-1.44-3.682-2.4-5.123   c-0.962-1.442-3.523-4.439-3.523-4.439s-1.12-2.286-6.244-3.726c-2.846-0.803-3.221-1.85-2.911-2.978   c-1.696,3.536-3.266,4.909-3.571,5.217c-0.482,0.482-0.882,1.682-2.484,4.483c-1.599,2.802-0.638,0.879-1.319,2.322   c-0.68,1.44-0.602,2.161-0.602,2.802c0,0.641,0.4,1.599,0.562,2.402c0.159,0.8-0.162,1.358-0.803,3.282   c-0.641,1.921-0.801,0.96-0.961,1.201c-0.16,0.239-0.958,1.122-1.404,1.762c-0.442,0.638-0.273,1.12-0.049,1.679   c0.229,0.562-0.386,1.361-0.546,1.682c-0.162,0.32-0.962,1.921-1.122,2.161c-0.161,0.241-0.56,0.722-1.202,1.763   s-0.479,1.202-0.398,1.68c0.079,0.482,0.56,2.002,0.96,2.802c0.4,0.803-0.641,2.162-0.96,2.803   c-0.127,0.254-0.635,0.555-1.195,0.824l0.327,1.729l1.563,2.185l2.188,1.563l2.653,0.469v0.781l-0.781,0.623l-1.563,1.873   l-0.469,0.312l-0.944,0.47v0.78l0.627,0.472l1.096-0.158v1.093l0.311,0.78l0.471,0.472l1.873-0.938l0.623,0.467l0.467,0.625   l0.473,0.474l0.472,0.153l0.311,0.469l0.472,0.626l0.939,0.155l0.938-0.155l2.814-1.248l-0.622,0.778l-0.317,1.091l0.163,0.938   l0.783,0.783l-1.097,0.469l-0.938,0.625l-1.093,0.469l-1.251-0.159l0.938,1.091l2.815,2.033l-0.159,1.723l0.459,0.723h2.508   c0,0,2.081-1.601,2.563-1.762c0.479-0.16,0.801-0.959,1.599-1.439c0.803-0.481,1.763,0.16,2.243-1.12   c0.479-1.282,0.641-3.363,1.763-3.363c1.12,0,3.041,0,3.041,0s1.121,0,1.763,0.961c0.639,0.96,1.762,2.402,1.919,2.881   c0.162,0.482,0.481,1.282,0,2.402c-0.479,1.121-0.801,1.28-0.641,2.401c0.162,1.121,0.748,1.601,1.335,2.883   c0.588,1.279,1.389,2.242,2.029,2.883c0.64,0.639,2.563,1.121,2.563,1.121s1.44,0,1.921,0c0.479,0,0.16-0.162,1.279,0   c1.123,0.16,1.761-0.162,2.401,1.279c0.64,1.44-0.642,2.4,0,3.203c0.641,0.801,0.212,1.762,0.185,2.562   c-0.023,0.801,0.296,1.92,0.938,3.043c0.638,1.12,1.12,1.919,1.6,3.358c0.48,1.442,1.44,3.043,1.761,4.006   c0.32,0.961,0.642,4.162,0.961,4.644c0.32,0.482,2.402,5.284,2.563,5.763c0.161,0.481,0.48,1.764,1.119,3.203   c0.642,1.44,1.922,3.04,2.243,3.844c0.321,0.801,1.763,1.918,2.241,3.041c3.204,0.16,1.924,0.162,4.378,0.267   c2.453,0.104,2.989,0.216,4.482,0c1.494-0.215,2.776-0.854,4.43-1.173c1.656-0.32,2.402,0.105,3.684-0.32   c1.28-0.426,2.026-0.107,3.096,0.32c1.066,0.426,4.163,1.173,6.296,1.173c2.137,0,1.604-0.427,2.455-0.854   c0.854-0.426,1.069-2.026,1.494-2.882c0.427-0.854,0.215-2.132,0.107-3.415c-0.107-1.279-0.641-2.027-1.069-3.095   c-0.425-1.067-1.175-1.922-1.957-2.989c-0.783-1.066,0.144-1.92,0.144-2.669c0-0.748-0.32-2.241,0-2.668   c0.32-0.426,0.64-1.921,1.067-2.772c0.428-0.854,0.64-1.389,0.64-1.709c0-0.319-0.426-3.629-0.317-5.018   c0.104-1.389-1.28-2.35-0.96-3.523c0.319-1.174-0.429-2.348-0.429-3.414c0-1.069,0.215-0.854,0.746-1.815   c0.531-0.96,0.216-1.28,0.04-2.135c-0.174-0.854,0.282-1.494,0.067-2.242c-0.214-0.747,0.105-1.493,0.535-2.133   c0.426-0.642,1.175-1.282,1.92-2.029c0.749-0.748,1.495-1.388,2.243-1.921c0.747-0.533,1.813-1.813,2.348-2.35   c0.534-0.533,1.28-1.813,1.813-2.561c0.536-0.749,0.854-1.389,1.175-1.549c0.198-0.1,0.65-1.432,0.961-2.416   C511.09,227.018,509.979,225.405,508,221.451z" id="2" name="Minab"/>
	<path fill="#FBD0D1" stroke="#010101" stroke-width="0.2" stroke-miterlimit="10" d="M640.938,365.122   c0-3.808-1.437-6.606-2.702-9.079l-0.45-0.886c-1.225-2.455-7.728-11.542-10.139-13.354c-2.696-2.019-5.893-5.027-5.817-7.886   c0.026-0.89,0.379-2.162,1.931-3.201c3.654-2.438,4.435-3.157,2.254-6.965c-1.07-1.874-3.048-6.396-5.193-11.478   c-1.003-0.232-2.159-0.508-2.419-0.594c-0.48-0.162-4.964,0.957-4.964,0.957s-1.924,1.123-3.685,1.603s-3.842,0.8-5.122,1.12   s-4.482,1.922-4.482,1.922s-2.243-0.482-3.683,0c-1.441,0.48-4.482,1.919-5.284,2.24c-0.801,0.322-2.401,1.44-3.843,1.922   c-1.44,0.48-2.563,1.279-4.005,2.082c-1.439,0.801-2.4,1.279-3.521,1.761c-1.121,0.479-2.081,0.96-3.845,0.801   c-1.761-0.161-7.202-1.921-7.202-1.921s-2.243-0.96-3.203-0.96s-2.722-0.479-3.523-0.801c-0.8-0.32-1.919-1.122-2.881-1.122   c-0.961,0-1.121-0.799-4.164-0.48c-3.041,0.32-2.721-0.479-4.964,0.801s-3.361,1.763-4.645,2.563   c-1.279,0.801-1.921,1.823-3.041,1.953c-1.12,0.128-0.961,0.19-2.081,0c-1.121-0.192-1.441-0.673-3.202-1.791   c-1.762-1.122,0.298-1.282-2.974-2.402c-3.271-1.12-1.35-0.801-4.07-1.44c-2.723-0.641-5.285-2.08-6.243-2.883   c-0.962-0.803-1.282-1.279-2.402-1.439c-1.123-0.161-0.961-0.32-1.922-0.32c-0.959,0-1.44,0.16-2.082,0.32   c-0.638,0.16-1.278,1.439-2.64,1.439c-1.362,0-1.762,0.777-2.482,1.349s-0.319-0.548-2.883-1.909   c-2.563-1.359-3.523-3.202-4.482-4.804c-0.96-1.599-1.359-2.722-2.883-2.319c-1.521,0.4-3.442,0-4.644-1.202   c-1.202-1.2-2.723-3.282-3.924-1.12c-1.104,1.985-2.477,5.383-3.562,5.859c-0.096,0.043-0.19,0.07-0.281,0.063   c-1.123-0.078-4.884-0.186-5.953,0.135c-1.066,0.32-6.298,3.631-6.298,3.631s-2.883,2.347-3.201,2.668   c-0.319,0.32-1.278,1.492-1.813,1.919c-0.535,0.428-2.351,1.282-3.31,1.922c-0.961,0.642-2.135,1.28-2.884,1.707   c-0.747,0.426-2.026,1.067-2.669,1.175c-0.641,0.107-1.707,0.643-2.772,0.75c-1.068,0.104-1.814-0.107-3.096,0   c-0.862,0.071-2.55,0.432-3.557,0.662l0.314,1.867l1.245,3.902l0.317,1.254l0.156,0.47h0.308l1.099-0.158l0.465,0.158l2.035,2.502   l0.157,0.47l0.938,0.938l0.779,2.03l1.1,4.379l2.184,5.466l0.619,5.313l0.624,1.563l1.256,0.781l12.342,0.937l-0.782,0.626   l6.251,2.029l2.344,0.314l0.941-0.16l1.718-0.471l1.09-0.156l1.099,0.156l1.87,1.092l1.095,0.161l5.155-1.253l2.036-0.156   l2.344,0.156l1.869,0.471l1.407,1.252l0.938,2.5l0.155,0.943l-0.155,0.309l-0.156,0.623l-0.313,1.252l-0.47,4.687h1.405   l2.026-1.252l3.127-2.813l3.749-2.029l3.749-0.941l3.435,0.781l2.815,3.747l2.815,6.092l2.029,2.97l2.5,1.25l2.971,0.471   l2.813,0.938l3.127,0.622l3.282-0.468l3.28-2.505l0.474-0.156l0.309,0.625l0.78,0.156l0.938-0.312l0.782-0.471l1.098-1.092h0.464   l0.317,0.311l0.622,0.311l1.4-0.311l2.035-1.871l1.251-0.783l2.964-0.621l2.659-0.159l-0.624,1.72l1.719,0.939l4.844,0.311   l5.785-0.939l16.563,3.283h7.813l1.09,0.313l0.475,0.78l0.307,1.093l0.625,1.096l0.78,0.468l3.126-0.158l3.599,1.721l2.345,2.968   l4.214,7.188l1.096,1.095l1.563,0.621l1.874,0.47l2.031,0.158l0.94-0.312l0.781-0.313l0.78-0.313l0.622,0.473l0.781,0.78   l0.782,0.159l1.873-0.474l5.158-2.651l1.165-0.214c-0.076-0.162-0.126-0.345-0.117-0.539   C639.643,396.258,640.938,369.628,640.938,365.122z" id="8" name="Bandar Jask"/>
	<path fill="#DBECCB" stroke="#010101" stroke-width="0.2" stroke-miterlimit="10" d="M488.226,309.277   c0-1.441-2.562-7.685-2.562-7.685s-1.282-1.763-2.082-3.362c-0.801-1.602-1.921-2.881-3.042-4.483   c-1.122-1.601-1.6-2.24-2.242-3.36c-0.641-1.121-0.641-3.361-1.281-4.481c-0.64-1.122,0.482-1.603,0-2.722   c-0.479-1.123-1.92-2.242-2.24-3.043c-0.322-0.8-1.603-2.401-2.243-3.843c-0.64-1.44-0.959-2.722-1.12-3.202   c-0.16-0.48-2.242-5.283-2.563-5.764c-0.319-0.479-0.641-3.682-0.961-4.645c-0.319-0.959-1.279-2.561-1.761-4.002   c-0.48-1.442-0.962-2.244-1.601-3.361c-0.641-1.122-0.96-2.243-0.938-3.043c0.026-0.801,0.456-1.762-0.185-2.561   c-0.642-0.802,0.641-1.764,0-3.203c-0.642-1.44-1.278-1.121-2.401-1.28c-1.12-0.16-0.8,0-1.279,0s-1.921,0-1.921,0   s-1.921-0.48-2.562-1.121c-0.643-0.64-1.442-1.601-2.03-2.882c-0.587-1.281-1.173-1.762-1.335-2.885   c-0.16-1.119,0.162-1.277,0.642-2.4c0.48-1.12,0.16-1.92,0-2.402c-0.16-0.479-1.281-1.919-1.922-2.881   c-0.639-0.961-1.762-0.961-1.762-0.961s-1.92,0-3.04,0c-1.121,0-1.281,2.081-1.763,3.363c-0.48,1.279-1.44,0.639-2.243,1.119   c-0.799,0.481-1.119,1.28-1.599,1.44c-0.48,0.161-2.563,1.765-2.563,1.765h-2.507l0.633,0.994l3.125,2.815l1.253,2.034   l5.937,24.998l0.313,4.996l-1.563,13.438v1.097l0.313,2.342l0.305,0.941l0.476,0.938l1.72,1.72l1.095,2.032l0.617,2.344   l0.476,4.848l0.624,0.779l-0.474,2.813l6.097,7.031l1.25,3.438l-0.944,2.188l-2.962,3.281l-0.472,2.346l0.156,1.25l0.938,2.031   l0.002,0.008c1.01-0.229,2.696-0.591,3.559-0.664c1.278-0.104,2.027,0.106,3.093,0c1.069-0.104,2.136-0.64,2.775-0.748   c0.642-0.107,1.92-0.748,2.669-1.174c0.749-0.427,1.921-1.068,2.883-1.709c0.96-0.639,2.773-1.492,3.311-1.921   c0.534-0.426,1.494-1.599,1.813-1.92c0.318-0.319,3.201-2.667,3.201-2.667s5.23-3.311,6.297-3.63   c1.068-0.319,4.831-0.214,5.953-0.135c0.092,0.008,0.186-0.021,0.282-0.063C489.237,311.743,488.226,310.371,488.226,309.277z" id="11" name="Sirik"/>
	<path fill="#E8D0E5" stroke="#010101" stroke-width="0.2" stroke-miterlimit="10" d="M354.261,191.547   c0-1.389-1.494-2.882-1.494-2.882s-1.601-2.883-2.454-4.376c-0.854-1.494-2.188-1.494-3.955-1.494s-1.596-1.761-3.519-2.197   c-1.921-0.437-3.201-0.042-5.122,0c-1.921,0.044-2.243,1.076-3.36,1.076c-1.122,0-1.602-0.639-3.363-2.081   c-1.761-1.44-1.44-1.44-3.201-3.206c-1.763-1.764-1.442,0.163-2.883-0.157c-1.442-0.32-1.442,0.48-2.722,0   c-1.279-0.481-3.362-2.082-4.645-2.883c-1.282-0.799-1.439-0.959-2.243-2.081c-0.801-1.12-1.439-1.44-2.562-2.402   c-1.122-0.96-2.723,0-4.7,0.162c-1.979,0.16-1.226,0.96-2.025,0.801c-0.803-0.162-1.601,0.641-2.722,0   c-1.122-0.641-3.523-1.122-5.604-1.227c-2.082-0.107-2.402-1.175-3.362-1.389c-0.959-0.215-3.682,0.693-4.802,1.175   c-1.123,0.479-3.684,0-4.163,0c-0.215,0-1.083-0.502-1.987-1.062c-1.379,1.616-2.422,2.798-2.927,3.302   c-2.786,2.785-10.263,6.899-13.285,6.899c-1.44,0-5.728-0.191-10.623-0.472c0,1.363,0,3.028,0,3.543c0,0.916,1.12,2.518,0,3.958   c-1.122,1.44-2.563,3.201-2.563,3.201s-0.96,1.102-0.96,1.914c0,0.811,0,1.131,0,2.249c0,1.122-0.162,1.763-0.96,2.243   c-0.801,0.481-1.655-0.374-2.081,0c-0.427,0.373-1.496,0.693-1.282,1.334c0.215,0.641,0.641,0.853,1.388,1.387   c0.748,0.535,0.854,0.215,1.601,1.122c0.749,0.908,1.068,1.228,1.601,1.976c0.534,0.748,0,1.28,1.599,1.919   c1.602,0.641,2.243,0.748,3.738,0.534c1.496-0.214,0.534-0.641,3.203-0.748c2.667-0.105,4.695-0.961,5.55-0.641   s2.884-0.214,3.418,0c0.534,0.215,0.959,0.735,1.494,1.488c0.534,0.754,0.853,2.675,2.135,3.316c1.279,0.639,6.297,0.639,8.22,0   c1.919-0.641,5.55-1.068,6.19-0.641c0.641,0.429,2.669,1.229,3.31,1.577c0.64,0.346,1.708,1.2,1.708,1.521   c0,0.321-0.427,0.961-1.28,1.494c-0.854,0.534-0.748,0.214-1.495,0.96c-0.748,0.748-0.853,0.748-1.067,1.709   c-0.215,0.96-0.427,1.708-0.961,2.563c-0.133,0.212-0.252,0.402-0.357,0.574c1.104,0.198,2.319,0.621,3.879,1.451   c2.402,1.281,1.44,0.803,2.402,1.281c0.96,0.479,1.601,0.641,2.561,1.28c0.961,0.642,1.602,0,4.164,0   c2.563,0,1.921,0.96,2.722,1.44s2.545,2.401,2.545,2.401s0.337,3.842,0.017,6.726c-0.175,1.59,1.158,2.69,2.391,3.359l1.224-1.415   l0.94-0.937l1.251-0.625l2.961-2.963l1.88-0.781h0.781l2.968,0.619h3.436l0.781-0.156l1.405-1.092l0.205-0.034   c-0.213-0.522-0.738-0.916-1.115-1.42c-0.641-0.854-0.641-1.813-0.427-2.563c0.214-0.747,0.748-1.065,1.496-1.708   c0.746-0.641,1.065-1.068,1.495-1.813c0.425-0.749-0.218-1.069-0.749-1.815c-0.532-0.746-1.708-1.813-1.921-2.133   s-0.213-1.279-0.213-1.71c0-0.429,0.748-1.28,1.281-2.026c0.532-0.75,0.747-0.748,0.961-1.494c0.212-0.746-0.215-0.854-0.535-1.707   c-0.318-0.855-0.318-1.814-0.104-2.244c0.214-0.427,1.173-1.28,1.813-1.814c0.64-0.534,1.067-0.426,3.843-1.708   c2.774-1.282,3.095-0.961,3.522-1.068c0.426-0.105,2.35-0.427,3.311-0.427c0.958,0,2.985,0.854,3.734,1.389   c0.749,0.536,2.771,0.748,2.771,0.748s1.714-1.28,2.46-1.919c0.748-0.641,1.173-1.28,1.921-1.709   c0.746-0.424,1.387-1.599,1.92-2.242c0.535-0.639,1.069-1.494,1.601-2.243C354.795,193.789,354.261,192.935,354.261,191.547z" id="9" name="Khamir"/>
	<path fill="#FDFAD4" stroke="#010101" stroke-width="0.2" stroke-miterlimit="10" d="M436.348,162.94   c-0.48-1.601-2.028-4.163-2.028-4.163l-1.014-4.483c0,0-0.802-0.479-1.281-2.081c-0.479-1.6-0.64-2.721-1.278-3.843   c-0.641-1.12-1.44-2.402-2.563-4.323c-1.12-1.921-1.92-3.041-2.401-4.163c-0.118-0.284-0.179-0.719-0.21-1.238   c-0.293,0.088-0.665,0.32-1.178,0.49c-0.641,0.215-2.24,0.748-2.988,1.068c-0.746,0.32-2.563,1.175-2.563,1.175   s-5.124,3.842-5.231,3.522c-0.107-0.32,0-2.455,0-2.455s-0.959-3.627-1.389-5.336c-0.429-1.708-0.854-2.774-1.28-4.483   c-0.427-1.708-1.279-2.774-2.348-5.843c-1.067-3.07-1.922-1.626-3.417-3.121s-1.068-0.216-1.068-0.216s-5.339,0.855-8.11,1.069   c-2.775,0.214,0.853-4.056,0-5.977c-0.854-1.919-6.618,1.352-6.618,1.352s-3.416,0.144-6.405,1.424   c-2.987,1.279-8.967,0.424-12.168-0.854c-3.201-1.28-4.697,0-4.697,0s-1.28,2.133-2.987,3.677c-1.708,1.542-1.495,1.662-2.989,2.94   c-1.494,1.282-3.63,2.807-3.63,2.807s-1.708,0.181-3.415,0c-1.709-0.18-2.135-0.243-4.058-1.097   c-1.921-0.856-2.676-2.347-2.676-2.347s-2.877-0.641-4.369-1.071c-1.494-0.424-1.921,0-3.629-0.853c-1.709-0.853-1.922,0-2.563,0   s-2.774,0-3.416,0c-0.64,0-1.922,0.853-2.563,1.068s-1.708,1.494-2.349,1.709c-0.641,0.214-1.067,0.853-1.919,1.494   c-0.854,0.639-1.709,1.495-2.989,2.562c-1.279,1.066-1.069-0.427-2.988,0c-1.921,0.424-2.136,0.854-2.136,0.854   s-4.27,1.066-5.551,2.347c-1.267,1.267-3.776,1.076-3.839,1.071c-0.989,1.976-2.441,4.007-3.873,6.014   c-2.696,3.777-14.875,18.75-20.801,25.692c0.903,0.557,1.773,1.061,1.985,1.061c0.48,0,3.041,0.479,4.163,0   c1.12-0.482,3.842-1.389,4.804-1.175c0.959,0.213,1.28,1.282,3.361,1.389c2.082,0.105,4.483,0.586,5.605,1.227s1.919-0.162,2.721,0   c0.801,0.16,0.049-0.641,2.026-0.801c1.978-0.162,3.578-1.121,4.7-0.162c1.122,0.961,1.761,1.282,2.562,2.402   c0.801,1.122,0.959,1.282,2.243,2.082c1.278,0.801,3.361,2.402,4.643,2.882c1.282,0.482,1.28-0.32,2.723,0   c1.439,0.321,1.12-1.605,2.882,0.159s1.44,1.764,3.202,3.205c1.762,1.442,2.243,2.082,3.361,2.082c1.12,0,1.44-1.032,3.36-1.076   c1.923-0.043,3.204-0.435,5.124,0c1.921,0.436,1.752,2.197,3.518,2.197c1.768,0,3.103,0,3.955,1.494   c0.854,1.494,2.455,4.376,2.455,4.376s1.494,1.494,1.494,2.884c0,1.387,0.533,2.241,0,2.986c-0.534,0.75-1.068,1.603-1.601,2.243   c-0.534,0.641-1.177,1.816-1.922,2.242c-0.747,0.427-1.176,1.068-1.919,1.709c-0.75,0.64-2.463,1.92-2.463,1.92   s-2.021-0.212-2.768-0.748c-0.748-0.534-2.775-1.388-3.737-1.388c-0.961,0-2.882,0.322-3.31,0.427   c-0.426,0.104-0.748-0.215-3.523,1.068c-2.771,1.28-3.202,1.173-3.842,1.708c-0.641,0.534-1.6,1.389-1.813,1.814   c-0.215,0.427-0.215,1.389,0.105,2.242c0.32,0.854,0.75,0.959,0.534,1.707c-0.214,0.75-0.426,0.746-0.96,1.494   c-0.536,0.746-1.28,1.601-1.28,2.028c0,0.429-0.001,1.39,0.212,1.709c0.213,0.32,1.39,1.39,1.921,2.134   c0.534,0.748,1.176,1.069,0.747,1.815c-0.427,0.746-0.747,1.173-1.495,1.813c-0.748,0.642-1.279,0.959-1.496,1.707   c-0.212,0.75-0.212,1.709,0.43,2.563c0.377,0.503,0.901,0.896,1.116,1.419l0.73-0.124l3.126,0.16l0.938-0.16l3.749-0.938   l4.063-0.623l1.095-0.311l1.563-1.564l0.468-0.31v-0.472l2.344-1.87l6.095-3.907l1.563-1.406l0.781-0.623l0.781-0.157l0.47-0.311   l0.158-1.095l0.311-0.624l1.563-1.563l0.624-0.467l2.501-0.626l5.939-0.153l2.027-1.098l2.036-1.563l2.968-0.783l5.626-0.31   l2.813,0.471l4.849,2.032l2.651,0.621l5.624,0.313l2.817,0.469l2.188,1.407l0.62-0.781l2.033,0.624l9.529,0.157l0.944,0.467   l0.617,0.943l0.944,1.089l1.25,0.475h2.497l1.255-0.475l1.089-1.089l0.146,0.772c0.562-0.271,1.069-0.57,1.195-0.824   c0.321-0.641,1.361-2.002,0.959-2.803c-0.399-0.8-0.879-2.321-0.959-2.802c-0.082-0.48-0.239-0.639,0.4-1.68   c0.641-1.041,1.04-1.521,1.201-1.762c0.161-0.24,0.961-1.84,1.123-2.161c0.16-0.321,0.771-1.12,0.546-1.682   c-0.229-0.56-0.396-1.041,0.049-1.68c0.444-0.641,1.245-1.521,1.403-1.763c0.162-0.239,0.32,0.722,0.962-1.199   c0.641-1.923,0.96-2.484,0.801-3.284c-0.16-0.801-0.56-1.761-0.56-2.402s-0.078-1.361,0.601-2.802   c0.681-1.442-0.28,0.481,1.32-2.321c1.603-2.803,2.002-4.004,2.481-4.483c0.31-0.308,1.877-1.682,3.574-5.217   c0.174-0.632,0.561-1.291,0.853-1.944c0.073-0.186,0.146-0.378,0.224-0.574c0.029-0.092,0.055-0.18,0.075-0.27   c0.479-2.082,0.801-1.761,0.801-3.202C437.628,166.462,436.827,164.541,436.348,162.94z" id="1" name="Bandar Abbas"/>
</g>
<g>
	<g>
		<polygon fill="#DBECCB" stroke="#010101" stroke-width="0.2" stroke-miterlimit="10" points="167.477,278.535 166.849,278.07     166.694,277.289 166.694,276.352 166.534,275.57 165.133,275.102 161.845,274.629 160.283,274.16 158.412,274.006 156.85,274.477     155.443,275.568 154.507,277.131 156.376,280.256 159.347,281.818 166.846,282.287 167.787,281.66 168.257,280.412     168.096,279.164   "/>
		<polygon fill="#FDFAD4" stroke="#010101" stroke-width="0.2" stroke-miterlimit="10" points="391.7,216.663 390.609,216.352     389.673,215.568 388.11,216.04 386.388,218.384 386.073,221.193 389.042,222.289 390.45,222.131 391.7,221.35 392.638,220.411     392.949,219.007 392.482,217.443   "/>
		<polygon fill="#FBD0D1" stroke="#010101" stroke-width="0.2" stroke-miterlimit="10" points="369.98,228.221 367.638,227.137     365.763,226.822 362.169,226.822 350.138,229.635 340.456,236.197 337.017,237.137 324.205,231.979 322.017,233.387     322.642,234.322 324.05,235.574 325.611,237.137 326.394,239.01 326.86,243.854 326.548,245.887 325.142,247.451 325.454,248.23     325.768,249.012 324.831,249.322 323.888,250.104 323.269,250.418 322.325,250.574 320.45,250.418 319.515,250.418     313.576,252.92 311.702,254.482 307.481,257.135 305.918,257.76 304.202,258.072 292.015,262.295 287.167,265.104     286.229,264.791 285.286,265.42 280.911,263.695 279.975,264.789 280.911,268.225 281.38,268.695 281.225,269.947 280.599,271.82     281.072,274.477 281.542,275.727 282.161,276.352 283.104,276.191 284.196,275.879 285.134,275.256 285.604,274.477     285.915,273.535 286.852,273.535 287.944,274.008 288.726,274.164 289.507,273.693 291.229,272.602 295.292,271.51     300.917,270.727 302.481,269.947 305.605,267.443 310.768,265.102 315.762,261.508 317.638,260.412 319.511,260.102     323.731,260.727 325.605,260.727 327.323,259.631 329.044,258.068 335.137,254.785 337.479,256.82 339.513,258.85     341.544,259.789 344.2,258.227 348.732,253.541 349.515,253.07 350.295,252.133 353.731,250.256 354.513,249.316 355.137,247.912     358.888,243.848 359.979,241.977 362.013,237.129 364.042,235.254 369.825,233.689 372.636,231.82 372.011,229.943   "/>
		<polygon fill="#FBD0D1" stroke="#010101" stroke-width="0.2" stroke-miterlimit="10" points="379.981,239.004 377.634,240.102     376.227,241.977 375.913,244.941 377.638,245.723 381.074,244.473 383.888,241.973 383.419,238.537   "/>
		<polygon fill="#FDFAD4" stroke="#010101" stroke-width="0.2" stroke-miterlimit="10" points="102.944,245.568 96.065,244.941     88.254,242.436 87.472,242.598 86.69,242.908 86.065,243.063 85.597,243.535 86.538,244.473 89.351,246.973 90.756,247.912     92.318,248.693 97.63,249.633 99.351,249.633 101.071,248.693 102.165,248.381 105.601,248.693 107.005,248.381 104.975,246.508       "/>
		<polygon fill="#DBECCB" stroke="#010101" stroke-width="0.2" stroke-miterlimit="10" points="130.442,260.725 129.505,260.41     127.782,260.41 127.001,261.66 127.942,262.91 129.505,263.85 131.067,264.008 132.317,262.756 131.536,261.193   "/>
		<polygon fill="#FBD0D1" stroke="#010101" stroke-width="0.2" stroke-miterlimit="10" points="336.697,261.66 335.761,261.816     334.354,263.068 333.106,265.412 332.945,267.912 334.508,268.848 336.232,267.598 337.634,265.412 337.479,262.756   "/>
	</g>
	<polygon fill="#DBECCB" stroke="#010101" stroke-width="0.2" stroke-miterlimit="10" points="219.146,338.188 216.552,338.93    215.25,339.859 215.624,341.352 217.29,342.092 218.78,342.459 219.895,341.531 219.71,339.305  "/>
	<polygon fill="#DBECCB" stroke="#010101" stroke-width="0.2" stroke-miterlimit="10" points="205.933,323.42 204.94,323.703    204.442,324.057 204.587,324.627 205.223,324.912 205.792,325.053 206.218,324.695 206.147,323.846  "/>
	<polygon fill="#DBECCB" stroke="#010101" stroke-width="0.2" stroke-miterlimit="10" points="264.834,315.867 264.003,316.105    263.586,316.404 263.706,316.883 264.241,317.119 264.717,317.236 265.075,316.938 265.017,316.225  "/>
	<polygon fill="#E8D0E5" stroke="#010101" stroke-width="0.2" stroke-miterlimit="10" points="264.543,340.479 262.952,338.861    261.741,338.273 260.79,339.148 260.911,340.676 261.239,341.926 262.373,342.375 263.943,341.344  "/>
	<polygon fill="#DBECCB" stroke="#010101" stroke-width="0.2" stroke-miterlimit="10" points="279.975,309.488 278.383,307.871    277.173,307.283 276.221,308.158 276.343,309.686 276.671,310.936 277.806,311.387 279.375,310.354  "/>
	<polygon fill="#DBECCB" stroke="#010101" stroke-width="0.2" stroke-miterlimit="10" points="212.323,311.922 213.582,309.408    213.387,308.926 213.099,308.539 212.707,308.25 212.323,308.059 211.839,307.48 211.257,307.285 210.774,307.576 210.39,308.059    210.197,308.832 210.197,309.508 210.39,310.186 210.39,311.053 210.774,311.441 211.356,311.826 212.031,312.02  "/>
</g>
</svg>