<?xml version="1.0" encoding="UTF-8"?>
<!-- Generator: Adobe Illustrator 16.0.0, SVG Export Plug-In . SVG Version: 6.00 Build 0)  -->
<!DOCTYPE svg PUBLIC "-//W3C//DTD SVG 1.1//EN" "http://www.w3.org/Graphics/SVG/1.1/DTD/svg11.dtd">
<svg xmlns="http://www.w3.org/2000/svg" xmlns:xlink="http://www.w3.org/1999/xlink" version="1.1" id="Layer_1" x="0px" y="0px" width="698px" height="457px" viewBox="0 0 698 457" enable-background="new 0 0 698 457" xml:space="preserve">
<path fill="#FDFAD4" stroke="#010101" stroke-width="0.2" stroke-miterlimit="10" d="M451.041,115.334  c-0.325-2.61-2.936-4.568-2.281-6.849c0.651-2.283,0-4.24,0-5.869c0-1.63-2.609-5.545-4.24-7.829  c-1.63-2.281-3.59-2.608-4.602-4.891c-1.016-2.283-3.552-4.566-2.646-6.522c0.906-1.956,0.725-5.545,0-7.501  c-0.724-1.956,2.646-4.564,2.646-4.564s-0.943-5.869-0.29-7.501c0.653-1.631,0-2.936,0-5.544c0-2.61-4.567-4.892-4.567-4.892  s-0.978-4.24,0-5.218c0.979-0.978,1.956-3.263,2.283-4.241c0.191-0.571,0.158-3.215,0.1-5.318l-15.399,0.186l-0.332-0.226  c-0.104-0.075-10.814-7.475-14.823-9.076c-1.463-0.587-4.155-1.58-7.181-2.698c-5.838-2.159-12.451-4.599-14.688-5.717  c-2.303-1.153-8.337-0.909-14.747,0.425c0,0,1.086,1.119,1.086,2.423c0,1.304,0.437,1.74,0,3.477  c-0.436,1.74-0.242,2.827-0.447,4.131c-0.205,1.305-0.639,4.35-0.639,4.35s0.628,3.042,0.639,4.129c0.012,1.087-0.229,2.608,0,4.131  c0.229,1.522,0.181,2.393,0.64,4.129c0.46,1.74,0.678,3.045,0.895,4.784c0.218,1.74,0,3.043,0,4.347c0,1.305,0.097,4.35,0.097,4.35  s-1.304,1.956-1.135,4.131c0.168,2.173-0.388,4.131,0,5.219c0.386,1.085,1.571,2.173,0,2.608c-1.57,0.435-2.373,0.734-2.373,0.734  s-0.938-0.952-1.809,0.789c-0.766,1.531-1.532,1.545-2.298,2.119c-0.103,0.079-0.207,0.167-0.313,0.271  c-0.87,0.872-0.87,1.739-1.522,2.61c-0.652,0.87-1.087,1.738-1.305,2.391c-0.218,0.653-1.086,2.391-2.608,3.914  s-3.261,3.914-3.261,3.914s-0.436,1.522-1.522,3.045c-1.086,1.521-1.522,2.826-1.956,3.914c-0.435,1.085-2.718,4.458-2.718,4.458  s-0.218,0.433-0.978,1.413c-0.762,0.978-1.086,1.196-1.956,2.283c-0.868,1.086-1.956,2.826-2.281,3.259  c-0.327,0.433-0.762,0.872-1.305,0.872c-0.544,0-1.956,0.325-2.5,0c-0.544-0.327-1.087-0.581-1.195,0.144  c-0.108,0.724,0,1.918,0,1.918l1.74,1.196c0,0,0.868,0.978,0.216,1.521c-0.651,0.545-1.946,2.391-2.005,2.936  c-0.059,0.544,0.061,2.065,0,3.261c-0.061,1.195-0.519,3.045-0.018,4.023c0.5,0.978-0.23,2.553-0.23,2.553s0.787,1.143,0.948,1.794  c0.164,0.652,0.327,0.816,0.489,2.119c0.166,1.305,0.166,1.144,0.166,2.774c0,1.629-0.166,1.956-0.166,3.097  c0,1.143,0.166,1.794,0.816,2.936c0.652,1.142,1.305,1.956,1.956,3.097c0.653,1.142,1.467,1.413,1.63,2.826  c0.164,1.415,0.653,3.207,0,3.859c-0.652,0.652-1.63,1.63-2.446,1.792c-0.814,0.164-2.391,0.652-3.967,0  c-1.575-0.653-3.697-1.304-4.187-1.304c-0.489,0-4.728-0.327-6.195-0.327c-1.467,0-4.893-0.651-6.034-0.816  c-1.142-0.162-3.424-0.162-4.729,0c-0.92,0.116-3.22,0.509-5.03,1.395c0.166,0.242,1.231,1.788,1.933,2.583  c0.762,0.862,1.305,1.949,1.848,2.602c0.543,0.653,1.087,0.978,1.849,1.956c0.762,0.978,1.305,1.303,1.74,2.5  c0.433,1.195,0.87,2.173,0.87,2.173s0.76,0.762,0.87,1.74c0.108,0.978,0,1.413,0.978,2.391s2.175,1.522,2.826,2.283  c0.652,0.76,1.195,0.868,1.195,1.521c0,0.654,0.327,1.523,0,2.283c-0.326,0.76,0.072,1.522,0.146,2.5  c0.072,0.978-0.038,1.63,0.725,2.718c0.762,1.088,2.065,2.826,2.718,3.479c0.652,0.651,1.522,1.195,2.391,2.064  c0.87,0.87,2.9,1.541,3.806,2.283c0.296,0.244,0.594,0.517,0.88,0.812l0.86-2.442l2.826-0.437c0,0,1.74-1.521,3.261-2.826  c1.522-1.305,2.393-0.651,4.566-1.305c2.175-0.653,2.61-0.653,3.48-0.87c0.871-0.217,3.479,0,3.479,0s2.826,0,4.13,0  c1.303,0,2.609,1.086,3.913,1.956c1.305,0.87,2.175,2.608,2.827,3.261s1.086,2.173,1.522,3.914c0.434,1.74,2.608,3.697,3.26,4.349  c0.653,0.65,3.043,2.391,3.043,2.391s3.043,0.654,5.653,1.088c2.61,0.435,2.174-0.434,4.566,0c2.392,0.435,3.075,0,3.075,0h3.354  c0.422-0.768,1.047-1.878,1.615-2.828c0.979-1.63,2.282-3.586,3.587-4.891c1.305-1.304,1.956-0.978,1.983-1.63  c0.026-0.651,5.192-3.261,6.821-5.219c1.63-1.958,1.632-3.586,2.609-5.869c0.979-2.283,2.281-3.586,3.914-5.652  c1.63-2.065,2.608-0.872,5.218-2.502c2.608-1.63,2.936-1.956,3.914-2.608c0.978-0.654,1.955-1.632,3.588-3.261  c1.63-1.63,1.305-3.262,2.463-5.869c1.159-2.61,0.471-3.263,0.146-5.869c-0.327-2.61,0-3.588,0-6.197c0-2.61,1.63-1.63,1.63-1.63  s2.283,1.63,4.24,2.608c1.956,0.978,4.239,0.327,6.522,0c2.282-0.325,3.262,0,3.862,0c0.602,0,2.986-1.956,4.618-3.913  c1.63-1.956,0.978-4.892,0.978-6.524c0-1.63,0.979-5.869,2.281-8.805C452.345,121.854,451.368,117.94,451.041,115.334z" id="17" name="اردستان"/>
<path fill="#DBECCB" stroke="#010101" stroke-width="0.2" stroke-miterlimit="10" d="M340.159,236.974  c-0.244-0.244-0.978-1.305-1.305-1.876c-0.326-0.571-0.489-1.549-0.489-1.956s0.246-1.303,0.409-1.794  c0.075-0.229-0.103-0.569-0.384-0.97c-0.321-0.457-0.774-0.996-1.165-1.558c-0.732-1.06-1.71-1.06-2.365-1.711  c-0.652-0.654-1.794-1.143-2.365-1.793c-0.571-0.651-1.303-1.795-1.71-2.691c-0.407-0.896-0.571-1.385-0.652-2.77  c-0.082-1.387-0.407-2.445-0.571-3.75s-0.082-2.936,0-3.834c0.08-0.896,0.164-1.548,0.489-2.282  c0.042-0.095,0.098-0.216,0.159-0.351l-2.687-0.871c0,0-0.978-0.734-1.63-1.467c-0.654-0.734-1.536-1.713-1.536-1.713  s-2.542-1.303-3.603-1.63c-1.06-0.327-2.446-0.815-3.016-0.815c-0.57,0-2.446,0.164-3.589,0.57  c-1.142,0.408-3.097,1.061-4.402,1.387c-1.303,0.326-2.854,1.06-3.343,1.387c-0.489,0.327-0.244,1.06-1.387,1.467  c-1.142,0.407-3.097,1.305-3.097,1.305s-1.222,0-1.549-0.082c-0.327-0.081-1.548-0.896-1.875-0.978  c-0.327-0.083-1.142-0.245-1.63-0.083c-0.489,0.165-1.467,0.165-1.712,0.165c-0.244,0-1.63-1.467-2.038-1.794  c-0.258-0.206-0.548-0.672-0.829-1.112c-0.164-0.257-0.326-0.502-0.476-0.682c-0.407-0.489-1.387-2.526-1.63-2.608  c-0.245-0.082-1.956-0.082-2.61,0c-0.651,0.082-1.385,0.327-1.63,0.57c-0.244,0.246-0.978,0.898-0.978,0.898  s-0.409,0.326-0.489,0.734c-0.082,0.406,0.217,0.243-0.463,1.059c-0.679,0.814-0.597,2.12-0.354,2.771  c0.246,0.654,0.354,1.712,0.354,1.712l-0.046,0.049c0.519,0.431,1.043,0.814,1.405,0.955c0.978,0.381,1.848,0.814,2.608,1.142  c0.76,0.325,1.305,0.436,1.85,1.195c0.543,0.76,0.868,0.557,0.978,1.583c0.108,1.025,0.435,1.353,0,2.112  c-0.435,0.763-0.435,1.414-0.435,1.74s1.195,1.002,1.195,1.002l1.086,0.845c0,0,0.327-0.216,0.435,0.544  c0.109,0.762,0.654,0.979,0,1.957c-0.653,0.978-0.978,1.087-0.87,1.63c0.108,0.545,0.327,0.978,0.544,1.306  c0.216,0.326,0.957,1.521,0.641,1.955c-0.315,0.436-0.423,1.216-0.641,1.585c-0.217,0.37-0.652,0.697-0.652,1.242  c0,0.543,0.217,1.303,0.543,2.498c0.327,1.197,0.762,2.176,1.305,2.828c0.543,0.652,1.631,1.251,2.393,1.875  c0.761,0.627,1.956,1.388,2.283,1.605c0.059,0.037,0.162,0.112,0.279,0.202c0.542,0.407,1.596,1.258,2.219,1.971  c0.762,0.87,1.304,2.021,2.065,2.206c0.761,0.186,1.632,0.402,2.175,1.055c0.543,0.65,0.87,0.979,1.415,1.523  c0.543,0.541,2.171,1.195,2.824,1.52c0.654,0.326,2.142,0.734,2.61,1.415c0.177,0.257,0.502,0.523,0.837,0.778  c0.525,0.157,0.994,0.357,1.256,0.443c0.489,0.162,2.2,0.652,3.016,0.979s1.467,0.978,1.875,1.223  c0.409,0.244,1.71,1.061,2.527,1.387c0.816,0.326,1.548,0.489,3.017,0.57c1.467,0.081,0.816,0.081,0.978,0  c0.165-0.081,1.548-1.059,1.548-1.059l0.896-1.795c0,0,0.654-0.734,1.794-2.037c1.141-1.305,0.816-1.305,1.467-2.445  s0.898-1.305,1.63-1.632c0.734-0.325,2.61-0.814,3.997-1.956c1.387-1.14,1.549-1.141,2.608-2.445  c0.131-0.16,0.247-0.313,0.352-0.467c0.764-1.09,0.952-1.978,0.952-2.548C340.975,237.708,340.404,237.219,340.159,236.974z" id="1" name="اصفهان"/>
<path fill="#FDFAD4" stroke="#010101" stroke-width="0.2" stroke-miterlimit="10" d="M299.177,137.835  c-0.654-0.653,0.435-1.956,0-3.912c-0.435-1.956-0.87,0-1.522,0c-0.652,0-3.48-2.175-3.841-3.48c-0.361-1.303-0.29-1.086-0.29-1.086  s0.653-1.956,0-3.478c-0.652-1.523-2.173-1.088-3.696-1.956c-1.522-0.87-3.48-0.651-4.567-1.305  c-1.086-0.652-3.914-2.173-5.217-3.043c-1.305-0.872-5.436-2.175-6.958-3.261l-0.136,0.121l-1.82,1.617c0,0-2.173,3.698-4.185,5  c-2.011,1.303-5.598,3.043-5.598,3.043s-1.74,1.74-4.783,0.87c-3.043-0.87-6.522-1.738-8.262-2.826  c-1.74-1.087-3.696-0.868-4.783-2.173c-1.086-1.305-2.826-2.61-4.131-4.129c-1.305-1.522-1.305-1.956-1.739-3.48  c-0.435-1.522-1.956-1.74-2.391-2.393s-3.045-3.043-3.045-3.043l-1.128-2.26c-3.387,0.87-7.048,0.979-10.056-0.151  c-6.219-2.333-12.349-0.732-14.463,2.092c-2.345,3.13-8.337,5.522-14.988,6.178l0.414,1.423l0.761,0.761c0,0,0.76,1.738,0.87,2.391  c0.108,0.654,0.653,1.632,0,2.5c-0.652,0.87-0.554,1.413-1.146,2.065c-0.594,0.651-0.921,0.653-0.921,1.413s0.109,1.194,0.219,2.065  c0.108,0.87,0.423,1.303,0.702,2.175c0.278,0.869-0.386,1.305,0,1.956c0.384,0.652,0.384,1.195,0.494,1.74  c0.108,0.544,1.066,0.76,0.968,1.74c-0.1,0.978-0.316,1.848,0.445,2.283c0.76,0.435,1.413,0.217,2.826,1.087  c1.415,0.87,1.956,1.305,2.718,1.413c0.762,0.108,0.872-0.108,2.065,0.652c1.195,0.761,1.522,0.761,2.608,1.956  c1.087,1.195,1.522,1.522,1.632,2.064c0.085,0.425,0.101,0.723,0.052,1.09l2.773,0.677l1.956,0.489c0,0,2.771,0.733,3.342,1.06  s2.121,0.897,2.365,1.06c0.246,0.164,1.956,0.489,2.854,1.06c0.896,0.571,1.387,0.654,1.956,1.143  c0.571,0.489,1.142,0.896,1.712,2.363c0.569,1.467,1.385,1.956,2.119,3.343c0.733,1.387,1.223,2.121,1.876,3.099  c0.652,0.978,1.604,1.548,2.147,2.199c0.543,0.653,0.788,0.98,2.093,1.224c1.303,0.244,2.608,0.438,2.608,0.438  s0.652-0.438,2.283-1.009c1.629-0.573,1.222-0.573,2.281-0.978c1.062-0.409,2.201-0.898,2.201-0.898s1.06,0.814,1.06-0.978  c0-1.794,0.816-3.099,0.816-3.099s0.244-0.571,1.305-1.06c1.06-0.489,1.874-1.354,2.445-1.126c0.57,0.229,1.548,1.289,1.63,2.267  c0.082,0.978,0.244,1.956,0.571,3.508c0.327,1.548,0.734,2.182,1.305,3.374c0.571,1.192,1.222,1.845,2.527,2.659  c1.305,0.816,2.283,1.143,2.854,1.632c0.571,0.489,0,2.69,0,4.32c0,1.632-0.164,6.931-0.164,6.931s0.345,2.854,0.417,3.914  s0.497,2.119,0,3.016c-0.499,0.896-0.744,1.223-0.173,3.099c0.571,1.874,0.734,3.043,1.467,5.027  c0.734,1.983,1.305,2.798,1.632,3.939c0.325,1.142,0.407,2.444,0.896,3.423s0.734,2.119,0.978,2.61  c0.245,0.489,0.897,2.119,1.55,2.853c0.652,0.734,2.038,1.143,2.038,1.143s1.902,0.434,2.936,0.488c1.033,0.057,1.575-0.382,2.88,0  c0.734,0.215,1.697,0.361,2.703,0.545c-0.023-0.492,0.132-0.929,0.531-1.441c0.571-0.734,1.222-0.898,1.792-1.061  c0.571-0.164,1.06,0.162,2.201,0.489c1.14,0.325,1.63,0.652,1.63,0.652s1.06,0.734,1.632,1.144c0.571,0.405,1.304,1.221,1.304,1.221  l1.467,0.489l0.878-0.929l0.046-0.049c0,0-0.108-1.061-0.353-1.711c-0.244-0.652-0.324-1.955,0.353-2.771  c0.679-0.816,0.381-0.652,0.463-1.061c0.08-0.406,0.489-0.734,0.489-0.734s0.734-0.652,0.978-0.897  c0.246-0.243,0.978-0.489,1.632-0.57c0.652-0.082,2.363-0.082,2.608,0c0.244,0.081,1.221,2.119,1.63,2.608  c0.15,0.18,0.312,0.427,0.476,0.682c0.281-0.538,0.62-1.193,0.666-1.334c0.082-0.244,0.571-0.732,0.978-0.816  c0.407-0.082,0,0,0.407,0s1.63-0.732,1.63-0.732s0-0.489-0.164-0.816c-0.164-0.324-0.245-0.65-0.245-0.65l0.245-1.467  c0,0,0,0,0-0.489s-0.572-1.549-0.816-1.794c-0.245-0.244-1.143-1.142-1.143-1.142l-1.222-0.571l-1.06-0.652  c0,0-0.816-1.387-1.06-2.526c-0.246-1.14-0.734-2.526-0.734-4.484c0-1.958,0.162-2.61,0.162-2.61s-0.162-1.222-0.406-1.549  c-0.245-0.327-1.794-1.548-2.692-1.794c-0.897-0.244-0.978-0.651-1.06-1.467c-0.082-0.814,0.082-1.222,0.082-1.222  s0.081-1.712,0.081-2.445c0-0.734-0.162-1.712-0.571-2.772c-0.407-1.06,0.164-1.875,0-2.446c-0.162-0.569-1.359-2.555-1.359-2.555  s-1.25-2.337-1.657-2.988c-0.409-0.652-0.654-1.794-1.06-2.445c-0.409-0.654-1.467-1.387-2.691-2.69  c-1.223-1.305-1.549-1.467-2.201-2.355c-0.652-0.886-1.549-0.908-2.527-1.804c-0.978-0.896-1.792-2.2-2.119-2.383  c-0.327-0.178-0.898-1.694-0.898-2.505s0.407-0.981,0.898-1.52c0.489-0.538,1.222,0.455,1.875,0.455  c0.653,0,1.387,0.082,1.876,0.082c0.489,0,1.71,0,3.097,0s2.201-0.326,2.772-0.489c0.571-0.163,0.814,0.081,1.467,0.816  c0.652,0.734,0.733,0.978,1.169,1.387c0.435,0.407,0.297,1.387,0.787,2.288c0.489,0.903,0.409,1.135,0.652,1.379  c0.245,0.245,0.978,1.712,1.223,2.051c0.244,0.337,1.63,0.314,1.956-0.012c0.324-0.327,1.06,0.082,1.467,0  c0.407-0.08,1.71-0.816,2.365-1.305c0.652-0.489,0.898-0.734,1.467-1.224c0.569-0.489,1.467-1.548,1.792-1.956  c0.325-0.406,0.896-0.489,0.896-0.489l1.577-1.248c0,0-0.326-0.872-0.87-1.415c-0.543-0.543-1.195-3.042-1.195-3.042l0.217-1.956  c0,0,0.87-1.523,1.738-2.175c0.87-0.651,2.175-2.391,2.175-2.391v-1.523C300.265,139.573,299.83,138.487,299.177,137.835z" id="7" name="شاهین شهر و میمه"/>
<path fill="#E8D0E5" stroke="#010101" stroke-width="0.2" stroke-miterlimit="10" d="M206.233,144.465  c-0.11-0.545-0.543-0.869-1.632-2.064c-1.086-1.195-1.413-1.195-2.608-1.956c-1.195-0.76-1.305-0.544-2.065-0.652  c-0.76-0.108-1.303-0.545-2.718-1.413c-1.413-0.87-2.065-0.652-2.826-1.089c-0.761-0.433-0.545-1.303-0.445-2.281  c0.098-0.978-0.86-1.195-0.968-1.74c-0.11-0.545-0.11-1.088-0.494-1.74c-0.386-0.651,0.278-1.087,0-1.956  c-0.278-0.872-0.594-1.305-0.702-2.175c-0.108-0.872-0.219-1.305-0.219-2.065c0-0.762,0.327-0.762,0.921-1.413  c0.592-0.654,0.494-1.195,1.146-2.065c0.653-0.868,0.108-1.848,0-2.5c-0.109-0.652-0.87-2.391-0.87-2.391l-0.761-0.761l-0.414-1.423  c-1.186,0.115-2.391,0.184-3.601,0.184c-1.292,0-2.553-0.025-3.796-0.048c-5.96-0.113-11.117-0.212-15.678,2.397  c-1.63,0.929-3.179,1.987-4.821,3.106c-4.221,2.87-8.578,5.838-14.816,7.084c-5.369,1.076-7.271,6.658-7.907,9.6h3.037l3.015,0.898  c0,0,1.712,0.082,3.263,0.571c1.549,0.489,2.365,0.571,3.914,0.732c1.548,0.166,2.199,0.327,2.283,0  c0.08-0.324-0.246-1.387-0.489-1.63c-0.246-0.245-0.978-1.387-0.978-1.387s-0.489-0.651-0.327-0.896  c0.162-0.244,1.06-0.733,1.305-0.571c0.243,0.162,0.024,0.08,0.502,0.816c0.478,0.733,0.666,0.895,0.938,1.06  c0.271,0.162,0.354-0.082,0.924-0.409c0.573-0.327,0.816-0.816,1.144-0.489c0.325,0.327,0.816,1.051,0.489,1.341  s-0.734,0.208-0.816,0.862c-0.082,0.652,0,1.516,0.162,1.493c0.166-0.024,1.632-0.626,2.61,0c0.978,0.626,1.522,0.464,2.229,1.117  c0.707,0.651,2.5,1.305,2.5,1.305s0.244,0.721,0.814,1.378c0.572,0.661,0.816,0.661,1.223,1.394  c0.409,0.734,0.571,1.305,1.387,0.734c0.814-0.569,1.711-1.06,2.282-1.06c0.572,0,1.712-0.653,2.444-0.653  c0.734,0,3.794,0.246,3.976,0.326c0.183,0.082,1.407,0.652,2.468,0.978c1.06,0.327,1.549,0.082,2.038,0.407  c0.489,0.327,1.223,1.467,1.956,2.202c0.734,0.734,2.773,1.387,3.588,2.121c0.816,0.733,1.061,0.816,1.875,1.467  c0.816,0.651,2.556,1.141,3.112,1.305c0.558,0.162,1.372,0.489,3.411,0.814c1.745,0.28,3.607-0.033,5.027,0.432  c0.018-0.018,0.034-0.033,0.054-0.051c0.651-0.654,0.651-1.632,1.303-2.61c0.654-0.978,1.196-2.393,1.85-3.043  c0.651-0.654,0.651-1.632,0.761-2.175c0.023-0.116,0.038-0.221,0.052-0.322C206.333,145.188,206.318,144.892,206.233,144.465z" id="12" name="گلپایگان"/>
<path fill="#E8D0E5" stroke="#010101" stroke-width="0.2" stroke-miterlimit="10" d="M309.097,89.732  c-1.223-0.978-1.712-1.305-2.526-3.016c-0.816-1.712-1.223-1.143-1.632-1.439c-0.407-0.297-1.385-0.764-2.69-1.415  c-1.305-0.654-2.526-0.654-3.179-1.06c-0.652-0.407-1.956-0.734-2.935-1.305c-0.978-0.57-1.142-1.467-1.387-1.794  c-0.244-0.327-2.12-0.732-3.098-1.305c-0.978-0.571-2.526-0.326-5.707-2.12c-3.178-1.794-1.387-0.489-1.93-0.898  c-0.543-0.409-2.311-0.978-2.636-1.71c-0.326-0.734-0.573-1.387-0.896-2.365c-0.327-0.978,0.324-1.712,0-2.608  c-0.327-0.893-0.816-0.491-1.305-0.164c-0.489,0.326-1.63,0.08-1.876,0c-0.244-0.082-0.814-0.898-0.814-0.898  s-1.223-0.489-2.446-1.141c-1.223-0.654-1.712-1.143-1.958-1.387c-0.244-0.246-1.792-0.409-2.281-0.734  c-0.489-0.326-0.816-0.571-1.06-1.06c-0.246-0.489,0-0.57,0-1.141s-0.246-1.14-0.489-1.712c-0.245-0.571-1.305-1.956-1.794-2.527  c-0.489-0.57-1.875-3.262-1.875-3.262s0.082-0.814-0.888-2.12s-0.824-1.63-1.149-2.283c-0.327-0.651-1.467-1.792-1.467-2.771  s-0.326-2.61,0-3.588c0.325-0.978,1.792-4.402,1.792-4.402s1.467-2.608,1.794-3.641c0.327-1.032,1.794-1.251,1.794-2.556  c0-1.305-1.141-2.12-1.305-2.771c-0.162-0.652-0.814-2.61-0.771-3.588c0.046-0.978-0.697-2.771-0.755-3.424  c-0.059-0.651,0.747-2.105,0.755-2.12c-3.55,0.34-6.36,1.066-7.884,2.08c-2.267,1.508-11.316,5.46-13.812,6.54  c-0.226,1.364-0.698,4.805-0.698,9.163c0,1.413,0.101,2.636,0.188,3.716c0.278,3.331,0.496,5.961-3.315,8.247  c-2.835,1.704-5.614,3.001-7.2,3.699c2.28,3.366,7.756,8.778,10.664,10.96c3.105,2.329,1.874,8.96,0.979,13.796  c-0.246,1.327-0.479,2.583-0.479,3.114c0,8.496-0.592,14.288-1.767,17.212c-1.148,2.87-5.295,5.521-9.972,6.721l1.128,2.26  c0,0,2.61,2.391,3.045,3.043c0.435,0.652,1.956,0.87,2.391,2.393c0.433,1.522,0.433,1.956,1.738,3.48  c1.305,1.521,3.045,2.826,4.131,4.129c1.087,1.303,3.043,1.085,4.783,2.173c1.74,1.087,5.218,1.956,8.262,2.826  s4.784-0.87,4.784-0.87s3.586-1.74,5.598-3.043c2.011-1.302,4.185-4.999,4.185-4.999l1.82-1.617  c0.198-0.731,0.463-1.646,0.788-2.622c0.762-2.283,2.065-3.045,2.065-3.045s1.195-0.433,1.522-0.541  c0.326-0.11,2.064-0.544,3.153-0.437c1.086,0.109,2.934-0.25,4.023-0.017c1.086,0.234,1.521,0.147,2.391-0.08  c0.868-0.228,1.848-0.337,2.173-0.554c0.325-0.218,0.543-0.11,1.522-1.413c0.978-1.305,1.413-1.521,2.826-2.393  c1.415-0.87,1.415-1.195,2.065-1.521c0.653-0.325,1.413-1.195,1.413-1.195s1.305-0.543,1.85-0.543c0.543,0,1.956-0.327,2.934-0.435  c0.978-0.109,2.065,0,2.065,0s4.239-1.087,4.457-1.415c0.217-0.324,1.632-2.173,1.632-2.173s0.651-1.848,1.303-2.826  c0.499-0.749,1.058-2,1.442-2.696l0,0C311.328,91.162,310.319,90.712,309.097,89.732z" id="2" name="کاشان"/>
<path fill="#FBD0D1" stroke="#010101" stroke-width="0.2" stroke-miterlimit="10" d="M371.407,65.873  c-0.17-2.174,1.135-4.131,1.135-4.131s-0.097-3.043-0.097-4.35c0-1.304,0.218-2.608,0-4.347c-0.217-1.74-0.434-3.043-0.895-4.782  c-0.459-1.74-0.41-2.61-0.64-4.131c-0.229-1.521,0.012-3.045,0-4.131c-0.011-1.086-0.639-4.129-0.639-4.129s0.435-3.043,0.639-4.348  c0.205-1.305,0.012-2.391,0.447-4.131c0.437-1.74,0-2.175,0-3.48c0-1.303-1.086-2.422-1.086-2.422  c-1.748,0.363-3.524,0.803-5.263,1.326c-9.004,2.705-23.549,0.761-28.688-2.669l-12.051-8.033  c-2.718,0.896-12.482,4.056-14.885,4.056c-1.735,0-12.796,2.484-19.804,4.152l-0.218,0.031c-0.585,0.036-14.34,0.841-20.168,0.841  c-1.71,0-3.328,0.075-4.816,0.219c-0.007,0.013-0.814,1.47-0.755,2.119c0.059,0.654,0.803,2.445,0.755,3.424  c-0.044,0.978,0.608,2.934,0.77,3.588c0.162,0.652,1.305,1.465,1.305,2.77c0,1.305-1.467,1.524-1.794,2.556s-1.794,3.64-1.794,3.64  s-1.467,3.425-1.792,4.403c-0.325,0.978,0,2.61,0,3.588s1.142,2.119,1.467,2.77c0.326,0.654,0.18,0.978,1.15,2.283  s0.888,2.121,0.888,2.121s1.387,2.69,1.876,3.261s1.549,1.956,1.792,2.527c0.245,0.572,0.49,1.141,0.49,1.712s-0.245,0.653,0,1.142  c0.244,0.489,0.571,0.734,1.06,1.062c0.489,0.324,2.038,0.489,2.281,0.732c0.245,0.246,0.734,0.734,1.956,1.387  c1.224,0.653,2.448,1.142,2.448,1.142s0.571,0.816,0.814,0.898c0.245,0.08,1.387,0.325,1.875,0c0.489-0.327,0.978-0.729,1.305,0.165  c0.324,0.895-0.327,1.629,0,2.607c0.324,0.978,0.571,1.63,0.896,2.365c0.326,0.732,2.093,1.303,2.636,1.71  c0.543,0.409-1.251-0.898,1.93,0.898c3.181,1.794,4.729,1.548,5.708,2.121c0.978,0.571,2.854,0.978,3.097,1.303  c0.245,0.325,0.409,1.223,1.387,1.794s2.283,0.898,2.936,1.305s1.876,0.407,3.179,1.06c1.303,0.651,2.281,1.117,2.69,1.415  c0.407,0.296,0.816-0.275,1.632,1.439c0.814,1.712,1.303,2.038,2.526,3.016c1.222,0.978,2.232,1.43,3.481,2.793l0,0  c0.116-0.214,0.219-0.379,0.296-0.458c0.327-0.325,1.305-1.086,2.391-0.87c1.087,0.218-0.324-0.621,2.936-0.039  c3.261,0.584,3.588,0.149,5.218,0.257c1.632,0.109,3.479,0.373,5.001-0.466s0.978-0.947,2.826-1.382  c1.85-0.437,3.043-0.543,4.349-1.305c1.303-0.762,1.303-0.435,3.043-1.63c1.74-1.197,2.489-2.065,2.931-2.5  c0.441-0.437,1.2-0.872,1.745-2.065c0.543-1.195,0.87-1.63,1.415-2.283c0.543-0.651,0.651-0.978,1.303-1.74  c0.654-0.759,0.872-0.978,1.74-1.521c0.87-0.543,0.653-0.543,2.61-1.632c1.958-1.087,1.413-0.762,3.151-1.63  c1.74-0.87,2.391,0.108,4.565,0c2.176-0.11,3.914,0.435,5.219,2.391c0.427,0.64,1.016,1.208,1.616,1.686  c0.765-0.574,1.532-0.59,2.297-2.119c0.869-1.74,1.809-0.789,1.809-0.789s0.802-0.301,2.373-0.734c1.57-0.435,0.385-1.523,0-2.608  C371.022,70.001,371.575,68.046,371.407,65.873z" id="11" name="آران و بیدگل"/>
<path fill="#FBD0D1" stroke="#010101" stroke-width="0.2" stroke-miterlimit="10" d="M336.355,185.556  c-0.906-0.741-2.936-1.413-3.805-2.283c-0.87-0.869-1.74-1.413-2.391-2.064c-0.652-0.651-1.956-2.391-2.718-3.479  c-0.762-1.087-0.654-1.74-0.726-2.718s-0.469-1.738-0.144-2.5c0.327-0.762,0-1.63,0-2.281c0-0.652-0.543-0.762-1.195-1.522  c-0.652-0.762-1.848-1.305-2.826-2.283c-0.978-0.978-0.87-1.413-0.978-2.391c-0.11-0.978-0.87-1.74-0.87-1.74  s-0.435-0.978-0.87-2.173c-0.435-1.197-0.978-1.522-1.74-2.5s-1.305-1.305-1.85-1.956c-0.543-0.654-1.086-1.74-1.848-2.602  c-0.7-0.795-1.768-2.34-1.933-2.583c-0.013-0.02-0.025-0.034-0.025-0.034s-1.956,0.434-2.5,0.543  c-0.544,0.108-2.391,0.762-3.478,1.086c-1.086,0.327-3.588,0.87-3.914,0.978c-0.327,0.109-4.348-0.978-4.348-0.978l-1.577,1.25  c0,0-0.571,0.082-0.896,0.489c-0.326,0.409-1.222,1.467-1.792,1.956c-0.572,0.489-0.816,0.734-1.467,1.223  c-0.652,0.489-1.956,1.222-2.365,1.303c-0.409,0.083-1.143-0.325-1.467,0c-0.326,0.327-1.712,0.349-1.956,0.013  c-0.245-0.338-0.978-1.805-1.223-2.051c-0.244-0.244-0.162-0.479-0.652-1.38c-0.489-0.901-0.352-1.879-0.788-2.286  c-0.435-0.409-0.517-0.654-1.168-1.387c-0.652-0.734-0.897-0.978-1.467-0.816c-0.572,0.162-1.387,0.489-2.772,0.489s-2.61,0-3.097,0  c-0.491,0-1.223-0.082-1.876-0.082c-0.654,0-1.387-0.993-1.875-0.457c-0.489,0.538-0.898,0.71-0.898,1.521s0.571,2.327,0.898,2.505  c0.324,0.182,1.142,1.485,2.119,2.383c0.978,0.898,1.876,0.916,2.527,1.804c0.654,0.886,0.978,1.048,2.201,2.355  c1.222,1.305,2.283,2.038,2.69,2.688c0.407,0.654,0.653,1.794,1.062,2.445c0.407,0.654,1.657,2.99,1.657,2.99  s1.197,1.985,1.359,2.554c0.164,0.571-0.407,1.387,0,2.446c0.409,1.06,0.571,2.038,0.571,2.772c0,0.733-0.08,2.445-0.08,2.445  s-0.164,0.406-0.082,1.222c0.082,0.816,0.162,1.224,1.06,1.467c0.898,0.245,2.445,1.467,2.69,1.794  c0.245,0.327,0.407,1.548,0.407,1.548s-0.162,0.654-0.162,2.61c0,1.956,0.489,3.341,0.732,4.484  c0.246,1.141,1.062,2.526,1.062,2.526l1.06,0.651l1.222,0.572c0,0,0.898,0.896,1.143,1.141c0.244,0.244,0.814,1.306,0.814,1.795  c0,0.488,0,0.488,0,0.488l-0.244,1.467c0,0,0.082,0.326,0.244,0.651c0.165,0.327,0.165,0.815,0.165,0.815s-1.223,0.732-1.632,0.732  c-0.406,0,0-0.081-0.406,0c-0.409,0.082-0.897,0.571-0.978,0.816c-0.046,0.139-0.385,0.795-0.666,1.335  c0.281,0.438,0.571,0.905,0.829,1.112c0.407,0.326,1.794,1.793,2.038,1.793c0.245,0,1.223,0,1.712-0.164  c0.489-0.162,1.303,0,1.63,0.083c0.327,0.081,1.549,0.896,1.876,0.978c0.327,0.082,1.548,0.082,1.548,0.082s1.956-0.898,3.098-1.305  c1.143-0.409,0.896-1.142,1.387-1.467c0.489-0.328,2.039-1.061,3.342-1.387c1.305-0.328,3.261-0.979,4.402-1.387  c1.143-0.408,3.019-0.571,3.59-0.571c0.569,0,1.956,0.489,3.016,0.815c1.06,0.326,3.603,1.631,3.603,1.631s0.881,0.979,1.536,1.713  c0.651,0.732,1.63,1.467,1.63,1.467l2.685,0.871c0.409-0.896,1.148-2.528,1.148-3.236c0-0.816-0.407-1.467-1.06-2.609  c-0.654-1.143-1.387-1.711-2.038-2.281c-0.652-0.573-0.898-0.979-1.469-1.957c-0.569-0.978-1.06-1.467-1.06-1.875  c0-0.409,0.165-0.898,0.572-1.387c0.407-0.489,0.487-1.061,0.896-1.549c0.407-0.489,0.654-0.734,1.061-1.224  s0.814-0.897,1.304-1.387c0.489-0.489,0.978-1.142,1.387-1.548c0.407-0.407,0.816-1.387,1.223-1.956  c0.409-0.571,0.571-0.571,1.06-0.978c0.489-0.409,0.896-0.082,0.896-0.082l2.88-0.55l0.229-0.651  C336.95,186.071,336.651,185.8,336.355,185.556z" id="10" name="برخوار"/>
<path fill="#E8D0E5" stroke="#010101" stroke-width="0.2" stroke-miterlimit="10" d="M293.091,220.994  c-0.11-0.762-0.437-0.545-0.437-0.545l-1.086-0.846c0,0-1.196-0.676-1.196-1.001c0-0.327,0-0.978,0.435-1.739s0.108-1.088,0-2.113  c-0.109-1.027-0.435-0.822-0.978-1.584c-0.545-0.76-1.089-0.871-1.85-1.195c-0.761-0.324-1.63-0.76-2.608-1.141  c-0.361-0.141-0.886-0.525-1.405-0.955l-0.878,0.929l-1.468-0.489c0,0-0.733-0.816-1.304-1.223  c-0.572-0.408-1.632-1.143-1.632-1.143s-0.489-0.326-1.63-0.652c-1.143-0.326-1.632-0.652-2.201-0.488  c-0.569,0.162-1.222,0.325-1.794,1.06c-0.397,0.514-0.554,0.948-0.53,1.442c0.01,0.211,0.051,0.434,0.124,0.677  c0.244,0.816,1.711,3.507,1.876,3.75c0.162,0.245,1.63,1.794,1.792,2.038c0.166,0.245,0.734,0.488,0.816,1.143  c0.08,0.65-0.246,1.061-0.246,1.631s0.409,2.037,0.573,2.445c0.163,0.406,0.652,1.387,0.978,1.793  c0.154,0.191,0.322,0.393,0.461,0.596h1.251c0,0,0.544,0,0.978,0.545c0.437,0.545,0.327-0.108,1.087,0.871  c0.762,0.979,1.795,1.738,1.795,1.738h3.966c0,0,1.415-1.631,2.283-1.574c0.87,0.055,0-0.271,1.956-0.381  c-0.106-0.542,0.217-0.652,0.872-1.631C293.743,221.971,293.199,221.755,293.091,220.994z" id="3" name="خمینی شهر"/>
<path fill="#DBECCB" stroke="#010101" stroke-width="0.2" stroke-miterlimit="10" d="M363.313,75.655  c-1.305-1.956-3.043-2.5-5.218-2.391c-2.174,0.108-2.826-0.87-4.566,0c-1.739,0.869-1.195,0.543-3.151,1.63  c-1.956,1.089-1.74,1.087-2.61,1.632c-0.87,0.543-1.086,0.76-1.74,1.521c-0.653,0.762-0.761,1.087-1.304,1.74  c-0.544,0.654-0.872,1.087-1.415,2.283c-0.543,1.195-1.303,1.63-1.745,2.065c-0.442,0.435-1.191,1.303-2.931,2.499  c-1.74,1.197-1.74,0.87-3.043,1.632c-1.305,0.762-2.5,0.868-4.348,1.305c-1.848,0.435-1.303,0.542-2.826,1.382  c-1.522,0.839-3.369,0.576-5,0.466c-1.63-0.106-1.956,0.327-5.219-0.257c-3.261-0.582-1.848,0.257-2.935,0.04  c-1.086-0.216-2.064,0.544-2.391,0.87c-0.077,0.077-0.178,0.244-0.296,0.458c-0.384,0.697-0.943,1.948-1.442,2.697  c-0.652,0.978-1.303,2.826-1.303,2.826s-1.415,1.85-1.632,2.173c-0.217,0.327-4.456,1.415-4.456,1.415s-1.086-0.11-2.065,0  c-0.978,0.108-2.393,0.435-2.934,0.435c-0.543,0-1.85,0.543-1.85,0.543s-0.762,0.87-1.413,1.195  c-0.651,0.325-0.651,0.652-2.065,1.521c-1.413,0.872-1.848,1.087-2.826,2.393c-0.978,1.303-1.196,1.195-1.523,1.413  c-0.327,0.218-1.305,0.327-2.173,0.555c-0.872,0.227-1.305,0.314-2.391,0.08c-1.087-0.234-2.937,0.126-4.023,0.016  c-1.087-0.108-2.828,0.327-3.153,0.437c-0.326,0.108-1.522,0.541-1.522,0.541s-1.305,0.762-2.065,3.045  c-0.324,0.977-0.59,1.892-0.789,2.622l0.136-0.121c1.523,1.086,5.653,2.391,6.958,3.261c1.303,0.87,4.131,2.391,5.217,3.043  c1.087,0.654,3.043,0.435,4.567,1.305c1.522,0.87,3.042,0.435,3.696,1.956c0.653,1.522,0,3.479,0,3.479s-0.072-0.216,0.29,1.086  c0.361,1.303,3.189,3.48,3.841,3.48c0.653,0,1.088-1.956,1.522,0c0.435,1.956-0.654,3.261,0,3.912  c0.653,0.652,1.086,1.74,1.086,1.74v1.522c0,0-1.305,1.74-2.175,2.391c-0.869,0.653-1.738,2.174-1.738,2.174l-0.218,1.956  c0,0,0.654,2.5,1.195,3.043c0.545,0.544,0.87,1.413,0.87,1.413s4.021,1.087,4.349,0.978c0.325-0.108,2.827-0.651,3.913-0.978  c1.087-0.326,2.934-0.978,3.479-1.086c0.543-0.109,2.5-0.543,2.5-0.543s0.01,0.013,0.024,0.034c1.81-0.886,4.109-1.279,5.03-1.395  c1.305-0.162,3.589-0.162,4.729,0c1.143,0.166,4.566,0.816,6.034,0.816c1.469,0,5.706,0.327,6.195,0.327  c0.489,0,2.61,0.652,4.187,1.305c1.576,0.651,3.153,0.162,3.967,0c0.816-0.165,1.794-1.143,2.446-1.794  c0.652-0.654,0.164-2.445,0-3.858c-0.164-1.415-0.978-1.686-1.63-2.828c-0.651-1.141-1.305-1.956-1.956-3.097  c-0.651-1.143-0.816-1.794-0.816-2.934c0-1.142,0.165-1.467,0.165-3.099c0-1.63,0-1.469-0.165-2.774  c-0.162-1.303-0.325-1.467-0.489-2.119c-0.164-0.651-0.949-1.794-0.949-1.794s0.733-1.575,0.231-2.553  c-0.5-0.978-0.043-2.828,0.018-4.023c0.061-1.196-0.061-2.718,0-3.261c0.061-0.541,1.354-2.391,2.005-2.936  c0.653-0.543-0.216-1.521-0.216-1.521l-1.74-1.196c0,0-0.108-1.195,0-1.918c0.108-0.726,0.652-0.471,1.195-0.144s1.956,0,2.5,0  c0.543,0,0.978-0.435,1.305-0.872c0.325-0.435,1.413-2.173,2.281-3.259c0.87-1.087,1.195-1.305,1.956-2.283  c0.762-0.978,0.978-1.413,0.978-1.413s2.283-3.373,2.718-4.458c0.434-1.088,0.87-2.391,1.956-3.914  c1.088-1.522,1.522-3.045,1.522-3.045s1.74-2.391,3.261-3.914c1.521-1.522,2.392-3.261,2.608-3.914  c0.216-0.651,0.653-1.522,1.306-2.391c0.652-0.87,0.652-1.739,1.522-2.61c0.104-0.104,0.209-0.193,0.313-0.271  C364.331,76.864,363.74,76.294,363.313,75.655z" id="16" name="نطنز"/>
<path fill="#FDFAD4" stroke="#010101" stroke-width="0.2" stroke-miterlimit="10" d="M396.274,230.919  c-0.656-0.216-1.353-0.396-1.652-0.577c-0.544-0.327-1.522-0.544-1.85-0.914c-0.325-0.37-4.131-0.933-6.196-1.911  c-2.063-0.98-1.303-0.872-2.391-1.74c-1.086-0.871-2.391,0-2.936-0.436c-0.543-0.434-0.327-0.979-0.543-1.412  c-0.217-0.434-1.195-0.979-1.521-1.306c-0.327-0.325-1.305-0.434-3.806-1.849c-2.5-1.412-2.608-1.955-3.479-3.15  c-0.869-1.195-2.392-1.305-3.261-2.391c-0.87-1.088-1.956,0-1.956,0s-1.74,0.323-1.956,0.65s0.109,1.522,0.652,2.065  c0.545,0.544,0.545,1.999,0.545,1.999l-0.872,0.938c0,0-3.043,0.869-3.479,0.76c-0.435-0.108-1.303-0.218-2.173-0.326  c-0.87-0.109-2.065-0.217-3.369-0.434c-1.305-0.219-3.913-1.197-4.298-0.871c-0.383,0.325-1.357-0.218-2.226,0  c-0.87,0.217-2.5,1.522-2.5,1.522s-1.956,1.847-2.281,2.392c-0.327,0.544-1.85,2.5-3.48,3.912c-1.632,1.414-1.194,1.586-1.194,1.586  l-1.663,0.95c0.281,0.4,0.459,0.739,0.384,0.97c-0.164,0.489-0.407,1.387-0.407,1.794c0,0.408,0.164,1.387,0.489,1.956  c0.324,0.571,1.06,1.632,1.304,1.876c0.245,0.245,0.816,0.734,0.816,1.387c0,0.572-0.19,1.459-0.952,2.548  c0.821,0.376,1.617,0.747,1.768,0.849c0.326,0.216,1.195,0.868,2.608,1.195c1.413,0.326,3.371,1.413,5.436,1.631  c2.065,0.217,2.934-0.436,3.479,0c0.545,0.435,0.762,0.652,0,1.955c-0.761,1.306-1.637,1.523-1.578,2.066  c0.058,0.543-1.571,0.978,0.49,1.521c2.065,0.544,4.674,0.437,5.328,1.087c0.652,0.651,2.717,2.283,4.239,3.369  c1.522,1.088,0.762-0.105,2.177,1.306c0.166,0.166,0.309,0.313,0.435,0.441c0.672-0.545,1.398-1.149,2.063-1.747  c2.014-1.797,2.61-1.631,3.261-2.174c0.654-0.544,1.413-1.412,1.956-2.173s0.87-1.847,0.87-2.608s0.108-2.5,0.652-3.479  c0.545-0.978,0.872-2.827,1.413-3.588c0.543-0.76,1.088-0.762,2.393-1.303c1.304-0.543,0.652,0,1.413-0.326  c0.762-0.327,1.522,0.216,4.781,0.543c3.263,0.326,2.828,0.652,4.567,0.543c1.74-0.109,2.064-0.217,2.772-0.543  c0.706-0.327,1.032-0.979,1.901-2.065c0.869-1.086,0.979-2.391,2.174-3.479c1.195-1.085,0.978-1.956,0.978-1.956L396.274,230.919z" id="27" name="هرند"/>
<path fill="#E8D0E5" stroke="#010101" stroke-width="0.2" stroke-miterlimit="10" d="M194.166,173.489  c-0.435-0.868-0.762-1.738-1.087-2.934c-0.062-0.228-0.121-0.463-0.177-0.705l-0.546-0.593c0,0-1.354-0.896-1.899-1.439  s-1.087-1.087-1.413-1.305c-0.326-0.218-2.72-0.545-2.72-0.545s-0.868,0.11-1.52,0.872c-0.654,0.762-0.654,1.63-1.305,2.5  c-0.651,0.87-0.87,0.87-1.413,1.522c-0.543,0.652-1.521,1.195-1.848,1.195c-0.326,0-1.522-0.543-1.848-0.762  c-0.327-0.216-3.153-1.738-3.153-1.738l-1.305-1.087c0,0-1.087-0.762-1.848-1.086c-0.761-0.327-1.738-0.543-2.936-1.415  c-0.783-0.569-2.527-1.073-3.851-1.354c-0.276,0.639-0.988,0.445-1.456,0.679c-0.59,0.294-0.883,0.885-1.768,1.768  c-0.884,0.885-0.588,1.179-1.079,1.67c-0.491,0.49-1.179,1.277-1.179,1.277s-0.687,1.375-1.083,1.966  c-0.391,0.589-1.375,0.687-2.651,1.178c-1.275,0.49-0.885,0.687-1.866,1.375c-0.981,0.688-1.277,0.981-2.063,1.474  c-0.675,0.42-0.844,0.84-1.187,1.084l1.673,1.312c0,0,1.413,0.531,1.63,1.292c0.218,0.761,1.195,1.956,1.195,2.283  c0,0.325-0.435,1.305,0,1.956c0.437,0.651,0.437,1.195,0.543,1.956c0.11,0.762-0.327,1.196,0,1.956  c0.327,0.762,0.653,1.848,0.872,2.5c0.217,0.651,0.543,1.085,0.978,1.74c0.434,0.652,1.737,1.413,2.064,1.74  c0.327,0.326,0.872,0,1.632,1.303c0.76,1.306,1.303,0.979,1.63,2.719c0.325,1.74,0,2.934,0,4.456s0.561,2.855,0.144,3.48  c-0.082,0.124-0.124,0.388-0.134,0.735l2.409,0.947c0,0,2.363,1.875,2.852,1.994c0.491,0.115,1.794-0.037,1.794-0.037  s2.121,0.08,3.914,0c1.794-0.082,1.956-0.732,2.854-1.63c0.897-0.896-0.326-1.794,0-2.854c0.327-1.059,0.571-1.875,1.06-2.771  c0.489-0.897,0.083-2.446,0.083-3.833s-0.165-2.444-0.409-3.259c-0.246-0.816-0.734-2.772-0.734-3.262  c0-0.488,0.897-1.223,1.875-1.794c0.978-0.57,1.305-1.141,1.794-1.522c0.489-0.379,0.978-1.495,1.794-1.983  c0.527-0.316,0.95-0.698,1.317-0.977c0.201-0.15,0.384-0.271,0.558-0.329c0.489-0.164,2.444-0.489,3.017-0.816  c0.571-0.326,0.978-0.896,0.978-0.896s1.251-0.219,2.229-1.415c0.978-1.195,0.87-2.393,1.742-3.683  c0.869-1.292,1.194-2.079,2.064-2.839c0.342-0.299,0.446-0.548,0.422-0.792C194.77,174.385,194.431,174.017,194.166,173.489z" id="15" name="فریدن"/>
<path fill="#FDFAD4" stroke="#010101" stroke-width="0.2" stroke-miterlimit="10" d="M298.633,239.474  c-0.325-0.217-1.522-0.979-2.283-1.604c-0.762-0.625-1.848-1.225-2.393-1.877s-0.978-1.63-1.305-2.825  c-0.325-1.197-0.541-1.956-0.541-2.501s0.433-0.871,0.651-1.24c0.217-0.37,0.327-1.154,0.641-1.586  c0.316-0.435-0.425-1.63-0.641-1.956c-0.218-0.324-0.435-0.76-0.545-1.303c-1.956,0.107-1.086,0.435-1.956,0.379  c-0.869-0.056-2.283,1.576-2.283,1.576h-3.965c0,0-1.034-0.762-1.796-1.74c-0.76-0.978-0.652-0.324-1.087-0.871  c-0.433-0.545-0.978-0.545-0.978-0.545h-1.251c0.155,0.23,0.271,0.463,0.271,0.689c0,0.424-0.327,0.834-0.978,1.078  c-0.652,0.244-1.875,0.408-2.608,0.814c-0.734,0.409-2.625,0.816-3.066,0.898c-0.442,0.082-0.686-0.082-1.256,0.407  c-0.571,0.489-0.978,0.88-1.387,1.256c-0.147,0.136-0.315,0.308-0.476,0.492c-0.082,0.093,0.149,0.577,0.149,0.863  c0,0.284,0.041,0.61,0.041,0.978s0.206,1.018,0.206,1.018s0.773,0.407,1.099,0.592c0.325,0.182,0.693,0.349,1.223,0.632  c0.53,0.286,0.571,0.204,0.571,0.204l0.734,0.443c0,0,0.039,0.86-0.246,1.229c-0.284,0.365-0.204,0.204-0.489,0.365  c-0.285,0.164-0.327,0.367-0.732,0.653c-0.167,0.116-0.301,0.221-0.417,0.315c0.422,0.378,0.813,0.758,0.839,0.879  c0.054,0.272,0,0.653,0.433,1.25c0.434,0.6,1.305,1.144,1.794,1.686c0.489,0.544,1.034,1.521,1.303,1.686  c0.271,0.162,0.926,0.814,1.196,1.303c0.157,0.281,0.324,0.602,0.433,0.938l2.123-0.23c0,0,0.162-0.162,0.707,0.191  c0.543,0.354,1.685,0.951,2.339,1.277c0.651,0.326,0.978,0.708,2.065,0.652c1.087-0.055,1.087-0.056,1.738-0.326  c0.654-0.271,1.467-0.867,1.74-1.087c0.273-0.218,0.164-0.435,0.707-0.435c0.544,0,0.76-0.164,1.25,0.054  c0.489,0.218,0.816,0.109,1.087,0.056c0.271-0.055,1.142-0.419,1.142-0.419s1.195-0.994,1.413-1.157  c0.219-0.164,0.978-0.545,0.978-0.545s0.383-0.107,0.708-0.436c0.326-0.323,0.218-0.215,0.814-0.65  c0.597-0.436,0.87-0.436,1.194-0.545c0.131-0.044,0.716-0.383,1.369-0.775C298.795,239.587,298.693,239.511,298.633,239.474z" id="6" name="فلاورجان"/>
<path fill="#FBD0D1" stroke="#010101" stroke-width="0.2" stroke-miterlimit="10" d="M278.902,223.384  c-0.139-0.205-0.307-0.406-0.461-0.596c-0.327-0.408-0.816-1.387-0.978-1.794c-0.164-0.409-0.572-1.876-0.572-2.444  c0-0.57,0.327-0.979,0.245-1.631c-0.082-0.654-0.652-0.898-0.816-1.143c-0.162-0.244-1.63-1.793-1.792-2.038  c-0.165-0.243-1.632-2.935-1.875-3.75c-0.072-0.243-0.113-0.466-0.125-0.677c-1.009-0.184-1.969-0.33-2.703-0.545  c-1.305-0.383-1.846,0.056-2.88,0c-1.033-0.056-2.935-0.488-2.935-0.488s-1.387-0.41-2.038-1.145  c-0.653-0.732-1.305-2.362-1.55-2.852c-0.244-0.49-0.489-1.632-0.978-2.609c-0.489-0.979-0.571-2.283-0.898-3.424  c-0.324-1.141-0.895-1.955-1.63-3.939c-0.732-1.984-0.898-3.154-1.467-5.027c-0.569-1.874-0.326-2.201,0.171-3.099  c0.499-0.898,0.074-1.956,0-3.016c-0.072-1.06-0.415-3.914-0.415-3.914s0.164-5.3,0.164-6.931c0-1.629,0.57-3.83,0-4.321  c-0.571-0.489-1.549-0.816-2.854-1.632c-1.305-0.816-1.956-1.467-2.526-2.659c-0.571-1.192-0.978-1.825-1.305-3.374  c-0.325-1.55-0.489-2.528-0.571-3.508c-0.08-0.978-1.06-2.038-1.63-2.267c-0.572-0.227-1.387,0.636-2.446,1.127  c-1.06,0.489-1.303,1.06-1.303,1.06s-0.816,1.305-0.816,3.099c0,1.792-1.06,0.978-1.06,0.978s-1.142,0.489-2.201,0.898  c-1.06,0.405-0.652,0.405-2.281,0.978c-1.63,0.571-2.283,1.009-2.283,1.009s-1.305-0.195-2.608-0.438  c-1.305-0.245-1.55-0.571-2.093-1.223s-1.497-1.222-2.147-2.2c-0.652-0.978-1.141-1.712-1.875-3.099  c-0.734-1.387-1.549-1.876-2.12-3.343c-0.572-1.467-1.143-1.874-1.712-2.363c-0.571-0.489-1.06-0.572-1.956-1.143  c-0.898-0.571-2.608-0.896-2.854-1.06c-0.244-0.162-1.794-0.734-2.365-1.06c-0.571-0.327-3.343-1.06-3.343-1.06l-1.956-0.489  l-2.775-0.677c-0.013,0.102-0.028,0.206-0.051,0.324c-0.109,0.542-0.109,1.52-0.76,2.173c-0.654,0.651-1.195,2.065-1.85,3.043  c-0.652,0.978-0.652,1.956-1.303,2.61c-0.02,0.018-0.036,0.033-0.054,0.051c-0.628,0.623-1.156,1.051-1.684,1.58  c-0.545,0.543-1.116,1.521-1.917,2.065s-1.344,1.195-1.997,1.956c-0.654,0.76-1.305,2.718-2.175,4.021  c-0.869,1.305-0.978,2.175-1.521,3.372c-0.441,0.968-0.309,2.076-0.07,3.099c0.054,0.242,0.114,0.478,0.177,0.705  c0.325,1.195,0.651,2.065,1.087,2.934c0.263,0.528,0.602,0.896,0.639,1.276c0.569,0.131,1.047,0.247,1.047,0.247  s0.978,0.816,1.222,1.142c0.245,0.327,1.305,0.654,1.632,1.062c0.326,0.409,2.2-0.082,2.445,0c0.244,0.082,1.956,0.164,1.956,0.164  s2.582,1.303,3.207,1.71c0.625,0.407,1.848,1.549,2.173,1.792c0.326,0.245,0.978,0.571,1.467,0.816  c0.489,0.244,1.387,0.571,2.038,0.816c0.652,0.244,3.588,0.733,4.484,0.978c0.898,0.244,1.223,0,2.445,0.571  c1.223,0.571,3.67,0.978,3.67,0.978s1.956,0.244,2.201,0.409c0.244,0.162-0.573,0.162,2.119,1.63  c2.69,1.467,3.179,0.816,4.159,2.283c0.978,1.467,1.385,1.875,1.874,2.365c0.489,0.488,1.467,0.897,2.04,1.549  c0.57,0.65,1.875,0.978,2.854,1.549c0.978,0.57,2.77,0.815,3.504,1.141c0.733,0.328,3.344,0.654,3.995,0.654  c0.653,0,3.181,0.08,3.506,0.162c0.327,0.082,3.424,2.771,3.424,2.771s0.082-0.163,0.734,1.467c0.652,1.629,1.387,1.306,1.387,3.344  c0,2.037,0.325,3.342-0.407,3.913c-0.734,0.571-0.978,1.142-1.467,1.63c-0.489,0.489-0.816,1.414-1.142,1.85  c-0.327,0.436-0.083,1.82,0.082,2.146c0.162,0.325,0.814,0.734,1.06,2.039c0.244,1.303,1.141,1.875,0.652,2.037  s-0.571,0.571-1.303,0c-0.734-0.57-1.062-0.897-1.55-1.223c-0.489-0.326-0.896-0.979-1.06-0.65  c-0.162,0.324,0.082,1.467,0.246,2.689c0.162,1.222,0.571,1.631,0.651,4.075c0.082,2.444,0.327,3.263,0.327,4.159  s0.082,1.703-0.164,2.4c-0.244,0.697,0.082,1.023-0.407,2.164c-0.489,1.14,0,1.223-0.489,2.854c-0.05,0.163-0.095,0.332-0.136,0.497  c0.292-0.058,0.532-0.091,0.625-0.091c0.244,0,2.526,0.653,2.526,0.653s1.467,0.652,2.365,1.144c0.898,0.486,2.2,0.65,2.445,0.405  c0.244-0.244,1.792,0.245,2.281,0c0.489-0.244,0.734-0.814,1.143-1.222c0.407-0.409,0.898-1.713,1.387-2.283  c0.489-0.57,0.733-1.081,0.733-1.081s0.816-0.47,1.06-0.757c0.245-0.288,0.816-0.119,1.062-0.201  c0.127-0.043,0.842,0.094,1.562,0.162l0.149,0.408c0,0,0.041,0.367,0.327,0.53c0.284,0.163,0.773,0.284,1.017,0.61  c0.245,0.326,0.654,0.611,0.654,0.856c0,0.243,0.204,0.773,0.325,1.017c0.123,0.246,0.45,0.612,0.572,0.816  c0.121,0.205,0.04,0.285,0.448,0.489s1.019,0.284,1.182,0.204c0.097-0.049,0.228-0.156,0.399-0.296  c0.116-0.095,0.25-0.199,0.417-0.315c0.407-0.285,0.448-0.489,0.732-0.652c0.285-0.164,0.205,0,0.489-0.368  c0.285-0.366,0.246-1.227,0.246-1.227l-0.734-0.443c0,0-0.039,0.082-0.571-0.204c-0.53-0.286-0.898-0.449-1.223-0.633  c-0.325-0.182-1.099-0.591-1.099-0.591s-0.206-0.652-0.206-1.019s-0.041-0.693-0.041-0.979c0-0.284-0.231-0.767-0.149-0.861  c0.159-0.184,0.327-0.356,0.476-0.492c0.409-0.376,0.816-0.766,1.387-1.256c0.57-0.489,0.814-0.326,1.256-0.407  c0.441-0.082,2.332-0.489,3.066-0.897c0.733-0.408,1.956-0.571,2.608-0.814c0.651-0.246,0.978-0.654,0.978-1.08  C279.174,223.848,279.061,223.615,278.902,223.384z" id="4" name="نجف آباد"/>
<path fill="#DBECCB" stroke="#010101" stroke-width="0.2" stroke-miterlimit="10" d="M436.815,242.283  c-0.965-0.024-2.228-0.067-3.818-0.091c-3.816-0.064-3.043-0.328-5.328-0.979c-2.281-0.65-2.718-0.326-8.587-1.522  s-4.565-0.87-4.999-1.086c-0.437-0.22-2.936-0.872-3.913-1.632c-0.979-0.762-3.153-1.305-4.674-2.391  c-1.522-1.088-1.197-0.762-1.85-1.306c-0.651-0.544-2.608-0.808-2.608-0.808s-2.935-0.388-3.479-0.931  c-0.244-0.243-0.751-0.441-1.284-0.618l-0.674,1.055c0,0,0.218,0.869-0.978,1.956c-1.195,1.086-1.305,2.391-2.174,3.477  c-0.869,1.087-1.196,1.74-1.903,2.065c-0.706,0.326-1.031,0.434-2.771,0.543c-1.739,0.107-1.305-0.216-4.567-0.543  c-3.261-0.327-4.02-0.868-4.781-0.543c-0.762,0.326-0.109-0.217-1.415,0.326c-1.303,0.544-1.848,0.544-2.391,1.305  c-0.545,0.759-0.87,2.608-1.413,3.586c-0.543,0.979-0.654,2.719-0.654,3.479c0,0.761-0.323,1.846-0.868,2.608  c-0.544,0.763-1.305,1.632-1.956,2.173c-0.65,0.545-1.249,0.377-3.261,2.174c-0.665,0.598-1.393,1.202-2.063,1.748  c0.936,0.959,0.922,0.979,2.934,1.84c2.281,0.979,3.48,1.195,4.349,1.956c0.868,0.762,1.74,1.195,2.391,1.74  c0.652,0.545,2.934,1.195,2.934,1.195s3.479,0.434,3.806,0.543c0.327,0.108,0.327-0.652,3.044,0.762  c2.718,1.413,2.893,1.413,3.838,1.74c0.945,0.325,3.338,0.979,4.207,1.521c0.87,0.544,4.782,2.609,5.109,2.718  c0.327,0.109,5.544,1.632,5.544,1.632l2.936,0.545c0,0,4.132,0,4.456,0c0.327,0,3.806,0,3.806,0s2.935,1.195,3.588,1.521  c0.652,0.327,3.913-0.325,5.436,0c1.522,0.327,3.806-0.027,4.676,0.095c0.871,0.123,2.066,0.298,4.131,0.048  c1.373-0.167,3.558-0.416,4.873-0.563c0.062-2.834,0.134-5.997,0.207-9.221c0.205-9.047,0.419-18.406,0.419-20.065  C437.08,243.813,436.979,243.101,436.815,242.283z" id="24" name="ورزنه"/>
<path fill="#DBECCB" stroke="#010101" stroke-width="0.2" stroke-miterlimit="10" d="M324.888,383.5  c-0.826-5.786-3.32-21.595-3.346-21.75c0,0-1.495,0.67-3.884,1.758c-2.393,1.086-2.393,0.218-5,0  c-2.608-0.218-2.175-1.086-3.698-2.61c-1.522-1.521-1.738-2.825-2.746-4.565c-1.009-1.738-1.384-3.044-2.473-4.999  c-1.086-1.958-1.74-3.914-1.956-6.089c-0.217-2.174,0.872-1.956,3.261-3.261c2.391-1.306,0.435-2.391,0-5.001  c-0.433-2.608-1.305-2.174-2.391-3.26c-1.087-1.087-2.175-1.955-3.043-3.261c-0.87-1.305-1.956-2.391-3.045-3.913  c-1.086-1.522-1.738-2.391-3.259-4.131c-0.294-0.334-0.576-0.642-0.855-0.938c-1.174-1.248-2.264-2.266-3.493-3.845  c-1.521-1.958-1.958-1.523-5.217-2.176c-3.261-0.652-3.914,0-5.001-0.999s-4.348,0-4.348,0s-2.234-1.032-3.408-0.129  c-4.742,3.017-6.792,6.757-5.621,10.265c0.782,2.351-0.309,11.659-1.813,23.582c-0.491,3.891-0.913,7.25-0.913,8.072  c0,1.003,1.009,7.773,2.079,14.942c0.888,5.948,1.88,12.601,2.662,18.336c0.216,0.271,0.327,0.623,0.263,0.992  c-0.016,0.09-0.063,0.167-0.098,0.244c0.726,5.404,1.233,9.845,1.233,11.815c0,7.891,2.302,13.963,6.84,18.045  c4.587,4.132,25.863,20.688,32.857,26.116c-0.283-4.536-0.502-12.984,1.509-16.339c1.16-1.932,2.201-6.102,3.21-10.126  c1.099-4.399,2.138-8.552,3.488-10.807C319.379,404.974,325.634,388.709,324.888,383.5z" id="13" name="سمیرم"/>
<path fill="#DBECCB" stroke="#010101" stroke-width="0.2" stroke-miterlimit="10" d="M605.732,163.055  c-1.007-1.668-2.395-4.783-3.043-6.957c-0.654-2.173-2.612-6.304-2.612-9.35c0-3.045-0.433-5.218-1.084-7.174  c-0.652-1.956-0.654-3.043-3.695-7.827c-3.045-4.784-2.393-2.173-3.48-3.261c-1.086-1.088-2.173-2.175-3.695-3.698  c-1.521-1.522-1.304-2.173-2.608-6.087c-1.304-3.913-0.87-3.261-1.088-6.521c-0.218-3.261-0.651-1.305-1.956-2.828  c-1.305-1.521-2.175-2.391-3.479-4.564c-1.304-2.175-1.521-1.305-2.607-2.61c-1.089-1.304-1.305-1.304-2.396-2.608  c-1.084-1.305-2.391-1.305-3.475-1.956c-1.088-0.652-1.958-1.087-3.917-2.173c-1.956-1.087-2.391-1.305-3.694-3.045  c-1.305-1.74-1.086-1.74-1.521-4.129c-0.437-2.393-1.74-1.956-3.261-3.479c-1.522-1.522-1.74-1.956-3.261-3.914  c-1.523-1.956-3.915-2.61-5.437-4.783c-1.519-2.173-2.175-3.914-3.259-7.609c-1.086-3.698-2.177-5.652-2.177-7.392  c0-1.74,0.654-2.826,1.74-4.348s0.652-3.261,1.305-4.566c0.65-1.305,2.391-5.219,2.391-5.219l1.521-4.347l3.152-5.429  l-116.653,1.415c0.061,2.103,0.094,4.748-0.098,5.318c-0.327,0.978-1.306,3.261-2.283,4.24c-0.978,0.978,0,5.218,0,5.218  s4.567,2.282,4.567,4.892c0,2.608,0.652,3.914,0,5.544c-0.654,1.632,0.29,7.501,0.29,7.501s-3.371,2.608-2.646,4.564  c0.725,1.956,0.906,5.546,0,7.501c-0.906,1.956,1.631,4.241,2.646,6.522c1.012,2.283,2.97,2.61,4.602,4.892  c1.63,2.283,4.24,6.198,4.24,7.827c0,1.63,0.65,3.588,0,5.871c-0.654,2.281,1.956,4.239,2.281,6.849  c0.327,2.608,1.305,6.522,0,9.456c-1.304,2.934-2.281,7.174-2.281,8.805c0,1.632,0.65,4.567-0.978,6.523  c-1.633,1.956-4.017,3.913-4.618,3.913c-0.601,0-1.578-0.325-3.863,0c-2.283,0.327-4.565,0.978-6.523,0  c-1.956-0.978-4.238-2.608-4.238-2.608s-1.632-0.978-1.632,1.63c0,2.609-0.326,3.586,0,6.197c0.326,2.608,1.014,3.261-0.145,5.869  c-1.157,2.608-0.834,4.239-2.463,5.869c-1.63,1.631-2.608,2.608-3.588,3.261c-0.978,0.651-1.305,0.978-3.915,2.608  c-2.608,1.632-3.586,0.437-5.217,2.502c-1.632,2.065-2.936,3.369-3.913,5.652s-0.978,3.914-2.61,5.869  c-1.63,1.956-6.796,4.568-6.82,5.219c-0.028,0.652-0.679,0.327-1.984,1.63c-1.305,1.305-2.607,3.261-3.586,4.891  c-0.57,0.95-1.192,2.061-1.617,2.828c-0.303,0.551-0.504,0.922-0.504,0.922s0.489,1.633,1.306,2.61  c0.815,0.978,3.586,1.792,4.075,1.956c0.488,0.162,1.794-1.467,3.099,0c1.304,1.467,3.913,2.281,4.892,3.098  c0.978,0.815,1.955,1.467,2.771,1.955c0.814,0.489,1.792,0.489,2.936,1.467c1.142,0.979,1.792,1.305,2.119,2.283  s0.162,1.956-0.652,2.936c-0.816,0.979-1.144,0.652-1.144,1.794s-0.488,1.63,1.633,2.771c2.119,1.143,2.444,1.794,2.608,3.099  c0.163,1.304-0.327,1.468-0.327,2.771c0,1.305,0.488,1.794,0.978,2.283c0.489,0.488,0.545,0.488,3.316,0.706  c2.772,0.216,4.349-0.056,5.815,0.382c1.467,0.435,3.913,1.955,3.913,1.955s2.88,1.956,3.75,2.336  c0.564,0.247,1.354,0.585,1.961,0.851l-0.143-0.393l0.88-0.533c0,0,23.447-14.237,27.636-16.749  c4.485-2.688,13.033-2.688,19.907-2.688c3.571,0,12.032-0.238,20.211-0.461c6.912-0.193,13.442-0.377,15.794-0.377  c4.356,0,8.791-4.435,8.791-8.791c0-5.35,5.304-6.77,10.433-8.14c0.729-0.194,1.465-0.391,2.199-0.602  c1.816-0.521,3.053-0.954,4.152-1.341c2.412-0.846,4.155-1.462,9.455-2.049c7.086-0.789,11.442-7.121,11.442-11.312  c0-6,4.934-12.978,11.306-12.978h28.468c0.973,0,1.78-0.175,2.585-0.489C606.338,164.078,605.992,163.489,605.732,159.055z" id="18" name="نائین"/>
<path fill="#E8D0E5" stroke="#010101" stroke-width="0.2" stroke-miterlimit="10" d="M685.023,35.103l-96.197,1.657l-34.731,0.422  l-3.152,5.429l-1.521,4.347c0,0-1.74,3.914-2.392,5.219c-0.654,1.303-0.219,3.043-1.305,4.566s-1.74,2.608-1.74,4.348  c0,1.74,1.089,3.696,2.177,7.392c1.084,3.696,1.74,5.436,3.26,7.609c1.521,2.175,3.913,2.828,5.436,4.783  c1.521,1.956,1.738,2.391,3.261,3.914c1.521,1.522,2.826,1.086,3.261,3.479c0.436,2.391,0.216,2.391,1.521,4.129  c1.304,1.738,1.74,1.956,3.696,3.045c1.957,1.086,2.826,1.521,3.915,2.173c1.084,0.652,2.391,0.652,3.475,1.956  c1.09,1.305,1.306,1.305,2.396,2.608c1.084,1.305,1.302,0.437,2.606,2.61s2.175,3.043,3.479,4.564  c1.306,1.522,1.739-0.434,1.956,2.828c0.22,3.261-0.216,2.608,1.088,6.521c1.304,3.914,1.086,4.564,2.608,6.087  s2.609,2.61,3.695,3.698c1.086,1.087,0.436-1.521,3.48,3.261c3.042,4.783,3.042,5.869,3.695,7.827s1.085,4.129,1.085,7.174  c0,3.043,1.957,7.174,2.611,9.35c0.65,2.173,2.038,5.289,3.043,6.957c0.261,0.434,0.605,1.022,0.981,1.67  c1.055-0.412,2.104-1.076,3.515-1.979c0.732-0.466,1.537-0.984,2.466-1.542c1.37-0.819,2.584-1.969,3.758-3.084  c2.303-2.182,4.681-4.44,8.02-3.768c3.107,0.62,9.852-0.628,12.523-1.23c2.06-1.565,12.935-9.773,15.919-10.967  c1.956-0.78,6.286-6.478,8.555-9.882l0.376-0.561h11.03c1.835,0,3.985-0.286,6.26-3.704c2.109-3.164,6.07-8.646,7.091-10.061  L685.023,35.103z" id="28" name="خور و بیابانک"/>
<path fill="#FBD0D1" stroke="#010101" stroke-width="0.2" stroke-miterlimit="10" d="M311.037,304.045  c0.01-1.196-1.205-5.654-1.75-6.632c-0.543-0.978-1.305-1.631-1.632-2.175c-0.325-0.543-0.216-1.195,0.545-1.847  c0.76-0.654,1.087-1.088,1.85-1.74c0.76-0.654,0.868-1.305,0.978-2.065c0.108-0.762-0.652-0.87-0.978-1.195  c-0.327-0.327-1.305-1.305-0.687-1.85c0.618-0.543-0.183-1.086-0.018-1.413c0.167-0.327-0.927-1.522-0.268-2.063  c0.657-0.545-0.116-1.415-0.005-2.395c0.108-0.978-1.305-2.934-1.305-2.934s-0.872-0.652-1.305-1.631  c-0.435-0.978-1.196-1.195-1.631-1.522c-0.435-0.327-1.087-0.543-1.522-1.63c-0.435-1.088-0.978-1.632-1.522-2.828  c-0.544-1.195-1.086-1.739-1.413-2.718c-0.327-0.978-0.87-1.413-1.088-1.74c-0.063-0.096-0.256-0.204-0.495-0.307  c0.067,0.248,0.083,0.503-0.047,0.796c-0.327,0.734-0.654,1.712-1.551,2.365c-0.895,0.653-1.385,1.143-2.444,2.121  c-1.06,0.978-2.12,1.71-3.098,2.281c-0.978,0.57-2.283,1.794-3.913,2.609c-1.631,0.814-2.854,1.06-3.832,1.793  c-0.978,0.734-0.898,0.654-2.936,1.712s-4.077,2.446-4.322,2.608c-0.244,0.165-0.651,0.816-1.71,1.551  c-1.062,0.733-0.816,0.896-2.772,1.632c-0.527,0.196-0.986,0.32-1.424,0.425c1.413,3.964,2.329,12.316,2.474,13.742  c0.64,1.53,4.321,11.166-2.23,15.333c1.174-0.902,3.408,0.128,3.408,0.128s3.261-0.998,4.349,0c1.087,1.001,1.74,0.347,5.001,1.001  c3.259,0.652,3.696,0.217,5.216,2.175c1.23,1.58,2.319,2.597,3.493,3.845c0.876-0.054,1.6-0.003,2.269-0.15  c0.978-0.218,2.391-0.436,3.696-0.872c1.305-0.435,3.48-0.652,4.783-1.303c1.303-0.653,3.261,0,4.348-0.438  c1.086-0.435,0.761-0.652,1.304-1.63c0.544-0.979,0.219-1.956,0.654-3.803c0.434-1.85,0.327-1.305,0.978-3.154  c0.652-1.848,0.218-1.957,0.554-3.259C311.374,305.565,311.027,305.24,311.037,304.045z" id="21" name="دهاقان"/>
<path fill="#E8D0E5" stroke="#010101" stroke-width="0.2" stroke-miterlimit="10" d="M433.807,232.203l-0.209-0.574  c-0.605-0.267-1.396-0.604-1.961-0.853c-0.868-0.381-3.75-2.335-3.75-2.335s-2.446-1.523-3.913-1.957s-3.044-0.164-5.815-0.381  c-2.772-0.217-2.828-0.217-3.315-0.706c-0.49-0.489-0.978-0.978-0.978-2.281c0-1.306,0.487-1.469,0.325-2.772  c-0.161-1.305-0.488-1.955-2.608-3.099c-2.121-1.14-1.632-1.63-1.632-2.771s0.327-0.816,1.144-1.793  c0.815-0.979,0.978-1.957,0.652-2.936c-0.327-0.979-0.979-1.306-2.119-2.283c-1.144-0.979-2.121-0.979-2.936-1.467  c-0.816-0.489-1.794-1.143-2.772-1.957c-0.978-0.815-3.588-1.63-4.891-3.097c-1.304-1.467-2.608,0.161-3.1,0  c-0.487-0.163-3.259-0.978-4.075-1.956c-0.815-0.979-1.305-2.609-1.305-2.609s0.201-0.373,0.505-0.923h-3.353  c0,0-0.685,0.435-3.075,0c-2.393-0.434-1.958,0.435-4.568,0c-2.609-0.434-5.653-1.087-5.653-1.087s-2.391-1.739-3.043-2.392  c-0.65-0.652-2.826-2.61-3.259-4.348c-0.438-1.74-0.872-3.261-1.522-3.914c-0.651-0.654-1.523-2.391-2.828-3.261  c-1.303-0.869-2.608-1.956-3.913-1.956c-1.304,0-4.129,0-4.129,0s-2.608-0.218-3.48,0c-0.87,0.217-1.304,0.217-3.48,0.87  c-2.173,0.654-3.042,0-4.566,1.305c-1.521,1.305-3.261,2.828-3.261,2.828l-2.826,0.435l-0.86,2.441l-0.229,0.643l-2.88,0.549  c0,0-0.407-0.327-0.896,0.082c-0.489,0.407-0.652,0.407-1.06,0.978s-0.816,1.549-1.223,1.956c-0.409,0.409-0.898,1.06-1.387,1.549  c-0.489,0.488-0.898,0.896-1.303,1.387c-0.407,0.488-0.654,0.734-1.062,1.223c-0.407,0.489-0.489,1.061-0.896,1.549  c-0.407,0.489-0.573,0.979-0.573,1.387s0.489,0.896,1.062,1.876c0.571,0.979,0.814,1.388,1.467,1.956  c0.651,0.569,1.385,1.142,2.038,2.283c0.651,1.14,1.06,1.792,1.06,2.608c0,0.708-0.739,2.34-1.146,3.236  c-0.062,0.136-0.116,0.255-0.159,0.35c-0.326,0.734-0.409,1.388-0.489,2.283c-0.082,0.897-0.163,2.526,0,3.833  c0.164,1.305,0.489,2.365,0.571,3.75c0.082,1.387,0.246,1.876,0.653,2.771c0.409,0.896,1.141,2.038,1.71,2.689  c0.572,0.652,1.712,1.141,2.365,1.793c0.652,0.653,1.632,0.653,2.365,1.711c0.391,0.562,0.844,1.101,1.164,1.558l1.663-0.949  c0,0-0.437-0.172,1.194-1.586c1.63-1.413,3.153-3.368,3.48-3.913c0.326-0.545,2.281-2.391,2.281-2.391s1.632-1.306,2.501-1.523  c0.87-0.217,1.843,0.326,2.226,0c0.385-0.326,2.992,0.651,4.298,0.872c1.303,0.216,2.5,0.323,3.368,0.433  c0.87,0.107,1.74,0.219,2.174,0.326s3.479-0.759,3.479-0.759l0.87-0.938c0,0,0-1.456-0.543-1.999  c-0.543-0.542-0.87-1.738-0.652-2.065c0.217-0.326,1.955-0.65,1.955-0.65s1.088-1.088,1.956,0c0.872,1.086,2.393,1.195,3.261,2.391  c0.872,1.195,0.979,1.74,3.48,3.151c2.5,1.413,3.479,1.522,3.806,1.849c0.325,0.326,1.303,0.871,1.521,1.305  c0.216,0.435,0,0.979,0.543,1.412c0.544,0.436,1.85-0.435,2.936,0.436c1.087,0.868,0.327,0.762,2.391,1.74  c2.065,0.978,5.869,1.54,6.196,1.912c0.327,0.371,1.305,0.586,1.85,0.914c0.299,0.18,0.996,0.361,1.651,0.576  c0.533,0.178,1.04,0.377,1.284,0.619c0.544,0.543,3.479,0.93,3.479,0.93s1.957,0.264,2.608,0.809  c0.652,0.545,0.327,0.217,1.848,1.305c1.522,1.086,3.695,1.631,4.674,2.391c0.978,0.761,3.479,1.413,3.915,1.631  c0.435,0.217-0.87-0.107,4.999,1.088s6.306,0.869,8.587,1.521c2.283,0.653,1.512,0.916,5.328,0.979  c1.593,0.026,2.854,0.068,3.818,0.092C436.176,239.081,434.532,234.198,433.807,232.203z" id="26" name="کوهپایه"/>
<path fill="#DBECCB" stroke="#010101" stroke-width="0.2" stroke-miterlimit="10" d="M216.479,212.108  c-0.083-0.815-0.654-2.121-0.734-3.343c-0.08-1.223-0.489-2.037-0.571-2.526c-0.08-0.489-0.734-1.712-0.897-2.039  c-0.162-0.324-1.06-1.631-1.712-2.181c-0.652-0.551-1.548-0.67-3.097-1.651c-1.549-0.978-3.017-0.405-3.506-0.896  c-0.489-0.489-1.467-0.572-1.875-1.144c-0.409-0.571-1.06-1.387-1.387-1.876c-0.327-0.488-0.733-1.141-1.06-1.711  c-0.327-0.568-1.712-2.121-2.201-2.609c-0.489-0.489-2.854-2.447-2.854-2.447l-1.792-1.195c0,0-2.283-0.435-3.181-0.924  c-0.897-0.489-2.283-0.327-3.262-0.327c-0.978,0-1.303-0.698-1.303-0.698h-1.305l-1.944-1.011c-0.367,0.276-0.79,0.659-1.318,0.976  c-0.814,0.489-1.303,1.604-1.792,1.984c-0.489,0.381-0.816,0.952-1.794,1.522c-0.978,0.571-1.876,1.305-1.876,1.793  c0,0.49,0.489,2.445,0.733,3.26c0.245,0.816,0.409,1.876,0.409,3.261c0,1.386,0.407,2.936-0.082,3.833  c-0.489,0.896-0.732,1.713-1.06,2.772s0.898,1.956,0,2.854s-1.06,1.549-2.854,1.631c-1.794,0.08-3.914,0-3.914,0  s-1.305,0.153-1.794,0.036c-0.489-0.119-2.854-1.994-2.854-1.994l-2.407-0.948l-0.281-0.111c0,0-0.978,0.409-1.305,0.897  c-0.327,0.489-0.978,2.2-1.141,2.771c-0.164,0.572-1.06,2.444-1.06,2.771c0,0.326,0.244,2.283,0,3.099  c-0.245,0.814,0.326,1.63,0,3.259c-0.327,1.633,0.653,1.306-1.061,2.201c-1.424,0.748-2.237,1.824-3.595,2.309  c0.707,0.441,1.384,0.966,2.012,1.594c3.323,3.322,10.487,9.355,12.515,10.369c1.2,0.596,7.298-2.889,9.559-6.272  c0.414-0.618,0.801-1.338,1.213-2.092c1.825-3.338,4.333-7.916,10.538-7.394c4.625,0.391,10.404-1.19,14.628-2.339  c1.637-0.448,3.048-0.829,4.041-0.998c0.728-0.119,1.584-0.453,2.499-0.807c1.289-0.503,2.888-1.117,4.538-1.155  C216.109,213.531,216.547,212.789,216.479,212.108z" id="23" name="چادگان"/>
<path fill="#FBD0D1" stroke="#010101" stroke-width="0.2" stroke-miterlimit="10" d="M163.185,202.296c0-1.523,0.324-2.719,0-4.457  c-0.327-1.74-0.87-1.412-1.632-2.718c-0.759-1.304-1.303-0.978-1.63-1.304s-1.631-1.088-2.065-1.74  c-0.435-0.652-0.761-1.087-0.978-1.739c-0.216-0.654-0.543-1.74-0.87-2.5c-0.327-0.761,0.108-1.196,0-1.956  s-0.108-1.305-0.543-1.956c-0.435-0.654,0-1.632,0-1.956c0-0.327-0.978-1.523-1.195-2.283c-0.217-0.762-1.63-1.292-1.63-1.292  l-1.673-1.312c-0.059,0.039-0.12,0.077-0.188,0.104c-0.49,0.208-0.884,0.579-1.375,0.874s-0.393,0.981-0.929,1.964  c-0.537,0.983-0.151,1.474-0.003,2.457c0.147,0.983-3.881,2.021-3.881,2.021s-1.374,0.139-1.768-0.058  c-0.394-0.198-2.258,0.196-2.75,0c-0.493-0.198-2.751-0.49-3.243-0.883c-0.491-0.394-1.079-1.375-1.079-1.375  s-1.315-1.563-1.614-2.129c-1.526,0.924-3.683,1.614-7.285,1.614c-4.789,0-12.087-0.412-14.079-0.53  c-0.742,0.692-1.972,2.067-1.972,3.182c0,1.155-0.138,3.343-0.282,5.66c-0.137,2.175-0.276,4.429-0.276,5.503  c0,1.615,1.135,4.623,1.568,5.646l0.105,0.238v0.258c0.003,1.995,0.616,7.609,3.38,9.583c2.028,1.45,6.155,4.04,9.796,6.319  c3.454,2.167,6.435,4.037,7.534,4.861c0.308,0.23,0.636,0.502,0.986,0.792c2.144,1.779,4.582,3.791,8.168,1.401  c4.441-2.961,9.21-3.227,12.968-0.88c1.357-0.483,2.17-1.56,3.594-2.308c1.712-0.896,0.734-0.568,1.062-2.201  c0.325-1.631-0.245-2.444,0-3.259c0.244-0.816,0-2.772,0-3.099s0.896-2.2,1.06-2.772c0.164-0.571,0.814-2.281,1.142-2.771  c0.327-0.488,1.305-0.897,1.305-0.897l0.281,0.11c0.01-0.348,0.052-0.609,0.134-0.733  C163.747,205.152,163.185,203.82,163.185,202.296z" id="20" name="فریدون شهر"/>
<path fill="#FDFAD4" stroke="#010101" stroke-width="0.2" stroke-miterlimit="10" d="M164.63,161.068  c-0.492-0.492-0.687-0.688-1.375-1.671c-0.688-0.981-0.59-1.374-1.472-2.16c-0.883-0.785-1.572-1.179-2.358-1.864  c-0.785-0.688-1.472-1.179-2.259-1.77c-0.788-0.589-1.866-1.696-1.866-1.696s-4.126-1.053-4.324-1.348  c-0.196-0.296-0.59-1.179-1.179-1.671c-0.59-0.492-1.179-1.179-1.572-1.473c-0.391-0.296-1.571-0.983-2.75-1.77  c-1.179-0.785-2.651-1.67-3.045-1.766c-0.042-0.012-0.123-0.03-0.224-0.048c0.43,2.321,0.582,5.024-0.208,7.396  c-1.46,4.373-3.091,5.416-5.559,6.998c-0.634,0.407-1.349,0.863-2.16,1.442c-0.916,0.651-1.905,1.199-2.864,1.724  c-1.501,0.831-3.217,1.776-3.31,2.607c-0.035,0.274,0.082,1.083,1.817,2.644c5.12,4.608,7.537,7.019,7.598,9.233  c0.018,0.783-0.275,1.501-0.852,2.08c-0.713,0.713-1.472,1.464-2.532,2.103c0.299,0.564,1.614,2.129,1.614,2.129  s0.589,0.981,1.08,1.375c0.49,0.391,2.752,0.685,3.243,0.883c0.491,0.196,2.356-0.198,2.75,0c0.394,0.196,1.768,0.058,1.768,0.058  s4.028-1.039,3.88-2.021c-0.147-0.983-0.533-1.474,0.003-2.457c0.536-0.983,0.438-1.669,0.929-1.964s0.883-0.666,1.375-0.874  c0.07-0.029,0.131-0.067,0.188-0.104c0.343-0.244,0.512-0.664,1.187-1.084c0.785-0.493,1.081-0.787,2.063-1.474  c0.981-0.687,0.59-0.883,1.866-1.375c1.276-0.492,2.258-0.588,2.651-1.179c0.394-0.588,1.083-1.964,1.083-1.964  s0.687-0.787,1.178-1.277c0.492-0.49,0.196-0.785,1.081-1.669c0.885-0.885,1.179-1.474,1.768-1.768  c0.468-0.234,1.179-0.039,1.456-0.679c0.072-0.168,0.116-0.391,0.116-0.696C165.416,162.444,165.121,161.559,164.63,161.068z" id="25" name="بوئین و میاندشت"/>
<path fill="#DBECCB" stroke="#010101" stroke-width="0.2" stroke-miterlimit="10" d="M197.237,153.325  c-2.038-0.326-2.854-0.653-3.412-0.814c-0.556-0.164-2.297-0.654-3.112-1.305c-0.814-0.654-1.06-0.734-1.875-1.467  c-0.814-0.734-2.852-1.387-3.588-2.121c-0.733-0.733-1.467-1.874-1.956-2.201c-0.489-0.326-0.978-0.08-2.038-0.407  s-2.283-0.898-2.468-0.978c-0.182-0.08-3.241-0.326-3.976-0.326c-0.732,0-1.874,0.653-2.445,0.653c-0.569,0-1.467,0.489-2.281,1.06  c-0.816,0.571-0.978,0-1.387-0.734c-0.407-0.732-0.654-0.732-1.223-1.393c-0.571-0.658-0.814-1.379-0.814-1.379  s-1.794-0.654-2.5-1.305c-0.707-0.653-1.25-0.489-2.229-1.117c-0.978-0.626-2.445-0.024-2.61,0c-0.162,0.024-0.244-0.84-0.162-1.493  c0.082-0.654,0.489-0.572,0.816-0.862c0.325-0.288-0.162-1.014-0.489-1.341s-0.571,0.162-1.143,0.489  c-0.571,0.327-0.652,0.571-0.924,0.409c-0.273-0.166-0.461-0.327-0.939-1.06c-0.478-0.734-0.258-0.654-0.502-0.816  c-0.245-0.164-1.143,0.326-1.305,0.571c-0.166,0.245,0.327,0.896,0.327,0.896s0.733,1.142,0.978,1.387  c0.244,0.244,0.571,1.305,0.489,1.631c-0.083,0.327-0.734,0.165-2.283,0c-1.549-0.162-2.365-0.244-3.913-0.733  c-1.549-0.489-3.263-0.571-3.263-0.571l-3.016-0.897h-3.037c-0.147,0.687-0.228,1.228-0.267,1.537  c0.311,0.764,1.063,2.769,1.511,5.195c0.103,0.018,0.181,0.036,0.224,0.048c0.394,0.098,1.868,0.981,3.045,1.766  c1.179,0.785,2.358,1.473,2.751,1.77c0.394,0.294,0.981,0.981,1.571,1.473c0.589,0.492,0.981,1.374,1.179,1.671  c0.198,0.294,4.324,1.348,4.324,1.348s1.08,1.107,1.866,1.696c0.785,0.59,1.472,1.081,2.258,1.77  c0.787,0.687,1.473,1.079,2.358,1.864c0.883,0.787,0.785,1.179,1.472,2.16c0.688,0.981,0.883,1.179,1.375,1.671  c0.492,0.491,0.787,1.375,0.787,2.849c0,0.306-0.044,0.528-0.116,0.696c1.325,0.281,3.07,0.785,3.852,1.354  c1.195,0.872,2.173,1.088,2.935,1.415c0.761,0.325,1.848,1.085,1.848,1.085l1.305,1.088c0,0,2.826,1.522,3.153,1.738  c0.325,0.217,1.521,0.762,1.848,0.762s1.305-0.543,1.848-1.197c0.543-0.652,0.762-0.652,1.413-1.521  c0.653-0.87,0.653-1.738,1.305-2.5c0.651-0.762,1.519-0.872,1.519-0.872s2.395,0.327,2.72,0.544c0.326,0.218,0.87,0.762,1.413,1.305  c0.543,0.544,1.898,1.438,1.898,1.438l0.546,0.595c-0.24-1.022-0.373-2.132,0.07-3.099c0.543-1.197,0.652-2.067,1.521-3.372  c0.872-1.303,1.522-3.262,2.175-4.021c0.651-0.761,1.195-1.413,1.997-1.956c0.803-0.544,1.372-1.522,1.917-2.065  c0.528-0.53,1.056-0.957,1.684-1.58C200.843,153.292,198.982,153.603,197.237,153.325z" id="22" name="خوانسار"/>
<path fill="#FDFAD4" stroke="#010101" stroke-width="0.2" stroke-miterlimit="10" d="M254.391,204.363  c0-2.039-0.734-1.712-1.387-3.342c-0.653-1.633-0.733-1.468-0.733-1.468s-3.099-2.69-3.426-2.771  c-0.326-0.082-2.852-0.162-3.506-0.162c-0.651,0-3.259-0.327-3.995-0.654c-0.734-0.325-2.526-0.571-3.504-1.142  s-2.283-0.897-2.854-1.549c-0.571-0.654-1.549-1.06-2.038-1.549c-0.489-0.488-0.898-0.897-1.876-2.364s-1.467-0.816-4.159-2.283  c-2.69-1.467-1.875-1.467-2.119-1.631c-0.246-0.165-2.201-0.409-2.201-0.409s-2.445-0.407-3.668-0.978  c-1.225-0.571-1.551-0.327-2.445-0.571c-0.896-0.245-3.833-0.734-4.485-0.978c-0.653-0.246-1.549-0.573-2.038-0.816  c-0.489-0.245-1.142-0.571-1.467-0.816c-0.325-0.244-1.548-1.387-2.173-1.794c-0.626-0.406-3.207-1.709-3.207-1.709  s-1.712-0.082-1.956-0.164c-0.245-0.082-2.119,0.407-2.445,0c-0.327-0.407-1.387-0.734-1.63-1.062  c-0.245-0.325-1.223-1.141-1.223-1.141s-0.478-0.116-1.047-0.247c0.023,0.244-0.08,0.492-0.422,0.792  c-0.872,0.76-1.195,1.547-2.065,2.839c-0.87,1.291-0.762,2.487-1.742,3.683c-0.978,1.194-2.229,1.415-2.229,1.415  s-0.406,0.571-0.978,0.896c-0.571,0.326-2.527,0.652-3.016,0.816c-0.173,0.058-0.356,0.178-0.558,0.329l1.944,1.01h1.305  c0,0,0.325,0.698,1.303,0.698s2.365-0.162,3.262,0.327c0.898,0.489,3.181,0.924,3.181,0.924l1.792,1.195  c0,0,2.365,1.956,2.854,2.446c0.489,0.491,1.875,2.04,2.201,2.61c0.325,0.57,0.732,1.222,1.06,1.711  c0.325,0.488,0.978,1.305,1.387,1.875c0.407,0.57,1.387,0.654,1.875,1.144c0.489,0.489,1.956-0.08,3.506,0.897  c1.549,0.979,2.445,1.1,3.097,1.65c0.653,0.551,1.55,1.855,1.712,2.18c0.164,0.327,0.816,1.551,0.898,2.039  c0.082,0.489,0.489,1.304,0.57,2.527c0.082,1.221,0.653,2.526,0.734,3.342c0.069,0.683-0.37,1.425-0.183,2.508  c1.851-0.043,3.768,0.641,5.382,3.066c1.68,2.518,2.908,5.346,4.098,8.076c1.188,2.722,2.308,5.292,3.637,6.884  c0.764,0.918,1.527,1.936,2.152,3.037c0.411-0.055,0.729-0.093,0.729-0.093l2.445-0.163l2.528,0.652l2.608,1.09  c0,0,2.608,0.053,2.934,0c0.327-0.051,1.794-0.684,2.608-1.007c0.816-0.327,1.956-0.572,2.445-0.815  c0.308-0.152,0.931-0.307,1.416-0.399c0.04-0.165,0.085-0.334,0.136-0.497c0.489-1.631,0-1.713,0.489-2.854  c0.489-1.143,0.164-1.467,0.407-2.164c0.245-0.697,0.164-1.502,0.164-2.4c0-0.896-0.246-1.713-0.327-4.159  c-0.08-2.444-0.489-2.854-0.651-4.075c-0.165-1.223-0.409-2.365-0.246-2.689c0.166-0.328,0.571,0.324,1.06,0.65  c0.489,0.326,0.816,0.654,1.55,1.223c0.732,0.571,0.814,0.162,1.303,0c0.489-0.163-0.409-0.734-0.652-2.037  c-0.246-1.305-0.898-1.713-1.06-2.037c-0.165-0.328-0.409-1.713-0.082-2.148c0.325-0.434,0.652-1.36,1.142-1.85  c0.489-0.488,0.732-1.059,1.467-1.63C254.716,207.706,254.391,206.401,254.391,204.363z" id="14" name="تیران و کاروان"/>
<path fill="#DBECCB" stroke="#010101" stroke-width="0.2" stroke-miterlimit="10" d="M277.651,244.798  c0.025-0.251-0.029-0.503-0.109-0.746c-0.109-0.334-0.276-0.654-0.432-0.938c-0.273-0.489-0.926-1.142-1.197-1.305  c-0.27-0.164-0.814-1.143-1.303-1.686c-0.489-0.541-1.361-1.086-1.794-1.684c-0.434-0.598-0.381-0.979-0.434-1.252  c-0.026-0.122-0.417-0.5-0.839-0.877c-0.171,0.139-0.302,0.246-0.399,0.295c-0.164,0.082-0.773,0-1.182-0.204  c-0.409-0.204-0.327-0.284-0.448-0.489c-0.123-0.204-0.45-0.57-0.572-0.815c-0.121-0.243-0.326-0.773-0.326-1.017  c0-0.246-0.409-0.531-0.654-0.857c-0.244-0.326-0.733-0.448-1.018-0.61c-0.284-0.163-0.327-0.53-0.327-0.53l-0.148-0.408  c-0.72-0.068-1.435-0.206-1.562-0.162c-0.245,0.082-0.816-0.086-1.061,0.201c-0.244,0.288-1.06,0.758-1.06,0.758  s-0.244,0.51-0.732,1.08c-0.489,0.571-0.978,1.876-1.387,2.283s-0.654,0.979-1.143,1.222c-0.489,0.245-2.038-0.243-2.281,0  c-0.246,0.245-1.549,0.083-2.445-0.407c-0.896-0.487-2.365-1.142-2.365-1.142s-2.283-0.652-2.527-0.652  c-0.093,0-0.333,0.034-0.625,0.09c-0.486,0.093-1.109,0.247-1.416,0.399c-0.489,0.244-1.63,0.488-2.445,0.814  c-0.814,0.325-2.281,0.958-2.608,1.009c-0.327,0.052-2.934,0-2.934,0l-2.61-1.091l-2.526-0.652l-2.445,0.164  c0,0-0.319,0.037-0.729,0.092c1.457,2.57,2.139,5.611,0.204,8.998c-1.11,1.941-1.436,5.779-0.07,8.844  c1.058,2.364,2.867,3.836,5.384,4.374c7.552,1.619,13.004,2.785,14.352,8.183c0.5,2,1.328,3.769,2.379,5.191  c0.452-0.181,0.874-0.344,1.146-0.462c0.571-0.245,1.509-1.305,1.794-1.589c0.285-0.285,0.898-1.02,1.222-1.345  c0.325-0.327,1.182-1.021,1.751-1.346c0.572-0.325,1.346-0.857,1.998-1.305c0.653-0.448,1.712-0.898,1.917-1.142  c0.203-0.245,3.41-2.215,3.791-2.703c0.381-0.489,0.707-1.306,1.086-2.012c0.383-0.705,0.762-1.195,1.28-1.794  c0.517-0.597,1.875-1.251,2.96-2.282c1.087-1.033,0.654-1.195,1.398-2.5c0.747-1.305,0.613-1.794,0.993-2.283  c0.381-0.488,0.543-0.978,0.87-1.141c0.327-0.162,0.544-1.306,0.762-1.633c0.218-0.325,0.434-0.758,0.874-1.303  C278.1,245.886,277.599,245.399,277.651,244.798z" id="5" name="لنجان"/>
<path fill="#E8D0E5" stroke="#010101" stroke-width="0.2" stroke-miterlimit="10" d="M312.223,249.366  c-0.468-0.681-1.956-1.088-2.61-1.414c-0.652-0.326-2.281-0.979-2.824-1.521c-0.544-0.545-0.872-0.871-1.415-1.522  c-0.543-0.654-1.415-0.872-2.175-1.055c-0.76-0.187-1.303-1.337-2.065-2.206c-0.623-0.713-1.678-1.563-2.219-1.971  c-0.652,0.391-1.238,0.732-1.369,0.775c-0.326,0.109-0.597,0.109-1.194,0.544s-0.489,0.325-0.814,0.651  c-0.325,0.326-0.708,0.435-0.708,0.435s-0.759,0.382-0.978,0.545c-0.217,0.161-1.413,1.157-1.413,1.157s-0.87,0.363-1.141,0.419  c-0.271,0.054-0.599,0.162-1.087-0.056c-0.489-0.217-0.705-0.054-1.25-0.054c-0.543,0-0.435,0.216-0.707,0.435  c-0.271,0.22-1.086,0.816-1.74,1.088c-0.65,0.271-0.65,0.271-1.738,0.325c-1.086,0.054-1.415-0.325-2.065-0.652  c-0.654-0.325-1.794-0.924-2.338-1.277c-0.544-0.353-0.707-0.19-0.707-0.19l-2.123,0.23c0.08,0.243,0.134,0.495,0.109,0.746  c-0.052,0.6,0.448,1.088,0.007,1.633c-0.44,0.543-0.658,0.979-0.874,1.303c-0.216,0.328-0.435,1.467-0.762,1.633  c-0.327,0.164-0.489,0.652-0.87,1.142c-0.381,0.489-0.246,0.978-0.993,2.282c-0.746,1.304-0.311,1.467-1.398,2.501  c-1.085,1.032-2.443,1.685-2.96,2.281c-0.518,0.597-0.897,1.088-1.28,1.794c-0.379,0.707-0.705,1.522-1.086,2.012  c-0.383,0.489-3.588,2.458-3.791,2.703c-0.205,0.244-1.264,0.691-1.917,1.142c-0.652,0.448-1.426,0.978-1.998,1.305  c-0.571,0.325-1.426,1.02-1.751,1.346c-0.326,0.326-0.937,1.061-1.222,1.345s-1.223,1.345-1.794,1.59  c-0.273,0.117-0.697,0.281-1.146,0.459c1.256,1.698,2.829,2.901,4.564,3.396c4.211,1.202,10.127,5.946,11.943,9.58  c0.144,0.291,0.284,0.634,0.42,1.014c0.437-0.104,0.896-0.229,1.425-0.426c1.956-0.733,1.71-0.897,2.77-1.632  c1.062-0.732,1.467-1.385,1.712-1.55c0.244-0.162,2.283-1.549,4.322-2.608c2.039-1.06,1.956-0.979,2.935-1.713  c0.978-0.732,2.2-0.978,3.832-1.792c1.63-0.816,2.936-2.039,3.914-2.61c0.978-0.568,2.038-1.303,3.097-2.281  c1.062-0.978,1.55-1.467,2.445-2.121c0.898-0.65,1.223-1.63,1.55-2.364c0.129-0.293,0.115-0.547,0.047-0.797  c-0.101-0.379-0.324-0.752-0.375-1.242c-0.082-0.816-0.489-2.283-0.327-3.016c0.166-0.734,0.654-0.979,1.144-1.549  c0.489-0.572,1.141-1.633,1.141-2.773c0-1.142-0.897-0.896-1.794-1.388c-0.896-0.488-1.956-1.875-1.71-2.444  c0.244-0.571,0.814-0.245,1.387-0.489c0.571-0.245,2.281-0.652,3.83-0.816c1.55-0.163,2.528-0.081,4.322-0.243  c1.794-0.165,2.528-0.815,2.934-0.978c0.409-0.164,1.305-0.408,2.283-0.489c0.459-0.039,0.971,0.069,1.436,0.21  C312.725,249.89,312.399,249.623,312.223,249.366z" id="9" name="مبارکه"/>
<path fill="#FBD0D1" stroke="#010101" stroke-width="0.2" stroke-miterlimit="10" d="M433.679,311.718l0.06-0.531  c0.025-0.237,2.505-23.414,2.505-26.66c0-1.115,0.088-5.396,0.211-10.904c-1.314,0.146-3.498,0.396-4.873,0.563  c-2.064,0.25-3.26,0.075-4.131-0.048c-0.87-0.122-3.151,0.232-4.676-0.095c-1.521-0.325-4.781,0.327-5.436,0  c-0.652-0.325-3.588-1.521-3.588-1.521s-3.479,0-3.806,0c-0.323,0-4.456,0-4.456,0l-2.936-0.545c0,0-5.217-1.522-5.544-1.632  c-0.327-0.108-4.24-2.174-5.108-2.718c-0.872-0.542-3.263-1.196-4.208-1.521c-0.945-0.327-1.118-0.327-3.838-1.74  c-2.72-1.414-2.717-0.652-3.044-0.762c-0.326-0.109-3.805-0.543-3.805-0.543s-2.281-0.652-2.935-1.195  c-0.652-0.545-1.522-0.979-2.391-1.74c-0.871-0.761-2.066-0.978-4.348-1.956c-2.012-0.861-1.999-0.881-2.935-1.84  c-0.126-0.129-0.268-0.274-0.437-0.442c-1.413-1.413-0.652-0.218-2.175-1.304c-1.522-1.088-3.586-2.719-4.24-3.371  c-0.652-0.65-3.26-0.544-5.326-1.086c-2.065-0.544-0.434-0.978-0.491-1.521c-0.057-0.543,0.818-0.763,1.578-2.066  c0.763-1.303,0.543-1.521,0-1.955c-0.543-0.436-1.414,0.217-3.479,0c-2.065-0.218-4.023-1.304-5.436-1.631  c-1.413-0.327-2.283-0.979-2.61-1.195c-0.149-0.102-0.945-0.473-1.767-0.848c-0.104,0.15-0.222,0.307-0.352,0.467  c-1.06,1.305-1.222,1.305-2.608,2.445s-3.262,1.631-3.997,1.955c-0.732,0.326-0.978,0.489-1.63,1.633  c-0.652,1.141-0.327,1.141-1.467,2.444c-1.142,1.305-1.794,2.038-1.794,2.038l-0.896,1.793c0,0-1.385,0.979-1.548,1.061  c-0.162,0.08,0.489,0.08-0.978,0c-0.097-0.006-0.182-0.012-0.275-0.019l0.473,1.603c1.405,2.331,2.329,3.146,2.329,3.146  s0.326,1.63,0,2.119c-0.325,0.489-0.814,0.816-0.325,2.446c0.489,1.631,0.816,1.794,1.467,2.608c0.651,0.816,1.63,1.632,1.956,2.772  c0.325,1.142,0.327,1.794,0,2.936c-0.327,1.143-0.654,1.303-0.816,2.771c-0.163,1.467-1.548,1.794-0.163,3.098  c1.387,1.305,1.141,2.121,1.467,3.099c0.327,0.979,0.978,1.958-0.162,3.261c-1.143,1.304-0.654,2.61-1.794,4.404  c-1.142,1.792-2.445,3.978-3.181,4.432c-0.732,0.458-0.732,2.577-1.387,3.394c-0.652,0.813,0.165,3.913,0.165,3.913  s0.07,1.791,0.443,2.281c0.371,0.491,1.343,1.793,2.651,3.1c1.308,1.305,3.087,2.374,3.747,2.981  c0.659,0.604,1.962,0.114,3.269,1.421c1.303,1.305,1.141,0.652,2.281,1.794c1.141,1.14,3.588,2.119,4.077,3.425  c0.489,1.302,1.142,1.955,1.792,3.261c0.652,1.303,2.718,1.717,2.989,2.487c0.273,0.771,2.394,2.075,2.067,2.404  c-0.327,0.326,0.651,1.79,1.63,2.77c0.98,0.979,1.634,1.793,1.956,3.101c0.149,0.599,0.402,1.508,0.633,2.317  c0.167,0.004,0.332,0.005,0.499,0.014c3.665,0.182,6.659,1.661,8.896,4.396c7.42,9.069,14.643,10.427,18.284,10.427  c4.171,0,19.51,0.802,20.164,0.839l0.286,0.046c0.141,0.04,13.863,3.999,21.692,0.084c7.497-3.747,16.717-3.024,19.315-2.722  l10.57-12.077L433.679,311.718z" id="19" name="جرقویه"/>
<path fill="#FDFAD4" stroke="#010101" stroke-width="0.2" stroke-miterlimit="10" d="M349.454,326.653  c-0.978-0.979-1.956-2.445-1.63-2.771c0.325-0.327-1.794-1.632-2.067-2.403c-0.27-0.771-2.337-1.185-2.988-2.489  c-0.654-1.304-1.305-1.958-1.794-3.26c-0.489-1.305-2.934-2.283-4.077-3.424c-1.142-1.144-0.978-0.489-2.281-1.794  c-1.305-1.306-2.61-0.814-3.269-1.422c-0.659-0.606-2.44-1.676-3.747-2.98c-1.308-1.306-2.278-2.61-2.651-3.098  c-0.371-0.492-0.443-2.283-0.443-2.283s-0.816-3.101-0.166-3.913c0.654-0.816,0.654-2.936,1.387-3.394  c0.734-0.455,2.04-2.64,3.181-4.432c1.141-1.794,0.652-3.101,1.794-4.402c1.14-1.306,0.489-2.283,0.162-3.263  c-0.327-0.979-0.082-1.793-1.467-3.1c-1.387-1.303,0-1.629,0.164-3.097c0.164-1.469,0.489-1.631,0.816-2.772  c0.327-1.14,0.327-1.792,0-2.936c-0.327-1.142-1.305-1.956-1.956-2.771c-0.653-0.814-0.978-0.979-1.467-2.608  c-0.489-1.631,0-1.956,0.327-2.446c0.324-0.489,0-2.12,0-2.12s-0.925-0.814-2.33-3.145l-0.473-1.603  c-1.282-0.089-1.982-0.249-2.743-0.553c-0.816-0.327-2.119-1.144-2.526-1.387c-0.407-0.245-1.06-0.897-1.876-1.224  c-0.816-0.324-2.526-0.814-3.016-0.978c-0.26-0.087-0.729-0.286-1.256-0.443c-0.466-0.14-0.976-0.247-1.436-0.21  c-0.978,0.082-1.876,0.328-2.283,0.49c-0.405,0.163-1.142,0.815-2.934,0.978c-1.792,0.161-2.771,0.08-4.321,0.243  c-1.55,0.164-3.261,0.572-3.832,0.816c-0.572,0.245-1.143-0.082-1.387,0.488c-0.245,0.571,0.814,1.957,1.71,2.445  c0.898,0.489,1.794,0.246,1.794,1.387c0,1.142-0.652,2.203-1.141,2.773c-0.489,0.569-0.978,0.816-1.144,1.549  c-0.162,0.732,0.246,2.201,0.327,3.016c0.049,0.491,0.273,0.865,0.375,1.243c0.239,0.104,0.43,0.209,0.496,0.308  c0.216,0.327,0.761,0.76,1.087,1.74c0.327,0.978,0.869,1.522,1.413,2.718c0.544,1.197,1.087,1.738,1.522,2.827  c0.434,1.086,1.087,1.305,1.522,1.631c0.435,0.327,1.195,0.544,1.63,1.522c0.434,0.978,1.305,1.63,1.305,1.63  s1.413,1.956,1.305,2.935c-0.11,0.98,0.662,1.85,0.005,2.394c-0.659,0.543,0.435,1.738,0.267,2.064  c-0.166,0.325,0.638,0.87,0.02,1.414c-0.618,0.541,0.359,1.52,0.687,1.848c0.326,0.326,1.086,0.434,0.978,1.196  c-0.109,0.76-0.219,1.412-0.978,2.065c-0.762,0.652-1.089,1.086-1.85,1.739c-0.76,0.651-0.87,1.302-0.544,1.847  c0.327,0.545,1.087,1.197,1.632,2.175c0.543,0.979,1.759,5.437,1.75,6.634c-0.01,1.195,0.337,1.519,0,2.825  c-0.337,1.304,0.098,1.413-0.554,3.261c-0.652,1.849-0.544,1.304-0.978,3.153c-0.435,1.848-0.109,2.826-0.654,3.803  c-0.543,0.976-0.217,1.196-1.303,1.632c-1.087,0.435-3.043-0.216-4.35,0.435c-1.303,0.652-3.478,0.872-4.782,1.306  c-1.303,0.433-2.718,0.652-3.696,0.869c-0.669,0.147-1.393,0.099-2.268,0.151c0.28,0.299,0.561,0.603,0.855,0.938  c1.521,1.74,2.173,2.608,3.259,4.131c1.089,1.522,2.177,2.608,3.045,3.913c0.868,1.306,1.956,2.174,3.043,3.261  c1.086,1.086,1.956,0.653,2.391,3.262c0.435,2.609,2.391,3.695,0,4.999c-2.391,1.305-3.479,1.087-3.261,3.261  c0.217,2.175,0.872,4.131,1.956,6.089c1.087,1.955,1.464,3.261,2.473,4.999c1.007,1.74,1.223,3.045,2.746,4.565  c1.522,1.522,1.089,2.395,3.698,2.61c2.608,0.218,2.608,1.086,5.001,0c2.391-1.086,3.884-1.756,3.884-1.756l-0.056-0.355  l0.137-0.328c0.281-0.663,6.846-16.186,11.156-20.496c2.769-2.768,11.334-8.646,19.263-8.501c-0.23-0.807-0.482-1.716-0.633-2.317  C351.088,328.445,350.433,327.633,349.454,326.653z" id="8" name="شهرضا"/>
</svg>