<svg xmlns="http://www.w3.org/2000/svg" width="282.25mm" height="151.77mm" viewBox="0 0 800.09 430.22">
  <defs>
    <style>
      .a {
        /*fill: #add136;*/
        stroke-width: 2px;
		fill: #7c7c7c;
      }

      .a, .b {
        stroke: #fff;
        stroke-miterlimit: 10;
      }

      .b {
        fill: #231f20;
      }
    </style>
  </defs>
  <title>level 5 tehran province districts</title>
  <g>
    <path class="a" d="M260.47,155.27,268.3,159l10.47,6.36,3.8,5.26,3.85,2-3.73,9.21-2.84,2.52-2,4.6,1.45,1.61-.26,4.21-8.88,5.59-4.11,2.17-2.54,3.58-6.46.43-.29,5.34-7.9,3.41L247,212.08l.24-2.76-1.6-6.39v-6l-1.39-1.29L240.7,185.4l-.37-9.58-1.35-10,.65-3.13-3.43-3.39,2.35-2.92,7.82,5,5.61-3,1.68,3.08,6.12-2Z" transform="translate(0.02 0.18)" id="7" name="اسلامشهر"/>
    <path class="a" d="M222.71,192.89l1.49-.86,2.48-6.47h1.5l5.73-3.84,2-3.09,4.47-2.8.37,9.58,3.57,10.25,1.39,1.29v6l1.6,6.39-.24,2.76,1.84,3.18-.17,1.25-4.37-1.09-6.39,3.88-5.54-.64-1.15-1.7-.22-8.33-2.4,1.05-2.6-3.43,3.24-5.14-5.62-5.1Z" transform="translate(0.02 0.18)" id="13" name="بهارستان"/>
    <path class="a" d="M387,115,385,118.23l-.85,6.84,2.13,6.93-2.43,5.09,5.3,10.72,2.4,2.87-1.12,14.16-5.74-2.79-8.51-2.42L371,160l-2.07,2.74.11,9.14-7.39-.34L354.22,176l-4.16-1.06L342.59,178l-4.71.67-3-1.92-11.31-1-1-6.5-5.31-4.21-6.37,1.68-2.69,2.39L303,171l-1.9,11,6.5,2.15L304,188.38l-2.09-1,.92,9L296.07,198l-4.36-3.12-1.86,2.47-3.64-1.52-3.15,2.87-6,3.75-6.91-2.07,8.88-5.59.26-4.21-1.45-1.61,2-4.6,2.84-2.52,3.73-9.21-3.85-2-3.8-5.26L268.3,159l-7.83-3.68-3.43-1.6-2.22-2.76.28-4.53-10.19-5-9.58-3.61-6.71-3.2-4.36-5.33L215.7,126l.65-6.94,4-2.18,2.47-5.33-1.09-9.92L219.5,93l3.94-5.3,1.89-4.06L240.26,64.8l.52-3.89-8.07-18.25.2-5.84,15.68,5,12.12,5.31,4.6.73,15.35,10.43,8.43,5.31,6.82.32-1.45,2.28-1.58,7.65-2.22,17.29L288,101.42,285.36,103l-2.47,5.45,1.36,4.79,3.58-2,3,.28,5.12-2.36,6.95-1,4.33,1,3.08,4.25,2.57-2,7.38-3,7.81,2.45,6.47,1.22,12.38,4.27,2.4-5.37,1.82,4.13,6.12-2.72,4-3.54,4,.5,6.75,4,5.6-4.29,2.71.66,1.62,3.74,4.31-1.55Z" transform="translate(0.02 0.18)" id="1" name="تهران"/>
    <path class="a" d="M566.3,253.13l-2.5-3.86-12.33-13.72L545,230.47l-5.73-1.73L527.75,227l-13.36-3.36-5.56-.33-3.45,1.94-11.69,1.61-7.46-2.78-9.31-9.63-3.72-6.64,2.2-11.47-.6-3.35-6.75-9.22-7.86-.87-8,6.73-1.73,4.42-.55,14.61,2.16,5.35-3.57-2.67L444.82,205l-4.1-10.31L435,186.84l-6-1.12-2.64-1.6-7.08-.12,4.77-3.8,4.2-5.07,3.31-8.93,1.53-7.8L435.6,152l1.69-6.84,2.23-5,.05-4,2.35-2.76-1.84-2.59,3.05-5.9-2.37-4.6-14.48-14,3.15-2.55,2.88-10.64,8-17.55,3-4.48,8,13L460,93.83l9.25,13.88,7.23,4.25,11.82,5.49,15.11-1.12,22.06-.35,12.11,1,5.84-4.74,7.86,4.36,4.55,4.06,10.37,1.83,30.32,9.44,11.71,2.22,7.14,3.31,12.5.21,1.73,2.42-3.48,14.82-7.86,13.33-2.52,3.37-9.87,9L602.77,185l-5.5,12.79-4.09,7.59-3.72,18.3-15.52,17.42-4.48,8.25Z" transform="translate(0.02 0.18)"  id="2" name="دماوند"/>
    <path class="a" d="M180,230.92l-1.66-3.29-13.87-7.49-5.82-5.09-3.56-3,14.16-11.67,3.54-4.61,7.69-3.77,11.21-2.83,5-1.81,4.43-4.59,1.74,5.57,3.83,1.45,3.07,3.54,3.2-1.55,9.77,1.09.93,3.12,5.62,5.1L226,206.25l2.6,3.43,2.4-1.05.22,8.33,1.15,1.7,5.54.64,6.39-3.88,4.37,1.09,3.5,4.27,1.14,5.07-1.79,7.22-4.06,2.37-2.08,4.29-22.9-10.81-8.65-3.85-6.06,5.86-10.1,7.13-8-.79-5.2-4.61Z" transform="translate(0.02 0.18)"  id="8" name="رباط کریم"/>
    <path class="a" d="M369,171.9l.86,10.2,2.49,5.6-.57,10,4.48,1.5.21,2.22-3.73,3.9-2.76,1-5.26-2.76-6.39-6.13-2.61,6.07.32,1.82-1.18,14.12-1.44,4.92-8.62-.52-2.43,1.53,4,5.5-6.05,3.45-5.57,2.21-1.42,4.13-3.85,3.74.08,8.25L327,258.57l-.6,6.68-4.14,14.9-4,1.64.43,3.91,5.55,2.15.83,1.72,8.16,3.05,5,4.67,3,8.42L344.19,332l-.35,2.5-10.43,4.18-5.68,4.39-9.34,4.26-1.94,3-14.33-4.15-10.43-.35-9.57-5.68-4.95-1.53-11.87-6.28-6.44-1.91-7.08-2.94-12.26-2.68-8.87-4.62h-4l-5.75-3.82-4.4-.48-16.89-6.28-12.38-1.43-2.59-1.15-20.49.33-11.28,1.3-7.93-.29,3.51-13.18,5.93-9.81,4.77-6.42,3.78-8.6,11.48-18.85,5.09-5.1-1.09-7.95.19-6.51,1.37-1.1,4.51,1.74,5.2,4.61,8,.79,10.1-7.13,6.06-5.86,8.65,3.85,22.9,10.81,2.08-4.29,4.06-2.37,1.79-7.22-1.14-5.07-3.5-4.27.17-1.25,7.9-3.41.29-5.34,6.46-.43,2.54-3.58,4.11-2.17,6.91,2.07,6-3.75,3.15-2.87,3.64,1.52,1.86-2.47,4.36,3.12,6.72-1.59-.92-9,2.09,1,3.67-4.23-6.5-2.15,1.9-11,5.15-1.83,2.69-2.39,6.37-1.68,5.31,4.21,1,6.5,11.31,1,3,1.92,4.71-.67,7.47-3.08,4.16,1.06,7.38-4.43Z" transform="translate(0.02 0.18)"  id="4" name="ری"/>
    <path class="a" d="M443.35,71.21l-3,4.48-8,17.55-2.88,10.64-3.15,2.55-4.77,3.21.05,7.11-3.64,3.69-2.5.37-2.87-7.08-7.5-.61-3.65,1.8-12-1.5L387,115l-.77-3.1L382,113.46l-1.62-3.74-2.71-.66-5.6,4.29-6.75-4-4-.5-4,3.54-6.12,2.72L349.28,111l-2.4,5.37-12.38-4.27L328,110.85l-7.81-2.45-7.38,3-2.57,2-3.08-4.25-4.33-1-6.95,1-5.12,2.36-3-.28-3.58,2-1.36-4.79,2.47-5.45,2.67-1.62,2.63-10.33,2.22-17.29,1.58-7.65,1.45-2.28,2.87-1.79,2.35-3.49,4.74-10.93,6-10.21,3.25-2.85,4.09-6.28,1.43-.36,6.1-8.44,6.07-5.31L337.25,9l8.42-8,9.49,4,3.54,2.33,15.79,8.32,4.05-.17,8.35,3.89,2-.72,3.7,6.27,2.72,2.43L411.11,48,423.88,59.3l11.59,3.63Z" transform="translate(0.02 0.18)"  id="5" name="شمیرانات"/>
    <path class="a" d="M244.91,141.4l10.19,5-.28,4.53,2.22,2.76,3.43,1.6-.69,4.13-6.12,2L252,158.34l-5.61,3-7.82-5-2.35,2.92,3.43,3.39-.65,3.13,1.35,10-4.47,2.8-2,3.09-5.73,3.84h-1.5L224.2,192l-1.49.86-9.77-1.09-3.2,1.55-3.07-3.54-3.83-1.45-1.74-5.57-4.43,4.59-5,1.81L180.45,192l-7.69,3.77-3.54,4.61-14.16,11.67-6.36-3.44L144.84,203l-.77-5-1.94-1.63,2-3.44-1.71-1.85.69-5.77,4-2.23,13-4.61,7.46-3.08,9.64-1.55,1.7-2.47,9.16-6.37-.45-5.26,1.67-3.4-.49-6.81,2.06-6.73-4.56-2.61,2.22.28,4.12-6.51,3.27-3.51L199.6,133l2.25,7.79,5.66,2,6.21-1.08,1.67,1.88,8.52,6L235.32,154Z" transform="translate(0.02 0.18)"  id="6" name="شهریار"/>
    <path class="a" d="M543.46,112.21l6.19-7.57,5.89-4.5,23.5-11,7.51-4.39,11.11-5.07,9.49-3.14,15.6-7.66,2.49-.39,11-6.08h2.2l19.77-4,2.86,0,10.54,3.26,25.69,13.23,9.19,5.4,4.29,5.13L717,88.37l6.2,6,4.31,3.19,5.58,1.29,4.46-.48,9-3.69,4.72-1.06,4.63-2.8,3.85-3.47,1.26,1.25-.4,5,3.23,3.08L768.21,99l9.74.68,13.27-.87,7,3.18.79,5.3-2.59,2.51-3.85,1.45-6.6,4.14-6.21,9.64-7.16,4-5,5.1-3,1-6.24,5.19-3,6.06-4.87,3.66-15.55,6-8.64,4.72-6.21,5.48-13.35,15.58-8.17,11-5.35,2.89-4.55-2-14.06-3L669.38,192l-7.07,4.42L652.42,207,645,221.15l-13.75,17.28-7.54,5.47-12.1,5.37-20.26,6.91-11,9.68-4-1.05-8.09-8.63-2-3.05,3.16-3.76,4.48-8.25,15.52-17.42,3.72-18.3,4.09-7.59,5.5-12.79,3.14-4.42,9.87-9,2.52-3.37,7.86-13.33,3.48-14.82-1.73-2.42-12.5-.21-7.14-3.31-11.71-2.22-30.32-9.44-10.37-1.83-4.55-4.06Z" transform="translate(0.02 0.18)"  id="9" name="فیروزکوه"/>
    <path class="a" d="M244.91,141.4,235.32,154l-11.41-4.42-8.52-6-1.67-1.88-6.21,1.08-5.66-2L199.6,133,196,130.47,192.72,134l-.51-1,4.29-5.91,7.27-.06,3.39,1.76,6.33.19L215.7,126l8.56,3.23,4.36,5.33,6.71,3.2Z" transform="translate(0.02 0.18)"  id="12" name="قدس"/>
    <path class="a" d="M329.55,252.63l-.08-8.25,3.85-3.74,1.42-4.13,5.57-2.21,6.05-3.45-4-5.5,2.43-1.53,8.62.52,8.1-.66,6,1.57,2,6.27-1,7.92-1.87,3.41-7.07,7-4.63,2.2-8.25-.19-9.82,2.4Z" transform="translate(0.02 0.18)"  id="15" name="قرچک"/>
    <path class="a" d="M380.54,247.41l-8.25,7.81.39,2.4,7.38,9,2.12,6.52-4.24,2.49-.27,6.16,2.3,5.68,10.14-2.37,4.41.11,18.22,2.3,10.37-.1,9.82.58,2.12,1,2.26,6.71,5.18,7.18L453.1,321l3.92,9.09,5,5.35,10.76,7.84,7.7,9,2.36,6.3.47,7.74-1.18,11.84-4,15.17-5.66,16.89-4.63,7.62-5.74,10.68-8.4-6.2-7.87-4.07-22.15-13.64-5.42-3.91-9.94-5.8L396,384.9l-6.76-2.57-9-1-6.94-1.95-5.19.1-5-1-7.6-5-14.58-17-1.73-.86-22.66-5.21,1.94-3,9.34-4.26,5.68-4.39,10.43-4.18.35-2.5-2.93-26.31-3-8.42-5-4.67-8.16-3.05-.83-1.72-5.55-2.15-.43-3.91,4-1.64,4.14-14.9.6-6.68,2.53-5.94,7.31,1.63,9.82-2.4,8.25.19,4.63-2.2,7.07-7,1.87-3.41Z" transform="translate(0.02 0.18)"  id="3" name="ورامین"/>
    <path class="a" d="M452.06,214l-4.44,21.63-.23,4.22,2.27,2.59,1.34,8.06,3.77,2.38,1.45,4.93-2.72,5-4.63-.48-.38,3-2.91,6.51-6.13,8.8-7.15-3.91-12.25-9.2-8.3-7.4.82-1.94-8.55-5.9-10.84-2.4-4.32,2-8.32-4.45-12-8,1-7.92-2-6.27-6-1.57-8.1.66,1.44-4.92L356,205.3l-.32-1.82,2.61-6.07,6.39,6.13L370,206.3l2.76-1,3.73-3.9-.21-2.22-4.48-1.5.57-10-2.49-5.6L369,171.9l-.11-9.14L371,160l5.18-.39,8.51,2.42,5.74,2.79,3.83,2.11,7,6.78,5.54,6.74,5.6,4.44,2.6.9,4.28-1.81,7.08.12,2.64,1.6,6,1.12,5.77,7.84,4.1,10.31,3.67,6.36Z" transform="translate(0.02 0.18)"  id="10" name="پاکدشت"/>
    <path class="a" d="M426.28,106.43l14.48,14,2.37,4.6-3.05,5.9,1.84,2.59-2.35,2.76-.05,4-2.23,5L435.6,152l-2.53,6.39-1.53,7.8-3.31,8.93L424,180.2l-4.77,3.8L415,185.81l-2.6-.9-5.6-4.44-5.54-6.74-7-6.78-3.83-2.11,1.12-14.16-2.4-2.87-5.3-10.72,2.43-5.09-2.13-6.93.85-6.84L387,115l2.33-1.59,12,1.5,3.65-1.8,7.5.61,2.87,7.08,2.5-.37,3.64-3.69-.05-7.11Z" transform="translate(0.02 0.18)"  id="16" name="پردیس"/>
    <path class="a" d="M439.45,280.6l-4.81,6.07.41,2.29-2.12-1-9.82-.58-10.37.1-18.22-2.3-4.41-.11L380,287.48l-2.3-5.68.27-6.16,4.24-2.49-2.12-6.52-7.38-9-.39-2.4,8.25-7.81,8.32,4.45,4.32-2,10.84,2.4,8.55,5.9-.82,1.94,8.3,7.4,12.25,9.2Z" transform="translate(0.02 0.18)"  id="14" name="پیشوا"/>
  </g>
  <g>
    <polygon class="b" points="299.49 144.56 299.49 144.56 299.49 144.56 299.49 144.56 299.49 144.56"/>
    <polygon class="b" points="312.55 175.83 312.55 175.83 312.55 175.83 312.55 175.83 312.55 175.83"/>
    <polygon class="b" points="420.41 127.96 420.41 127.96 420.41 127.96 420.41 127.96 420.41 127.96"/>
    <polygon class="b" points="213.12 215.24 213.12 215.24 213.12 215.24 213.12 215.24 213.12 215.24"/>
    <polygon class="b" points="690.71 121.53 690.71 121.53 690.71 121.53 690.71 121.53 690.71 121.53"/>
    <polygon class="b" points="491.38 134.6 491.38 134.6 491.38 134.6 491.38 134.6 491.38 134.6"/>
    <polygon class="b" points="183.39 152.35 183.39 152.35 183.39 152.35 183.39 152.35 183.39 152.35"/>
    <polygon class="b" points="381.81 218.67 381.81 218.67 381.81 218.67 381.81 218.67 381.81 218.67"/>
    <polygon class="b" points="372 269.39 372 269.39 372 269.39 372 269.39 372 269.39"/>
    <polygon class="b" points="350.42 230.07 350.42 230.07 350.42 230.07 350.42 230.07 350.42 230.07"/>
    <polygon class="b" points="394.41 277.13 394.41 277.13 394.41 277.13 394.41 277.13 394.41 277.13"/>
    <polygon class="b" points="235.72 188.87 235.72 188.87 235.72 188.87 235.72 188.87 235.72 188.87"/>
    <polygon class="b" points="205.89 155.08 205.89 155.08 205.89 155.08 205.89 155.08 205.89 155.08"/>
    <polygon class="b" points="254.88 193.53 254.88 193.53 254.88 193.53 254.88 193.53 254.88 193.53"/>
    <polygon class="b" points="220.44 133.75 220.44 133.75 220.44 133.75 220.44 133.75 220.44 133.75"/>
    <polygon class="b" points="314.01 104.43 314.01 104.43 314.01 104.43 314.01 104.43 314.01 104.43"/>
    <polygon class="b" points="311.88 103.5 311.88 103.5 311.88 103.5 311.88 103.5 311.88 103.5"/>
  </g>
</svg>