<?xml version="1.0" encoding="UTF-8"?>
<!-- Generator: Adobe Illustrator 16.0.0, SVG Export Plug-In . SVG Version: 6.00 Build 0)  -->
<!DOCTYPE svg PUBLIC "-//W3C//DTD SVG 1.1//EN" "http://www.w3.org/Graphics/SVG/1.1/DTD/svg11.dtd">
<svg version="1.1" id="Layer_1" xmlns="http://www.w3.org/2000/svg" xmlns:xlink="http://www.w3.org/1999/xlink" x="0px" y="0px" width="847.67px" height="452px" viewBox="0 0 847.67 452" enable-background="new 0 0 847.67 452" xml:space="preserve">
<g>
	<path stroke="#020202" stroke-width="2" stroke-miterlimit="10" d="M446.949,196.027   c-0.131-0.39-1.427-0.778-1.427-0.778s-0.906-1.944-2.459-2.332c-1.562-0.39-1.171-0.775-2.723-0.775   c-1.553,0-4.016-2.202-4.536-4.406c-0.525-2.202-1.607-6.348-1.607-6.348s-1.251-0.257-1.897-1.036   c-0.65-0.778-4.405-4.273-5.697-4.924c-1.297-0.646-2.599-2.85-3.249-3.627c-0.646-0.773-2.458-1.296-3.104-1.687   c-0.65-0.39-2.463-1.296-2.463-2.459c0-1.163,0-1.423,0.646-2.459c0.651-1.036,0.917-2.722,0.566-3.627   c-0.341-0.906-0.176-1.941-0.04-2.592c0.135-0.646-0.136-0.646-0.005-1.941c0.125-1.298-1.297-6.482-1.563-7.26   c-0.26-0.776-0.516-1.554-1.662-4.146c-1.151-2.589-0.02-3.24-0.146-4.018c-0.13-0.778,0.386-2.85,0-4.273   c-0.074-0.268-0.17-0.42-0.3-0.498c-0.561-0.328-1.763,0.811-4.506,0.498c-3.364-0.39-3.62-1.296-3.62-1.296s-4.155,0.778-6.613,0   c-2.463-0.778-4.801-1.036-4.801-1.687s0.26-1.423,0-2.204c-0.261-0.778-0.651-0.127-1.688-1.038   c-1.036-0.908-2.979-1.554-2.979-1.554s-1.948,0.255-2.719,0c-0.776-0.26-1.688-1.296-1.688-1.296l-3.369-2.332   c0,0-0.391,0.908-0.646,1.296c-0.261,0.391-0.917,2.85-1.558,4.146c-0.65,1.296-1.302,2.722-1.562,3.11   c-0.261,0.39-2.333,1.036-4.146,0.775c-1.817-0.258-1.297-0.908-2.333-1.816c-1.041-0.906-2.594,0.13-6.874-1.291   c-4.275-1.423-2.594-0.127-3.76-0.906c-1.161-0.778-4.146,0.127-4.536-0.127c-0.391-0.258-2.854-0.127-4.801-1.296   c-1.942-1.168-3.5,0-3.891,0c-0.385,0-1.687,1.168-3.369,1.556c-1.687,0.39-3.63,2.069-3.63,2.069s-1.031-0.646-1.812-1.684   c-0.776-1.036-0.906-0.908-1.817-1.554c-0.906-0.646-2.068,0-2.068,0s-2.077,0-3.76-0.646c-1.687-0.646-2.983-0.39-4.41-1.036   c-1.417-0.646-2.068,0-2.068,0s-1.427-0.26-2.208-0.906c-0.775-0.646-1.166-0.778-2.593-0.908   c-1.422-0.128-1.942,0.908-1.942,0.908l-0.776,0.906c0,0-0.775,0-1.562-0.906c-0.771-0.908-0.516-0.778-1.182-1.814   s-0.11-0.778,0-1.687c0.104-0.905-0.11-1.559,0.671-2.459c0.775-0.906,0.906-1.814,1.166-2.592c0.266-0.78,0.391-2.332,0.911-3.367   c0.521-1.041,1.558-3.5,1.558-3.5s1.166-4.016,2.448-4.186c1.286-0.167,2.348-2.68,4.17-3.715c1.813-1.039,2.589-2.074,2.589-2.074   s0,0-1.037-1.559c-1.036-1.551-4.926-2.847-6.479-4.146c-0.86-0.716-3.429-2.027-5.552-3.058c-8.631,2.562-19.08,0.533-27.24-1.051   c-1.942-0.38-3.825-0.748-5.598-1.041c-10.559-1.771-18.674,5.284-28.036,13.455c-2.408,2.086-4.841,4.218-7.379,6.252   c-6.519,5.227-9.447,12.179-12.536,19.542c-1.042,2.49-2.108,5.012-3.319,7.526c1.142,0.653,2.317,1.293,2.938,1.519   c1.427,0.518,2.333,2.202,2.333,2.202s2.849,1.944,3.5,2.205c0.646,0.26,2.202,1.296,2.723,1.423   c0.517,0.127,2.459,1.036,3.239,1.426c0.776,0.388,1.948,1.296,2.724,1.813c0.771,0.518,2.333,2.459,3.369,3.238   c1.032,0.778,2.719,2.069,4.016,2.722c1.297,0.65,3.76,2.334,5.312,3.345c1.563,1.013,4.281,0.928,7.525,1.967   c0.596,0.19,1.081,0.36,1.472,0.513c1.757,0.675,1.808,1.056,2.543,1.691c0.911,0.778,4.155,1.423,4.802,1.814   c0.646,0.39,2.854,3.755,2.854,3.755s0.2,0.343,0.48,0.82c0.48,0.788,1.187,1.932,1.597,2.422c0.646,0.776,1.037,1.687,1.428,1.944   c0.38,0.26,0.646,0.778,3.104,2.202c2.463,1.426,1.172,0.646,3.5,1.426c2.333,0.778,2.598,1.168,3.374,1.556   c0.776,0.39,1.557,1.168,2.979,1.687c1.427,0.518,2.464,1.036,4.021,1.423c1.552,0.391,2.854,0.776,3.89,1.554   c1.036,0.778,3.109,2.72,3.886,4.146c0.78,1.424,1.296,2.459,2.077,2.847c0.776,0.391,1.297,0.908,2.203,1.299   c0.911,0.388,3.63,0.906,4.541,1.556c0.906,0.65,0.775,2.204,0.775,2.587c0,0.39-0.26,0.781-0.26,1.559   c0,0.778-0.261,1.814-0.391,2.332c-0.125,0.518-0.646,0-0.646,0s-1.166,0.127-2.338,0.388c-1.161,0.263-2.202,0.518-2.202,0.518   l-1.942,0.646l-1.943,1.041l-0.39,2.982l-0.391,0.908c0,0-2.594,2.719-4.276,2.719c-1.687,0-2.723,2.332-2.723,2.332   s-1.813,2.592-2.328,2.719c-0.526,0.13-2.073,2.722-2.208,3.628c-0.125,0.908,0,1.814,0,1.814s1.036,0.908,2.333,1.426   c1.297,0.518,3.239,1.686,4.15,1.941c0.535,0.152,0.851,0.303,1.281,0.297c0.301-0.005,0.651-0.083,1.177-0.297   c1.297-0.518,2.203-0.518,2.854-0.908c0.651-0.388,2.724-1.296,3.109-1.296c0.391,0,0.521-1.034,1.557-1.551   c1.036-0.518,2.073-1.426,2.724-1.941c0.646-0.518,0.776-0.13,0.776-0.13l2.202,0.13l0.651-0.518l1.688-1.036l0.775,0.778   l0.125,1.944c0,0-0.26,1.684-0.26,2.074s1.166,2.459,1.166,2.459s0,0,2.333-0.778c2.333-0.78,1.563-0.39,2.984-1.036   s0.646-0.518,0.775-1.168c0.131-0.65-0.646-1.686-1.036-2.459c-0.391-0.773-0.65-1.686-0.65-2.85c0,0,1.297-0.127,2.593-0.906   c1.297-0.78,0.781-0.518,1.427-1.426c0.646-0.906,0.771-1.291,1.167-2.982c0.391-1.684,0-1.684,0-2.847   c0-1.163,0.525-1.168,1.297-1.941c0.775-0.775,0.265-0.908-0.125-1.944c-0.386-1.033-1.172-0.516-2.333-0.646   c-1.172-0.128-0.646,0.39-1.688,0.258c-1.036-0.128-1.683-0.518-1.817-1.296c-0.13-0.78-0.125-0.646-0.261-2.071   c-0.125-1.424,0.261-1.296,0.526-2.202c0.26-0.908,0.26-3.24,0.26-3.24s1.036-1.168,1.683-1.941c0.65-0.778,0,0,0.775,0   c0.776,0,2.208-0.518,3.755-1.423c1.558-0.908,1.297-0.518,2.854-1.291c1.562-0.781,1.296-0.523,4.155-1.168   c2.849-0.646,1.942-0.646,2.718-0.908c0.776-0.26,1.422-0.518,2.854-0.518c1.432,0,1.687,0.908,3.108,1.554   s1.422,1.168,1.422,1.168s-0.125,1.168-1.036,1.556c-0.906,0.39-1.297,0.908-1.297,0.908l0.13,2.202c0,0,1.167,0.648,1.558,0.781   c0.391,0.132,0.646,0.26,2.463,0.518c1.813,0.26,2.333,0.778,3.89,1.168c1.553,0.388,2.073,0.388,4.401,0.388   c2.333,0,1.817,0.646,2.858,0.773c1.036,0.13,1.942,0.908,3.104,1.426c1.166,0.518,0.911,0.646,2.333,0.778   c1.427,0.132,0.78,0,2.077-0.26c1.292-0.258,1.292-0.39,2.333-0.908c1.036-0.518,1.167-0.906,3.104-1.814   c1.952-0.906,1.427-0.518,2.072-0.388c0.651,0.127,0.911,0.646,2.984,1.424c2.072,0.778,1.171,0.127,3.89-0.518   c2.724-0.646,0.776-1.036,0.776-1.036s0.646-1.942,1.687-2.592c1.036-0.646,1.417,0,1.417,0s2.858-1.036,3.51-0.906   c0.646,0.128,2.458-1.559,4.275-0.908c1.813,0.646,3.89,0.908,6.869,1.554c2.983,0.646,3.89,1.424,5.316,2.332   c1.427,0.906,1.942,2.074,3.114,3.37c1.166,1.296,2.588,3.5,2.588,3.5s0.021-0.005,0.03-0.01c0.13-0.063,1.202-0.533,2.178-0.898   c1.036-0.388,2.464-0.26,4.406,0.39c1.942,0.651,1.296,0.778,2.067,1.296c0.781,0.518,2.858,1.813,4.666,2.85   c1.817,1.036,2.333,1.296,4.671,2.074c2.333,0.773,2.589,1.687,3.5,2.59c0.911,0.905,1.682,0,1.682,0s0,0-0.01-0.083   c-0.015-0.103-0.045-0.318-0.115-0.826c-0.13-0.908-0.521-1.559-0.776-2.592c-0.255-1.036-0.39-1.686-0.39-3.885   c0-2.202-0.256-1.941-0.256-2.72c0-0.778,0.516-1.036,1.036-1.296c0.516-0.258,1.036-0.518,1.683-0.978   c0.65-0.463,2.072-0.058,3.244-0.058c1.166,0,1.036,0.127,2.333,0C448.251,197.221,447.074,196.41,446.949,196.027z" id="1" name="تهران"/>
	<path stroke="#020202" stroke-width="2" stroke-miterlimit="10" d="M269.99,160.005   c-3.239-1.038-5.958-0.953-7.52-1.966c-1.552-1.013-4.016-2.7-5.312-3.345c-1.297-0.646-2.984-1.944-4.016-2.722   c-1.036-0.778-2.599-2.72-3.369-3.238c-0.776-0.518-1.947-1.426-2.724-1.814c-0.776-0.39-2.724-1.296-3.239-1.426   c-0.525-0.128-2.078-1.168-2.724-1.424c-0.65-0.26-3.499-2.204-3.499-2.204s-0.911-1.684-2.333-2.202   c-0.621-0.225-1.803-0.861-2.939-1.516c-1.747,3.633-3.805,7.255-6.618,10.758c-2.153,2.687-4.48,4.941-6.895,6.843h0.006   c0,0,0.891,1.664,1.401,2.182c0.525,0.518,0.525,1.941,1.688,2.332c1.171,0.388,3.369-0.78,4.015,0   c0.651,0.778,1.297,1.168,2.208,1.424c0.911,0.257,1.297,0.646,2.594,1.423c1.297,0.781,2.458,0.908,3.244,1.426   c0.771,0.518,1.942,0.778,2.719,1.036c0.775,0.26,2.333,0,2.333,0s0.646,0,1.296,0.778c0.646,0.778,1.302,1.296,1.948,1.813   c0.646,0.518,1.031,1.168,2.067,1.814s3.114,0,3.114,0s1.682-0.39,2.067-0.39c0.391,0,2.333-0.778,2.983-1.033   c0.646-0.263,0.911-0.908,1.817-1.364c0.906-0.455,1.753-0.195,1.948,0.773c0.189,0.973,1.486,3.373,1.552,3.567   c0.07,0.193,1.427,0.71,1.427,0.71s0.646-0.583,1.297-1.101c0.65-0.518,1.036-1.426,1.687-1.687c0.646-0.26,0.776-0.45,1.878-1.228   c1.102-0.781,1.813-1.554,2.458-2.137c0.651-0.585,0.651-0.908,1.172-1.426s1.947-2.137,1.947-2.137l1.797-2.014   C271.077,160.365,270.591,160.195,269.99,160.005z" id="12" name="قدس"/>
	<path stroke="#020202" stroke-width="2" stroke-miterlimit="10" d="M465.098,98.889   c-4.596-16.085-14.113-31.384-24.246-38.972c-3.956-2.982-13.237-7.573-23.05-12.43c-14.925-7.396-31.842-15.782-41.188-23.56   c-7.921-6.6-16.691-11.827-25.037-15.25c-0.896,8.126-2.754,23.538-4.656,31.164c-1.156,4.601-3.209,7.861-5.393,11.309   c-3.279,5.194-6.988,11.078-9.957,24.456c-2.389,10.728-8.166,15.792-15.135,17.856c2.122,1.031,4.69,2.342,5.552,3.06   c1.552,1.296,5.442,2.592,6.479,4.146c1.036,1.556,1.036,1.556,1.036,1.556s-0.775,1.036-2.588,2.077   c-1.817,1.033-2.884,3.545-4.171,3.713c-1.281,0.17-2.448,4.188-2.448,4.188s-1.036,2.459-1.557,3.498   c-0.521,1.036-0.646,2.589-0.911,3.368c-0.261,0.778-0.386,1.687-1.167,2.592c-0.78,0.908-0.565,1.554-0.67,2.459   c-0.11,0.908-0.671,0.646,0,1.687c0.67,1.041,0.41,0.908,1.181,1.814c0.781,0.908,1.563,0.908,1.563,0.908l0.776-0.908   c0,0,0.521-1.036,1.942-0.906c1.427,0.127,1.817,0.26,2.593,0.906c0.776,0.645,2.208,0.908,2.208,0.908s0.651-0.646,2.067,0   c1.427,0.645,2.724,0.388,4.411,1.033c1.682,0.646,3.76,0.646,3.76,0.646s1.167-0.646,2.067,0c0.906,0.646,1.037,0.518,1.817,1.554   c0.781,1.036,1.813,1.686,1.813,1.686s1.942-1.686,3.63-2.072c1.682-0.388,2.983-1.556,3.369-1.556c0.391,0,1.947-1.168,3.891,0   c1.947,1.168,4.405,1.041,4.801,1.296c0.391,0.26,3.369-0.646,4.536,0.127c1.171,0.773-0.516-0.518,3.76,0.908   c4.28,1.423,5.832,0.388,6.874,1.291c1.036,0.906,0.516,1.556,2.333,1.814c1.812,0.26,3.885-0.391,4.146-0.776   c0.26-0.388,0.911-1.811,1.562-3.11c0.641-1.296,1.297-3.755,1.557-4.143c0.256-0.39,0.646-1.298,0.646-1.298l3.369,2.332   c0,0,0.911,1.036,1.688,1.296c0.771,0.258,2.718,0,2.718,0s1.942,0.646,2.979,1.554c1.036,0.906,1.427,0.26,1.687,1.041   c0.261,0.773,0,1.551,0,2.202s2.333,0.908,4.802,1.686c2.463,0.778,6.613,0,6.613,0s0.256,0.908,3.62,1.296   c2.743,0.317,3.944-0.823,4.506-0.496c0,0,1.597-0.498,2.107-0.846c0.525-0.343,4.155-0.86,4.155-0.86s4.32,0.172,5.012,0   c0.695-0.175,1.211-0.351,2.072-0.868c0.866-0.516,1.902-1.034,4.15-1.381c2.253-0.35,6.053-1.036,6.053-1.036l3.109-0.778   c0,0,4.836,0.603,5.187,0.603c0.346,0,2.072,0.953,2.674,1.471c0.605,0.518,2.858,1.814,3.544,1.854   c0.687,0.042,1.558,0.042,2.163,0c0.601-0.04,1.987-0.646,2.158-0.906c0.175-0.258,1.296-2.507,1.296-2.507   s0.691,0.175,0.951,0.263c0.126,0.04,1.167,0.778,2.203,1.531c-0.055-0.19-0.055-0.358,0.05-0.496   c0.866-1.211,1.212-3.803,1.903-5.181c0.69-1.384,1.557-6.395,2.763-8.639c1.207-2.244,1.382-2.069,2.939-4.146   c0.976-1.301,1.547-3.703,1.827-5.301C468.647,106.785,466.369,103.33,465.098,98.889z" id="5" name="شمیرانات"/>
	<path stroke="#020202" stroke-width="2" stroke-miterlimit="10" d="M474.6,146.362   c-0.175-0.693-7.6-8.767-7.6-8.767s-4.476-2.747-4.892-4.213c-1.036-0.753-2.072-1.496-2.197-1.531   c-0.266-0.087-0.957-0.263-0.957-0.263s-1.121,2.244-1.296,2.507c-0.171,0.26-1.558,0.866-2.158,0.906   c-0.605,0.042-1.472,0.042-2.163,0c-0.695-0.04-2.938-1.336-3.544-1.854c-0.602-0.518-2.333-1.471-2.674-1.471   c-0.346,0-5.187-0.605-5.187-0.605l-3.109,0.781c0,0-3.8,0.69-6.048,1.033c-2.253,0.345-3.289,0.863-4.155,1.384   c-0.861,0.518-1.382,0.693-2.072,0.866c-0.687,0.175-5.012,0-5.012,0s-3.63,0.518-4.155,0.863   c-0.516,0.343-2.107,0.843-2.107,0.843c0.125,0.078,0.225,0.228,0.3,0.498c0.386,1.423-0.13,3.5,0,4.273   c0.125,0.778-1.001,1.426,0.146,4.018c1.151,2.592,1.401,3.37,1.667,4.146c0.261,0.778,1.683,5.964,1.557,7.26   c-0.13,1.291,0.141,1.291,0.006,1.941c-0.136,0.646-0.306,1.687,0.04,2.592c0.345,0.908,0.085,2.592-0.566,3.627   c-0.646,1.036-0.646,1.296-0.646,2.459c0,1.164,1.817,2.077,2.463,2.459c0.646,0.39,2.458,0.908,3.104,1.687   c0.65,0.778,1.952,2.982,3.249,3.627c1.292,0.646,5.047,4.146,5.697,4.924c0.646,0.781,1.897,1.036,1.897,1.036   s1.081,4.151,1.607,6.348c0.521,2.199,2.983,4.408,4.535,4.408c1.558,0,1.167,0.388,2.724,0.773   c1.558,0.391,2.458,2.332,2.458,2.332s1.297,0.388,1.427,0.778c0.126,0.391,1.297,1.168,0,1.296c-1.296,0.128-1.171,0-2.333,0   c-1.161,0-2.593-0.405-3.244,0.058c-0.646,0.46-1.171,0.721-1.682,0.979c-0.525,0.26-1.036,0.518-1.036,1.296   s0.255,0.518,0.255,2.72c0,2.204,0.13,2.85,0.391,3.885c0.261,1.033,0.646,1.687,0.776,2.592c0.075,0.508,0.104,0.728,0.115,0.826   c3.309,1.261,8.025,0.611,9.116,0.636c0.666,0.015,1.457-0.128,2.123-0.288c-0.01-0.03-0.01-0.06,0.01-0.093   c0.691-1.033,1.036-2.935,2.243-5.184c1.211-2.244,1.737-4.488,2.938-7.431c1.212-2.935,2.248-4.488,4.155-8.639   c1.902-4.15,1.902-4.15,3.795-6.913c1.902-2.767,3.465-8.464,4.246-9.848c0.791-1.383,1.982-5.354,3.88-8.981   c1.902-3.628,1.732-5.354,2.598-9.848C476.151,148.596,474.77,147.053,474.6,146.362z" id="16" name="پردیس"/>
	<path stroke="#020202" stroke-width="2" stroke-miterlimit="10" d="M214.639,176.245   c0.346-0.861,0.696-1.211,1.036-2.077c0.346-0.861,0.521-1.384,0-3.11c-0.521-1.727,0,0-1.036-0.861c-1.041-0.86,0-1.036,0-1.036   l-1.832-1.901c0,0-0.586-0.516-1.447-0.861c-0.866-0.343,0-1.899,0-1.899s1.558-1.383,2.158-2.077   c0.605-0.69,1.126-1.726,1.126-1.726s-0.511-0.625-1.177-1.349c-10.088,5.764-20.315,6.37-24.086,6.37   c-2.388,0-7.454,0.283-13.862,0.631c-14.059,0.768-35.296,1.931-57.91,1.931c-27.17,0-52.173,3.378-72.264,6.092   c-4.245,0.568-8.221,1.106-11.86,1.563c-16.901,2.109-19.695,34.564-19.715,34.889c-0.065,0.926-0.476,1.731-1.071,2.347   c14.804-0.663,31.561-1.348,38.254-1.348c2.358,0,4.896-0.093,7.58-0.186c12.315-0.425,27.66-0.963,45.023,5.549   c5.036,1.887,9.938,4.013,15.114,6.272c15.806,6.875,32.146,13.985,52.753,13.985c3.995,0,7.455,0.54,10.403,1.602   c0.005-0.005,0.01-0.011,0.016-0.016c2.263-2.017,0.846-4.919,0.716-5.238c-0.131-0.326-2.458-2.142-2.724-2.332   c-0.256-0.2-3.891-3.112-3.891-3.112l-4.015-2.595c0,0-1.297-0.845-2.398-2.136c-1.102-1.296-1.036-2.334-1.492-4.083   c-0.455-1.746-0.841-1.879-1.076-2.587c-0.235-0.713-0.22-2.399,0-2.722c0.216-0.323,0.301-5.375,0.301-6.22   c0-0.841-0.972-4.796,0.581-4.273c1.552,0.523,4.28-0.713,4.28-0.713s1.206-0.686,7.95-2.675c6.738-1.986,5.702-2.329,7.089-3.022   c1.387-0.693,1.207-0.693,2.594-1.383c1.382-0.69,2.243-1.208,7.6-2.762c5.362-1.556,1.728-0.866,3.289-1.383   c1.558-0.518,0.866-0.343,2.073-1.208c1.206-0.861,1.557-0.518,2.764-1.036c1.211-0.518,3.629-1.384,6.919-1.902   c3.284-0.515,0.86-0.86,2.067-2.767c1.211-1.899,0,0,0.525-1.726c0.516-1.727,0,0-0.346-1.033   c-0.345-1.041-1.041-1.384-1.151-2.244c-0.115-0.861-0.06-1.559,0-2.077C213.542,177.278,214.293,177.11,214.639,176.245z" id="11" name = "ملارد"/>
	<path stroke="#020202" stroke-width="2" stroke-miterlimit="10" d="M280.233,242.149   c-0.445-0.45-0.775-1.636-0.866-1.901c-0.085-0.25-0.516-2.331-0.771-2.847c-0.261-0.516,0-1.381,0-1.727   c0-0.351-1.297-2.672-1.472-3.197c-0.171-0.516-0.861-0.956-1.933-2.507c-1.066-1.552-1.607-1.724-1.868-2.242   c-0.26-0.518-0.605-2.506-0.931-3.197c-0.325-0.693,0.495-1.989,0.581-2.762c0.09-0.778,0.09-2.504,0.09-3.11   s-0.176-1.383-0.671-3.022c-0.501-1.646-0.716-2.419-0.716-3.024c0-0.603-0.691-2.074-0.771-2.592   c-0.095-0.518-0.525-1.814-0.525-2.419c0-0.603-0.09-2.162-0.09-2.935c0-0.778-0.521-2.077-0.602-2.767   c-0.09-0.693-0.605-2.157-0.775-3.022c-0.12-0.62-0.205-1.368-0.271-2.029c-1.742,0.968-3.67,2.054-4.355,2.479   c-1.367,0.84-0.911,1.036-1.622,1.599s-0.906,0.993-1.878,1.706c-0.966,0.713-2.397,2.205-3.244,3.11   c-0.841,0.906-1.166,1.101-1.682,1.687c-0.521,0.583-0.586,1.296-0.776,1.491c-0.19,0.195-1.877,1.879-1.947,2.069   c-0.065,0.195-0.771,1.168-0.771,1.168l-0.375,1.148c0.36,0.173,0.821,0.538,1.452,1.208c2.854,3.022,4.586,4.058,4.841,4.233   c0.261,0.173,1.728,1.121,2.418,1.557c0.696,0.43,1.558,1.036,1.813,1.471c0.266,0.431,0.266,3.022,0,3.453   c-0.261,0.431-0.601,0.308-1.206,0.934c-0.606,0.625-2.248,2.096-2.248,2.096s-0.866,0.86-1.647,1.464   c-0.771,0.605-1.552,1.646-1.637,2.076c-0.091,0.431,0.09,1.986,0.345,2.677c0.261,0.696,0.346,1.387,0.776,1.901   c0.431,0.521,0.605,1.211,1.297,1.302c0.69,0.085,2.503-1.211,3.023-1.642c0.526-0.431,0.741-0.86,1.492-1.296   c0.756-0.436,1.102-0.956,1.797-1.471c0.691-0.516,1.297-1.126,1.813-1.211c0.521-0.086,1.297-0.431,1.728-0.346   c0.431,0.09,1.212,0.86,1.387,1.471c0.165,0.611,0.165,0.951,0.521,1.387c0.341,0.43,0.861,1.035,1.387,1.296   c0.516,0.255,1.122,0.521,1.638,1.035c0.521,0.516,0.695,0.691,1.206,1.297c0.521,0.605,0.696,0.95,1.212,1.381   c0.521,0.43,1.206,1.816,1.557,2.161c0.346,0.351,0.771,0.696,1.212,1.041c0.195,0.155,0.541,0.62,0.706,1.171l1.902-1.391   C280.519,242.37,280.323,242.24,280.233,242.149z" id="13" name="بهارستان"/>
	<path stroke="#020202" stroke-width="2" stroke-miterlimit="10" d="M318.738,192.655   c-0.911-0.646-3.63-1.168-4.541-1.556c-0.906-0.39-1.422-0.908-2.203-1.296c-0.78-0.39-1.296-1.426-2.077-2.85   c-0.771-1.424-2.849-3.368-3.885-4.146c-1.037-0.778-2.338-1.168-3.891-1.551c-1.557-0.391-2.593-0.908-4.02-1.426   c-1.428-0.518-2.203-1.296-2.979-1.686c-0.775-0.388-1.041-0.778-3.374-1.556c-2.328-0.773-1.031,0-3.5-1.426   c-2.463-1.424-2.723-1.941-3.108-2.202c-0.386-0.258-0.776-1.168-1.422-1.941c-0.405-0.488-1.116-1.636-1.598-2.424l-0.525,0.826   c0,0-0.26,2.372-0.605,2.827c-0.346,0.455-0.861,1.148-1.207,1.666c-0.345,0.518-0.866,2.244-1.297,2.592   c-0.436,0.342-0.695,0.86-1.206,1.296c-0.525,0.43-1.036,0.693-2.158,1.211c-1.131,0.515-2.293,0.951-2.748,1.296   c-0.451,0.343-3.22,1.814-3.22,1.814s-0.521,0.255-0.956,0.69c-0.431,0.43-0.601,0.953-0.601,1.471c0,0.518,0.17,0.778,0,1.639   s-0.436,2.157,0,2.767c0.431,0.605,0.861,1.726,0.861,2.507c0,0.778,0,0.861,0,1.986c0,1.128,0,2.159,0.09,2.938   c0.025,0.22,0.05,0.47,0.08,0.738c0.065,0.661,0.146,1.409,0.271,2.029c0.17,0.866,0.69,2.337,0.776,3.022   c0.085,0.693,0.601,1.989,0.601,2.767c0,0.773,0.09,2.332,0.09,2.937c0,0.603,0.431,1.899,0.525,2.417   c0.086,0.518,0.771,1.989,0.771,2.592c0,0.605,0.215,1.384,0.716,3.025c0.496,1.639,0.671,2.417,0.671,3.022s0,2.332-0.09,3.11   c-0.091,0.775-0.911,2.071-0.581,2.762c0.32,0.693,0.671,2.679,0.932,3.198c0.26,0.518,0.801,0.692,1.867,2.241   c1.071,1.562,1.762,1.991,1.933,2.512c0.175,0.511,1.472,2.843,1.472,3.192c0,0.346-0.261,1.211,0,1.731   c0.26,0.516,0.69,2.592,0.771,2.843c0.091,0.265,0.421,1.451,0.866,1.901c0.091,0.095,0.285,0.229,0.536,0.39l0.761-0.561   c0,0,1.637-0.52,2.328-1.301c0.696-0.771,1.817-2.241,1.992-2.582c0.171-0.35,0.516-2.076,0.516-2.076s0.781-1.727,1.473-2.332   c0.69-0.605,1.557-1.296,2.418-1.986c0.866-0.69,2.162-1.731,2.162-1.731s0.266-0.603,1.388-0.603c1.121,0,2.678-0.516,4.32-0.866   c1.642-0.343,3.544-1.12,3.544-1.12s0.431,0.087,1.297-0.519c0.861-0.605,1.643-1.813,1.902-2.506   c0.086-0.235,0.226-0.983,0.366-1.864c-0.431,0.005-0.741-0.143-1.282-0.297c-0.906-0.26-2.849-1.424-4.146-1.941   c-1.296-0.518-2.333-1.424-2.333-1.424s-0.125-0.908,0-1.814c0.131-0.908,1.683-3.5,2.203-3.627   c0.521-0.13,2.333-2.722,2.333-2.722s1.036-2.332,2.724-2.332c1.683,0,4.275-2.719,4.275-2.719l0.391-0.908l0.391-2.982   l1.942-1.038l1.942-0.648c0,0,1.041-0.255,2.203-0.515c1.177-0.258,2.338-0.39,2.338-0.39s0.521,0.518,0.646,0   c0.131-0.518,0.391-1.554,0.391-2.332c0-0.778,0.261-1.168,0.261-1.556C319.515,194.859,319.645,193.306,318.738,192.655z" id="7" name="اسلامشهر"/>
	<path stroke="#020202" stroke-width="2" stroke-miterlimit="10" d="M401.57,254.979   c0.525-1.426,0.13-3.758,0-5.834c-0.125-2.071-0.646-1.941-2.067-3.362c-1.427-1.427-3.896-1.427-4.411-1.041   c-0.516,0.391-2.333,0-2.333,0s-5.312,0-6.088,0c-0.32,0-1.006-0.41-1.707-0.9c-0.155,0.04-0.351,0.06-0.626,0.06   c-1.171,0-1.492-0.516-2.528,0c-1.036,0.521-2.202,0.716-2.719,0.78c-0.521,0.07-1.041-0.64-2.333,0   c-1.301,0.651-1.557,0.391-2.143,0.711c-0.575,0.325-0.841,0.325-0.771,0.65c0.064,0.32,1.227,1.421,1.557,1.682   c0.32,0.26,1.036,0.455,1.362,0.971c0.325,0.521,0.646,1.101,0.521,1.561c-0.131,0.451,0.521,0.711-0.911,1.356   c-1.422,0.646-1.422,0.775-2.984,1.426c-1.552,0.641-1.031,0.391-2.783,1.227c-1.752,0.846-2.328,1.166-2.854,1.426   c-0.521,0.255-0.842,0.32-1.297,0.841c-0.456,0.521-0.521,0.064-1.167,1.556c-0.65,1.491-0.585,1.427-1.106,2.723   c-0.521,1.296,0.776,0.45-1.227,1.816c-2.018,1.36-2.918,1.616-3.113,2.071c-0.19,0.45,0.195,5.184,0,5.374   c-0.115,0.12-0.216,1.501-0.286,2.772l1.928,0.75c0,0,3.54,0.866,4.235,1.031c0.691,0.18,3.024,0,3.024,0l2.934-1.171   c0,0,3.635-0.9,3.895-0.9c0.261,0,0-0.261,3.891-0.351c3.89-0.085,5.102,0.351,5.356,0c0.261-0.341,3.63-0.771,3.63-0.771   s1.472-0.781,2.248-1.301c0.771-0.516,1.207-0.251,2.674-1.902c1.472-1.636,2.678-2.411,2.678-2.411l2.854-2.683   c0,0,0.951-0.95,1.121-1.211c0.09-0.13,0.966-1.44,1.817-2.742c-0.315-0.33-0.576-0.72-0.781-1.23   C400.539,256.661,401.055,256.401,401.57,254.979z" id="15" name="قرچک"/>
	<path stroke="#020202" stroke-width="2" stroke-miterlimit="10" d="M668.625,161.041   c-0.265-0.778-7.139-4.016-9.212-4.796c-2.067-0.778-3.89-0.778-5.572-1.168c-1.682-0.388-9.462-2.982-14.644-3.37   c-5.191-0.39-10.498-1.426-11.8-2.204c-1.292-0.778-3.505-1.168-9.332-2.592c-5.833-1.426-5.703-0.908-14.649-3.11   c-8.941-2.204-3.89-1.036-9.462-1.687c-5.572-0.65-7.52-1.036-8.035-1.296c-0.246-0.118-2.278-0.84-4.376-1.568   c-8.501,2.199-16.816,3.402-23.03,3.402c-1.812,0-3.579,0.05-5.316,0.107c-10.579,0.313-21.528,0.641-37.934-11.068   c-6.398-4.581-13.993-7.465-21.328-10.268c-8.501-3.238-16.666-6.375-22.329-11.822c-0.285,1.599-0.851,3.998-1.827,5.304   c-1.562,2.074-1.728,1.901-2.938,4.146c-1.207,2.244-2.073,7.256-2.764,8.639c-0.691,1.384-1.036,3.971-1.902,5.179   c-0.101,0.137-0.101,0.308-0.05,0.498c0.415,1.466,4.891,4.211,4.891,4.211s7.425,8.081,7.6,8.767   c0.171,0.693,1.563,2.244,0.696,6.738c-0.866,4.496-0.696,6.217-2.599,9.85c-1.897,3.628-3.089,7.599-3.88,8.982   c-0.781,1.384-2.343,7.081-4.245,9.848c-1.893,2.762-1.893,2.762-3.795,6.913c-1.902,4.146-2.938,5.697-4.155,8.639   c-1.202,2.935-1.728,5.179-2.939,7.428c-1.201,2.244-1.552,4.15-2.242,5.187c-0.021,0.025-0.021,0.063-0.011,0.092   c0.301,0.999,14.475,3.463,24.156,11.816c0.346-3.803,1.518-7.185,3.985-9.592c5.232-5.099,14.033-4.253,26.91,2.607   c38.27,20.398,51.196,25.567,63.702,30.56c5.552,2.228,10.474,6.431,15.7,10.869c6.073,5.184,12.786,10.888,21.683,14.556   c2.123-4.839,6.645-15.087,7.04-15.477c0.516-0.521,7.429-14.512,8.436-16.758c1.001-2.247,2.458-4.148,5.392-8.071   c2.934-3.926,2.424-4.713,4.326-7.306c1.902-2.594,3.629-5.699,5.356-7.948c1.728-2.245,1.728-3.628,3.284-5.354   c1.563-1.726,3.289-6.395,4.496-7.598c1.206-1.211,2.938-5.011,3.109-5.529c0.17-0.518,5.011-8.464,5.011-8.464   s5.017-7.605,6.224-9.157c1.211-1.554,2.077-5.354,2.428-5.872c0.336-0.518,4.4-6.175,5.963-8.895   C670.178,161.691,668.881,161.819,668.625,161.041z" id="2" name="دماوند"/>
	<path stroke="#020202" stroke-width="2" stroke-miterlimit="10" d="M483.296,253.278   c-0.115-0.24-8.887-18.324-7.71-31.436c-9.683-8.354-23.855-10.818-24.156-11.816c-0.666,0.16-1.457,0.302-2.123,0.288   c-1.091-0.028-5.813,0.625-9.116-0.636c0.01,0.078,0.01,0.083,0.01,0.083s-0.771,0.906-1.682,0c-0.912-0.908-1.167-1.816-3.5-2.589   c-2.338-0.778-2.854-1.038-4.671-2.074c-1.813-1.036-3.885-2.332-4.666-2.85c-0.771-0.518-0.125-0.646-2.067-1.296   c-1.948-0.65-3.37-0.778-4.406-0.39c-0.971,0.365-2.043,0.835-2.178,0.898c-0.15,0.578-0.335,1.281-0.511,1.824   c-0.335,1.121-1.292,4.406-1.292,4.406v1.814c0,0-0.34,2.937-0.605,3.715c-0.26,0.773-0.69,3.285-0.951,4.146   s-0.605,1.639-1.036,2.417c-0.436,0.78-1.127,1.636-1.902,2.722c-0.771,1.086-1.207,1.776-1.728,2.294s-1.126,1.124-2.163,0.948   c-1.036-0.173-1.121,0.528-3.284-0.948c-2.157-1.469-4.841-3.11-4.841-3.11s-1.552-0.953-2.333-1.556   c-0.776-0.605-2.073-1.036-2.849-1.384c-0.781-0.345-1.132-0.78-2.248-1.211c-1.121-0.43-1.813-1.383-2.509-0.953   c-0.69,0.433-1.296,2.159-1.552,2.85c-0.26,0.693-0.09,1.296,0,1.989c0.091,0.69,0.091,0.69,0.346,1.469   c0.255,0.78,0.19,2.875,0.19,3.265c0,0.391,0.386,2.264,0.386,3.237s0.325,1.749-0.065,2.85c-0.386,1.101-0.641,1.491-0.996,3.178   c-0.36,1.687-0.301,2.657-0.496,3.497c-0.195,0.851-0.064,1.882-0.386,2.662c-0.32,0.781-0.32,1.166-0.58,1.552   c-0.195,0.3-0.176,0.596-0.676,0.721c0.705,0.48,1.392,0.9,1.707,0.9c0.781,0,6.093,0,6.093,0s1.813,0.391,2.333,0   s2.983-0.391,4.41,1.031c1.422,1.426,1.943,1.301,2.068,3.372c0.13,2.071,0.525,4.403,0,5.824   c-0.521,1.432-1.036,1.691-0.521,2.982c0.205,0.516,0.471,0.901,0.775,1.231c0.48,0.51,1.057,0.891,1.683,1.36   c1.041,0.781,1.297,0.65,2.213,1.691c0.906,1.031,1.031,0.906,3.104,2.202c1.978,1.241,2.904,1.541,4.336,3.032   c0.075,0.07,0.13,0.13,0.2,0.21c1.562,1.687,2.983,1.426,2.983,1.426l3.109,1.552c0,0,1.427,0.646,2.078,0.775   c0.646,0.13,1.867,0.911,2.878,0.911c1.012,0,2.954-2.593,2.954-2.593s2.073,1.171,3.63,1.171s2.983-0.39,4.146,0.125   c1.177,0.525,4.37,2.027,5.316,2.718c0.951,0.695,4.927,3.633,4.927,3.633s0.431,2.241,0.605,3.322   c0.176,1.081,5.187,3.933,6.133,4.884c0.951,0.95,4.496,4.488,6.919,5.959c2.424,1.472,1.728,1.036,4.406,2.678   c2.673,1.636,2.563,1.691,4.836,2.847c0.801,0.41,1.582,0.775,2.298,1.096c1.041-3.652,2.773-7.245,5.452-10.588   C485.028,276.356,487.937,262.565,483.296,253.278z" id = "10" name="پاکدشت"/>
	<path stroke="#020202" stroke-width="2" stroke-miterlimit="10" d="M798.248,111.723   c-5.577-1.854-16.156-4.166-27.36-6.615c-19.565-4.269-41.759-9.109-50.295-14.233c-9.313-5.574-45.479-13.308-62.256-8.429   c-2.418,0.708-5.542,2.024-6.679,4.288c-8.101,16.192-31.931,34.704-45.038,42.57c-7.124,4.273-16.206,7.661-25.092,9.96   c2.098,0.728,4.135,1.451,4.375,1.569c0.521,0.26,2.464,0.646,8.035,1.296c5.572,0.65,0.526-0.518,9.463,1.687   c8.946,2.202,8.821,1.686,14.648,3.11c5.833,1.423,8.041,1.813,9.332,2.592c1.302,0.781,6.614,1.814,11.801,2.204   s12.962,2.982,14.644,3.37c1.683,0.39,3.505,0.39,5.572,1.168c2.072,0.781,8.946,4.018,9.212,4.796   c0.256,0.781,1.552,0.646,0,3.368c-1.562,2.72-5.627,8.376-5.963,8.895c-0.346,0.523-1.211,4.321-2.428,5.872   c-1.212,1.554-6.224,9.157-6.224,9.157s-4.836,7.946-5.011,8.464c-0.176,0.518-1.902,4.321-3.109,5.529   c-1.212,1.208-2.938,5.872-4.496,7.598c-1.557,1.727-1.557,3.11-3.284,5.354c-1.727,2.244-3.459,5.357-5.356,7.949   c-1.902,2.592-1.392,3.382-4.326,7.305c-2.934,3.928-4.386,5.829-5.392,8.071c-1.006,2.241-7.92,16.237-8.436,16.753   c-0.396,0.4-4.917,10.648-7.039,15.481c2.538,1.046,5.241,1.932,8.17,2.582c22.659,5.024,45.634-0.385,49.564-8.216   c5.952-11.909,35.266-42.823,63.361-55.583c17.858-8.116,33.594-21.499,46.235-32.245c6.828-5.804,12.716-10.815,17.462-13.67   c6.979-4.181,12.481-10.14,17.328-15.392c3.664-3.97,7.119-7.721,10.724-10.125c4.616-3.085,11.465-10.4,15.74-15.217   C827.01,120.425,809.287,115.404,798.248,111.723z" id="9" name="فیروزکوه"/>
	<path stroke="#020202" stroke-width="2" stroke-miterlimit="10" d="M281.66,167.778c0,0-2.208-3.37-2.854-3.755   s-3.895-1.036-4.801-1.813c-0.741-0.636-0.786-1.008-2.544-1.691l-1.797,2.014c0,0-1.427,1.619-1.947,2.136   c-0.521,0.518-0.521,0.846-1.172,1.424c-0.646,0.585-1.361,1.358-2.458,2.137c-1.097,0.78-1.231,0.971-1.878,1.231   c-0.65,0.26-1.036,1.168-1.687,1.686c-0.651,0.518-1.297,1.101-1.297,1.101s-1.362-0.518-1.427-0.713   c-0.065-0.192-1.362-2.592-1.553-3.565c-0.194-0.968-1.041-1.231-1.947-0.773c-0.906,0.451-1.171,1.101-1.817,1.364   c-0.65,0.255-2.593,1.033-2.983,1.033c-0.386,0-2.067,0.39-2.067,0.39s-2.078,0.646-3.114,0c-1.036-0.645-1.427-1.296-2.068-1.813   c-0.65-0.518-1.301-1.036-1.947-1.814c-0.65-0.778-1.297-0.778-1.297-0.778s-1.557,0.26-2.333,0   c-0.775-0.257-1.947-0.518-2.718-1.036c-0.781-0.518-1.948-0.646-3.25-1.426c-1.291-0.773-1.677-1.166-2.588-1.423   c-0.911-0.26-1.557-0.646-2.208-1.424c-0.646-0.78-2.849,0.388-4.015,0c-1.167-0.39-1.167-1.813-1.688-2.332   c-0.516-0.518-1.402-2.184-1.402-2.184h-0.005c-1.752,1.383-3.539,2.574-5.342,3.603c0.671,0.723,1.177,1.349,1.177,1.349   s-0.521,1.036-1.126,1.726c-0.602,0.691-2.158,2.074-2.158,2.074s-0.866,1.559,0,1.901c0.861,0.343,1.447,0.861,1.447,0.861   l1.832,1.901c0,0-1.041,0.175,0,1.036c1.036,0.861,0.521-0.86,1.036,0.861c0.521,1.727,0.346,2.244,0,3.11   c-0.341,0.866-0.69,1.208-1.036,2.074c-0.346,0.863-1.097,1.036-1.151,1.554c-0.061,0.518-0.115,1.208,0,2.074   c0.104,0.863,0.801,1.211,1.151,2.245c0.346,1.036,0.861-0.691,0.346,1.036c-0.526,1.726,0.69-0.175-0.526,1.726   c-1.206,1.902,1.212,2.244-2.067,2.767c-3.284,0.523-5.702,1.384-6.919,1.902c-1.212,0.518-1.557,0.175-2.764,1.036   c-1.206,0.86-0.521,0.69-2.072,1.208c-1.558,0.518,2.072-0.175-3.289,1.383c-5.357,1.554-6.224,2.069-7.601,2.762   c-1.387,0.69-1.206,0.69-2.593,1.383c-1.387,0.691-0.346,1.034-7.09,3.022c-6.738,1.989-7.95,2.675-7.95,2.675   s-2.724,1.231-4.28,0.713s-0.581,3.433-0.581,4.273c0,0.845-0.085,5.897-0.3,6.22c-0.221,0.323-0.235,2.009,0,2.722   c0.235,0.711,0.62,0.841,1.076,2.587c0.456,1.747,0.391,2.787,1.492,4.083c1.102,1.291,2.397,2.136,2.397,2.136l4.016,2.595   c0,0,3.635,2.912,3.89,3.112c0.266,0.19,2.594,2.001,2.724,2.326s1.552,3.228-0.716,5.244c-0.005,0.005-0.01,0.011-0.015,0.016   c1.566,0.561,2.988,1.266,4.25,2.126l0.696-3.558c0,0,1.166-2.071,1.552-2.592c0.391-0.521,1.947-2.982,2.333-3.628   c0.391-0.646,0.055-1.687,0.741-2.722c0.69-1.033,1.342-3.11,1.467-3.628c0.13-0.515,0.255-0.773,1.557-3.365   c1.297-2.592,1.037-3.238,1.948-4.273c0.905-1.041,1.166-2.332,2.458-2.459c1.291-0.127,1.557,0.255,4.275-0.908   c2.724-1.163,3.369-1.813,4.41-2.202c1.037-0.39,4.406-1.944,6.219-2.982c1.813-1.036,4.28-1.814,4.28-1.814s0.516-0.781,2.594,0   c2.072,0.778,6.488,1.296,6.488,1.296s1.161,0.646,1.552,0.773c0.391,0.128,1.688,0.778,5.447,1.168s3.108-0.127,4.541,0.39   c1.427,0.516,3.89,0.128,4.275,0.26c0.385,0.128-0.326,0,1.978-0.39c2.303-0.388,2.563-0.646,2.948-0.646   c0.391,0,1.813-1.296,1.172,1.559c-0.651,2.85-0.125,2.72,0.991,2.89c0.871,0.133,0.756-1.648,2.003-1.036l0.375-1.146   c0,0,0.711-0.968,0.776-1.168c0.064-0.195,1.752-1.881,1.942-2.071c0.195-0.193,0.26-0.906,0.775-1.491   c0.521-0.583,0.842-0.778,1.683-1.684c0.846-0.908,2.273-2.399,3.244-3.112c0.977-0.711,1.172-1.141,1.878-1.707   c0.721-0.558,0.26-0.753,1.622-1.599c0.686-0.425,2.613-1.511,4.355-2.479c-0.03-0.265-0.056-0.518-0.08-0.738   c-0.091-0.778-0.091-1.814-0.091-2.935c0-1.123,0-1.211,0-1.989c0-0.778-0.43-1.901-0.86-2.504c-0.436-0.605-0.171-1.901,0-2.767   c0.17-0.861,0-1.124,0-1.642c0-0.518,0.17-1.033,0.601-1.468c0.436-0.433,0.956-0.693,0.956-0.693s2.769-1.471,3.219-1.814   c0.456-0.342,1.617-0.778,2.749-1.296c1.121-0.518,1.632-0.778,2.158-1.208c0.516-0.43,0.771-0.953,1.206-1.296   c0.431-0.345,0.951-2.077,1.297-2.594c0.346-0.518,0.861-1.208,1.206-1.664c0.346-0.453,0.606-2.83,0.606-2.83l0.525-0.826   C281.865,168.129,281.66,167.778,281.66,167.778z" id = "6" name="شهریار"/>
	<path stroke="#020202" stroke-width="2" stroke-miterlimit="10" d="M468.292,297.087   c-2.273-1.156-2.158-1.211-4.837-2.848c-2.673-1.641-1.987-1.211-4.405-2.677c-2.423-1.471-5.963-5.009-6.919-5.959   c-0.946-0.951-5.958-3.804-6.133-4.884c-0.171-1.081-0.602-3.323-0.602-3.323s-3.975-2.937-4.931-3.632   c-0.951-0.691-4.146-2.202-5.313-2.718c-1.166-0.516-2.593-0.13-4.15-0.13c-1.557,0-3.629-1.166-3.629-1.166   s-1.948,2.592-2.954,2.592c-1.001,0-2.233-0.771-2.879-0.91c-0.65-0.125-2.077-0.775-2.077-0.775l-3.104-1.552   c0,0-1.427,0.255-2.983-1.426c-0.075-0.08-0.131-0.141-0.2-0.21l-0.967,1.11c0,0-0.431,0.351-1.036,0.956   c-0.601,0.605-1.467,0.385-2.067,1.315c-0.606,0.931-1.212,1.531-1.387,1.792c-0.176,0.26-0.776,1.301-1.297,1.816   c-0.521,0.515-0.866,0.605-1.036,1.206c-0.176,0.61,0.255,1.386,0.43,1.901c0.171,0.521,0.526,0.775,1.037,1.381   c0.525,0.601,1.817,1.986,2.162,2.337c0.351,0.345,1.207,1.12,1.728,1.816c0.521,0.69,0.866,0.86,1.387,1.551   c0.521,0.695,1.036,1.301,1.297,1.901c0.26,0.61,0.69,1.642,0.951,2.332c0.266,0.69-0.085,0.605,0,1.471   c0.09,0.861-0.085,0.776-0.261,1.552c-0.17,0.78-0.17,0.87-0.69,1.301c-0.516,0.431-0.866,0.516-1.212,0.78   c-0.34,0.25-0.516,0.17-1.036,0.601c-0.516,0.431-0.431,0.351-0.69,0.866c-0.261,0.515-0.461,1.211-0.571,2.597   c-0.115,1.381,0.03,1.812,0,3.107c-0.035,1.291-0.575,2.507,0,3.022c0.571,0.515,1.177,1.816,1.607,2.677   c0.436,0.86,0.866,1.206,1.211,1.471c0.341,0.251,0.866-0.43,2.594-1.04c1.728-0.601-1.212-0.261,2.594-1.036   c3.8-0.775,4.405-1.211,4.405-1.211l3.63,0.346c0,0,4.926,1.211,5.872,1.471c0.957,0.26,1.902,0.17,5.878,0.516   c3.97,0.345,4.927,0.43,6.479,0.345c1.557-0.09,3.544-0.26,3.975-0.26c0.436,0,4.23-0.261,4.23-0.261l4.496-0.17h3.029l6.223,0.516   c0,0,1.597-0.035,3.145-0.141c0.045-3.037,0.44-6.149,1.316-9.212C469.868,297.862,469.093,297.492,468.292,297.087z" id = "14" name = "پیشوا"/>
	<path stroke="#020202" stroke-width="2" stroke-miterlimit="10" d="M278.872,243.927   c-0.16-0.551-0.506-1.012-0.706-1.177c-0.436-0.34-0.866-0.69-1.212-1.03c-0.346-0.346-1.036-1.731-1.557-2.162   c-0.521-0.43-0.696-0.78-1.212-1.386s-0.69-0.78-1.206-1.296c-0.521-0.521-1.127-0.78-1.638-1.036   c-0.525-0.26-1.041-0.86-1.387-1.296c-0.346-0.431-0.346-0.78-0.521-1.381c-0.17-0.61-0.956-1.386-1.387-1.471   c-0.431-0.091-1.207,0.255-1.728,0.34c-0.521,0.09-1.126,0.69-1.813,1.211c-0.686,0.516-1.036,1.03-1.797,1.471   c-0.756,0.431-0.966,0.861-1.492,1.296c-0.521,0.436-2.328,1.727-3.023,1.637c-0.691-0.085-0.866-0.775-1.297-1.291   c-0.431-0.521-0.521-1.211-0.771-1.901c-0.265-0.695-0.436-2.247-0.35-2.683c0.09-0.43,0.865-1.471,1.642-2.076   c0.776-0.603,1.643-1.464,1.643-1.464s1.637-1.471,2.248-2.096c0.61-0.625,0.951-0.498,1.211-0.933c0.261-0.43,0.261-3.022,0-3.453   c-0.266-0.43-1.126-1.041-1.817-1.471c-0.69-0.43-2.157-1.383-2.418-1.556c-0.255-0.175-1.992-1.211-4.841-4.233   c-0.631-0.671-1.092-1.036-1.452-1.208c-1.242-0.616-1.132,1.173-2.003,1.033c-1.121-0.173-1.642-0.04-0.991-2.89   c0.646-2.855-0.775-1.556-1.171-1.556c-0.386,0-0.646,0.26-2.949,0.646c-2.298,0.388-1.587,0.518-1.978,0.388   c-0.386-0.127-2.854,0.258-4.275-0.26c-1.427-0.518-0.776,0-4.541-0.39c-3.755-0.388-5.052-1.039-5.447-1.168   c-0.391-0.127-1.552-0.773-1.552-0.773s-4.411-0.518-6.488-1.296c-2.073-0.778-2.594,0-2.594,0s-2.458,0.778-4.28,1.814   c-1.813,1.036-5.182,2.592-6.218,2.982c-1.042,0.39-1.688,1.036-4.411,2.204c-2.719,1.166-2.979,0.778-4.275,0.906   s-1.557,1.423-2.458,2.459c-0.906,1.036-0.651,1.686-1.947,4.273c-1.297,2.587-1.422,2.85-1.558,3.368   c-0.13,0.518-0.775,2.592-1.462,3.628c-0.69,1.033-0.351,2.073-0.746,2.719c-0.385,0.646-1.942,3.107-2.333,3.628   c-0.385,0.521-1.552,2.592-1.552,2.592l-0.696,3.559c1.322,0.891,2.479,1.931,3.47,3.147c1.167,1.44,2.028,3.022,2.644,4.684   c1.177-0.221,2.338-0.44,2.554-0.44c0.455,0,9.312-0.28,10.003-0.365c0.69-0.085,1.812-0.13,3.023-0.13s1.472,0.13,2.423,0.13   c0.957,0,1.817-0.306,1.948-0.306c0.125,0,0.385,0,2.809-0.73c2.423-0.74,1.772-0.865,2.809-1.041   c1.036-0.17,1.036-0.255,2.769-0.69c1.727-0.43,2.593-0.605,4.581-1.035c1.992-0.431,3.023-0.176,4.325-0.346   c1.292-0.17,2.759-0.431,3.715-0.476c0.951-0.045,1.557,0.821,1.987,1.086c0.431,0.25,0.776,1.031,1.297,1.291   c0.521,0.261,0.861,0.775,1.212,0.951c0.34,0.17,1.987,0.43,2.934,0.26c0.951-0.175,0.951-0.175,2.503-0.521   c1.563-0.345,1.993,0.521,2.248,0.69c0.261,0.171,0.776,0.261,1.728,0.521c0.951,0.261,1.817,0.605,2.418,0.861   c0.605,0.26,2.077,1.21,5.021,2.161c2.934,0.951,3.369,1.466,5.012,2.162c1.646,0.69,1.036,0.69,1.562,0.95   c0.516,0.261,0.861,0.69,2.934,1.642c2.073,0.95,1.387,0.69,2.158,0.95c0.781,0.261,1.902,0.861,2.769,1.036   c0.861,0.175,1.206,1.556,1.557,1.901c0.341,0.346,0.606,1.466,0.951,2.162c0.351,0.69,0.526,1.12,1.127,1.466   c0.601,0.35,0.601,0.085,0.951,0c0.341-0.09,0.696-0.261,1.297-0.69c0.605-0.431,0.605-0.601,0.605-1.206s0-1.986,0-2.587   c0-0.605-0.17-2.507-0.09-3.463c0.09-0.945,0.17-2.066,0.17-3.022c0-0.95,0-1.812,0-2.066c0-0.265,1.127-3.197,2.684-4.233   C278.997,245.313,279.057,244.557,278.872,243.927z" id = "8" name="رباط کریم"/>
	<path stroke="#020202" stroke-width="2" stroke-miterlimit="10" d="M504.523,369.564   c-10.088-10.077-23.44-25.92-28.917-36.868c-2.013-4.013-6.469-14.211-6.329-25.297c-1.552,0.101-3.144,0.141-3.144,0.141   l-6.223-0.521h-3.029l-4.496,0.175c0,0-3.8,0.256-4.235,0.256c-0.431,0-2.418,0.175-3.97,0.26c-1.553,0.09-2.504,0-6.479-0.34   c-3.98-0.341-4.932-0.256-5.878-0.521c-0.951-0.25-5.872-1.472-5.872-1.472l-3.63-0.34c0,0-0.605,0.431-4.406,1.211   c-3.805,0.78-0.865,0.43-2.593,1.041c-1.728,0.61-2.248,1.291-2.594,1.03c-0.345-0.26-0.775-0.601-1.211-1.471   c-0.431-0.861-1.037-2.152-1.612-2.672c-0.571-0.521-0.03-1.727,0-3.022c0.035-1.296-0.11-1.727,0-3.112   c0.115-1.382,0.32-2.072,0.575-2.593c0.256-0.52,0.176-0.43,0.691-0.865c0.525-0.431,0.695-0.346,1.036-0.605   c0.346-0.26,0.696-0.34,1.212-0.78c0.521-0.431,0.521-0.516,0.69-1.291c0.176-0.781,0.346-0.69,0.261-1.557   c-0.085-0.865,0.266-0.775,0-1.466c-0.261-0.695-0.691-1.731-0.951-2.332c-0.261-0.61-0.776-1.211-1.297-1.901   s-0.866-0.86-1.387-1.562c-0.521-0.686-1.382-1.461-1.728-1.811c-0.34-0.351-1.637-1.731-2.163-2.337   c-0.516-0.605-0.865-0.861-1.036-1.376c-0.175-0.525-0.605-1.302-0.431-1.901c0.171-0.611,0.521-0.696,1.037-1.211   c0.516-0.521,1.121-1.562,1.296-1.812c0.171-0.266,0.776-0.871,1.387-1.797c0.606-0.926,1.462-0.715,2.068-1.315   c0.605-0.605,1.036-0.951,1.036-0.951l0.966-1.116c-1.432-1.49-2.357-1.796-4.34-3.032c-2.068-1.296-2.203-1.165-3.104-2.206   c-0.916-1.031-1.172-0.901-2.213-1.682c-0.626-0.471-1.201-0.851-1.677-1.366c-0.856,1.296-1.737,2.617-1.817,2.742   c-0.171,0.266-1.122,1.211-1.122,1.211l-2.858,2.677c0,0-1.201,0.781-2.674,2.422c-1.467,1.642-1.902,1.382-2.678,1.902   c-0.771,0.515-2.243,1.291-2.243,1.291s-3.369,0.43-3.63,0.775c-0.255,0.35-1.467-0.085-5.356,0c-3.891,0.085-3.63,0.35-3.891,0.35   c-0.265,0-3.895,0.901-3.895,0.901l-2.934,1.176c0,0-2.333,0.17-3.029,0c-0.69-0.17-4.23-1.041-4.23-1.041l-1.928-0.751   c-0.05,0.776-0.08,1.507-0.104,1.896c-0.065,1.041,0.064,1.941,0,2.857c-0.065,0.9,0,1.552-0.391,2.457   c-0.386,0.905-0.711,1.941-1.227,3.107c-0.521,1.166-0.521,3.623-0.391,4.083c0.125,0.45,0.521,3.362,0.521,3.362s0,1.621,0,3.433   c0,1.816,0.456,3.823,0.776,4.859c0.32,1.04,0.521,1.296,1.166,3.497c0.651,2.207,0.721,1.491,3.439,3.698   c2.719,2.206,3.154,4.639,3.154,4.639s1.297,2.422,1.467,3.372c0.175,0.956,0.69,0.695,0.951,3.11   c0.266,2.422,0.266,2.592,1.387,3.973c1.127,1.381,2.158,3.452,2.243,4.053c0.09,0.61,0.695,3.032,0.695,3.894   c0,0.87,0.171,1.901,0.171,2.592s0.866,3.372,0.436,3.973s-1.132,1.211-1.643,1.992c-0.525,0.771-0.866,1.291-1.557,2.241   c-0.696,0.951-1.036,1.211-1.558,1.991c-0.521,0.771-0.865,1.462-1.812,2.843c-0.957,1.381-1.122,1.901-2.073,2.771   c-0.951,0.861-1.126,1.121-2.418,2.242c-1.302,1.121-1.997,1.291-2.684,2.502c-0.686,1.211-1.051,1.551-2.729,2.592   c-0.931,0.58-2.889,2.352-4.511,3.863c5.397,1.091,8.866,1.761,8.997,1.791l3.694,0.7l-0.61,3.703   c-0.075,0.461-1.603,12.42,15.484,18.824c7.681,2.883,17.713,5.435,27.426,7.887c19.82,5.033,32.161,8.406,35.961,14.08   c3.29,4.924,28.237,24.979,45.023,37.909c10.459-11.85,24.832-30.693,24.832-38.339C513.65,392.813,513.65,378.691,504.523,369.564z" id = "3" name = "ورامین"/>
	<path stroke="#020202" stroke-width="2" stroke-miterlimit="10" d="M417,201.469c0,0-1.422-2.204-2.588-3.5   c-1.177-1.296-1.688-2.459-3.114-3.37c-1.427-0.908-2.333-1.687-5.316-2.332c-2.979-0.646-5.052-0.908-6.869-1.554   s-3.63,1.036-4.275,0.908c-0.651-0.13-3.51,0.906-3.51,0.906s-0.381-0.646-1.417,0c-1.041,0.646-1.688,2.592-1.688,2.592   s1.948,0.391-0.775,1.036c-2.719,0.646-1.813,1.296-3.891,0.518c-2.077-0.778-2.333-1.296-2.983-1.423   c-0.646-0.13-0.12-0.518-2.072,0.388c-1.943,0.908-2.068,1.296-3.104,1.814c-1.041,0.518-1.041,0.646-2.333,0.908   c-1.297,0.26-0.65,0.388-2.078,0.26c-1.421-0.128-1.166-0.26-2.333-0.778c-1.161-0.518-2.067-1.296-3.104-1.426   c-1.041-0.127-0.525-0.773-2.858-0.773c-2.328,0-2.854,0-4.401-0.388c-1.557-0.39-2.077-0.908-3.89-1.168   c-1.817-0.258-2.072-0.39-2.463-0.518c-0.391-0.128-1.558-0.781-1.558-0.781l-0.13-2.202c0,0,0.391-0.518,1.297-0.908   c0.906-0.388,1.036-1.556,1.036-1.556s0-0.518-1.422-1.168c-1.422-0.646-1.683-1.554-3.109-1.554s-2.072,0.258-2.858,0.518   c-0.771,0.257,0.13,0.257-2.714,0.908c-2.858,0.646-2.593,0.388-4.155,1.168c-1.557,0.773-1.296,0.388-2.854,1.291   c-1.552,0.906-2.979,1.424-3.755,1.424c-0.775,0-0.125-0.778-0.775,0c-0.646,0.778-1.683,1.941-1.683,1.941s0,2.332-0.261,3.24   c-0.265,0.906-0.65,0.778-0.525,2.202c0.13,1.426,0.13,1.291,0.261,2.071c0.135,0.778,0.775,1.168,1.817,1.296   c1.041,0.128,0.521-0.39,1.687-0.257c1.167,0.13,1.948-0.388,2.333,0.645c0.391,1.041,0.906,1.168,0.126,1.944   c-0.776,0.773-1.297,0.778-1.297,1.941s0.391,1.168,0,2.847c-0.391,1.686-0.521,2.077-1.167,2.982   c-0.646,0.908-0.13,0.646-1.427,1.426c-1.297,0.778-2.593,0.906-2.593,0.906c0,1.168,0.26,2.072,0.65,2.85   c0.391,0.778,1.172,1.814,1.036,2.459c-0.135,0.646,0.646,0.518-0.775,1.168c-1.422,0.646-0.651,0.255-2.984,1.036   c-2.333,0.778-2.333,0.778-2.333,0.778s-1.166-2.074-1.166-2.459s0.26-2.074,0.26-2.074l-0.125-1.944l-0.776-0.778l-1.687,1.036   l-0.651,0.518l-2.202-0.13c0,0-0.131-0.388-0.776,0.13c-0.65,0.516-1.688,1.424-2.724,1.941c-1.036,0.518-1.166,1.551-1.557,1.551   c-0.386,0-2.464,0.908-3.109,1.296c-0.65,0.391-1.557,0.391-2.854,0.908c-0.531,0.215-0.881,0.293-1.177,0.298   c-0.146,0.876-0.29,1.629-0.37,1.864c-0.261,0.693-1.042,1.902-1.902,2.507c-0.866,0.603-1.297,0.518-1.297,0.518   s-1.902,0.778-3.545,1.121c-1.637,0.348-3.199,0.865-4.32,0.865s-1.382,0.608-1.382,0.608s-1.302,1.03-2.168,1.721   c-0.861,0.695-1.728,1.387-2.418,1.992c-0.69,0.6-1.472,2.331-1.472,2.331s-0.341,1.727-0.516,2.072   c-0.176,0.345-1.297,1.816-1.988,2.592c-0.695,0.78-2.333,1.291-2.333,1.291l-0.761,0.561l-1.902,1.391   c0.186,0.631,0.125,1.381-0.706,1.937c-1.557,1.036-2.684,3.969-2.684,4.229s0,1.126,0,2.071c0,0.951-0.085,2.077-0.17,3.022   c-0.085,0.956,0.09,2.857,0.09,3.463c0,0.601,0,1.981,0,2.587s0,0.775-0.605,1.206c-0.601,0.43-0.951,0.61-1.297,0.69   c-0.346,0.085-0.346,0.35-0.946,0c-0.605-0.346-0.78-0.775-1.131-1.466c-0.346-0.696-0.606-1.816-0.951-2.167   c-0.346-0.341-0.691-1.722-1.553-1.896c-0.871-0.175-1.992-0.775-2.769-1.036c-0.775-0.26-0.09,0-2.162-0.95   c-2.073-0.956-2.424-1.387-2.935-1.642c-0.525-0.26,0.086-0.26-1.562-0.95c-1.643-0.696-2.072-1.211-5.012-2.162   c-2.938-0.951-4.41-1.901-5.021-2.161c-0.596-0.256-1.462-0.601-2.418-0.861c-0.951-0.26-1.467-0.34-1.728-0.521   c-0.26-0.17-0.69-1.035-2.242-0.69c-1.563,0.346-1.563,0.346-2.509,0.521c-0.951,0.17-2.593-0.09-2.934-0.26   c-0.351-0.176-0.696-0.69-1.212-0.951c-0.521-0.26-0.866-1.041-1.296-1.296c-0.431-0.26-1.037-1.121-1.988-1.081   c-0.951,0.045-2.423,0.306-3.715,0.476c-1.297,0.175-2.333-0.085-4.325,0.346c-1.987,0.43-2.854,0.605-4.581,1.035   c-1.732,0.431-1.732,0.521-2.769,0.69c-1.036,0.176-0.386,0.301-2.809,1.041c-2.418,0.73-2.679,0.73-2.809,0.73   c-0.135,0-0.991,0.301-1.942,0.301c-0.956,0-1.212-0.125-2.429-0.125c-1.201,0-2.333,0.045-3.023,0.125   c-0.691,0.09-9.548,0.37-10.003,0.37c-0.216,0-1.382,0.21-2.554,0.44c2.684,7.266,0.776,16.202-0.57,22.512   c-0.506,2.347-0.967,4.559-0.967,5.649c0,3.522-1.536,9.502-3.664,17.804c-2.939,11.419-6.589,25.646-6.589,35.995   c0,10.657-4.756,15.481-10.488,18.193c7.99,4.033,20.356,7.355,32.722-0.881c23.751-15.821,68.845-13.76,88.239-5.454   c12.982,5.564,45.975,12.649,61.99,15.902c1.612-1.501,3.575-3.282,4.511-3.853c1.672-1.041,2.033-1.382,2.724-2.593   c0.696-1.211,1.387-1.381,2.684-2.512c1.292-1.121,1.467-1.381,2.418-2.241c0.956-0.861,1.127-1.381,2.073-2.763   c0.951-1.391,1.296-2.071,1.812-2.852c0.521-0.781,0.861-1.031,1.558-1.992c0.69-0.95,1.036-1.471,1.557-2.241   c0.516-0.78,1.212-1.381,1.643-1.991c0.431-0.601-0.431-3.272-0.431-3.974c0-0.69-0.176-1.721-0.176-2.582   c0-0.86-0.605-3.292-0.69-3.893c-0.096-0.601-1.127-2.672-2.248-4.063c-1.121-1.381-1.121-1.551-1.382-3.963   c-0.266-2.419-0.776-2.159-0.956-3.109c-0.17-0.956-1.467-3.373-1.467-3.373s-0.436-2.441-3.149-4.644   c-2.724-2.201-2.788-1.491-3.444-3.692c-0.646-2.202-0.836-2.462-1.166-3.503c-0.321-1.031-0.776-3.042-0.776-4.854   c0-1.816,0-3.433,0-3.433s-0.386-2.923-0.521-3.373c-0.125-0.45-0.125-2.912,0.391-4.083c0.521-1.166,0.841-2.201,1.227-3.103   c0.39-0.91,0.325-1.561,0.39-2.462c0.07-0.905-0.064-1.811,0-2.852c0.025-0.391,0.061-1.121,0.105-1.896   c0.07-1.271,0.165-2.647,0.285-2.768c0.195-0.195-0.189-4.924,0-5.374c0.195-0.45,1.102-0.71,3.114-2.076   c2.008-1.361,0.711-0.516,1.227-1.812c0.521-1.296,0.456-1.231,1.106-2.722c0.646-1.491,0.711-1.041,1.167-1.557   c0.455-0.521,0.775-0.585,1.296-0.841c0.526-0.26,1.102-0.585,2.854-1.426c1.752-0.846,1.231-0.586,2.788-1.226   c1.558-0.651,1.558-0.781,2.979-1.432c1.428-0.641,0.776-0.9,0.912-1.351c0.125-0.461-0.195-1.041-0.521-1.562   c-0.32-0.521-1.041-0.711-1.361-0.971c-0.325-0.26-1.492-1.361-1.557-1.682c-0.07-0.325,0.194-0.325,0.771-0.65   c0.586-0.32,0.841-0.064,2.143-0.71c1.292-0.646,1.817,0.069,2.333,0c0.521-0.065,1.683-0.261,2.719-0.781   c1.036-0.516,1.361,0,2.528,0c0.275,0,0.471-0.02,0.626-0.06c0.495-0.12,0.476-0.421,0.671-0.716   c0.26-0.391,0.26-0.775,0.586-1.557c0.32-0.775,0.185-1.812,0.38-2.656c0.195-0.841,0.13-1.816,0.496-3.498   c0.36-1.687,0.615-2.076,0.996-3.178c0.391-1.105,0.07-1.881,0.07-2.85c0-0.968-0.391-2.85-0.391-3.237   c0-0.391,0.064-2.487-0.19-3.265c-0.261-0.778-0.261-0.778-0.346-1.471c-0.09-0.69-0.26-1.296,0-1.986   c0.261-0.693,0.861-2.419,1.558-2.85c0.695-0.431,1.387,0.518,2.508,0.953c1.121,0.43,1.462,0.86,2.243,1.208   c0.775,0.343,2.072,0.78,2.849,1.383c0.781,0.605,2.333,1.559,2.333,1.559s2.684,1.639,4.841,3.11   c2.163,1.471,2.243,0.773,3.284,0.948c1.037,0.173,1.643-0.43,2.163-0.948c0.521-0.518,0.956-1.208,1.732-2.296   c0.771-1.086,1.462-1.942,1.897-2.72c0.431-0.773,0.775-1.554,1.036-2.419s0.691-3.37,0.956-4.143   c0.261-0.781,0.606-3.715,0.606-3.715v-1.814c0,0,0.951-3.285,1.291-4.408c0.165-0.543,0.351-1.244,0.506-1.824   C417.021,201.459,417,201.469,417,201.469z" id = "4" name = "ری"/>
</g>

</svg>